<svg width="500" height="500" viewBox="0 0 500 500" fill="none" xmlns="http://www.w3.org/2000/svg">
<path d="M309.223 78.8499C262.053 57.0699 205.223 55.9799 156.223 72.4099C106.793 88.9999 55.6726 130.84 51.0026 186.41C47.5426 227.19 79.6026 252.64 85.2126 290.66C88.6226 313.75 77.8726 333.66 76.2126 355.96C74.8026 374.96 81.6026 393.07 94.2126 407.15C133.213 450.91 209.313 467.82 255.143 424.75C273.143 407.8 289.143 384.49 313.563 376.14C362.653 359.38 437.673 355.14 445.063 289.64C449.563 249.72 424.993 212.73 404.353 180.82C378.503 141 354.003 99.5399 309.223 78.8499Z" fill="#C6FF00"/>
<path opacity="0.7" d="M309.223 78.8499C262.053 57.0699 205.223 55.9799 156.223 72.4099C106.793 88.9999 55.6726 130.84 51.0026 186.41C47.5426 227.19 79.6026 252.64 85.2126 290.66C88.6226 313.75 77.8726 333.66 76.2126 355.96C74.8026 374.96 81.6026 393.07 94.2126 407.15C133.213 450.91 209.313 467.82 255.143 424.75C273.143 407.8 289.143 384.49 313.563 376.14C362.653 359.38 437.673 355.14 445.063 289.64C449.563 249.72 424.993 212.73 404.353 180.82C378.503 141 354.003 99.5399 309.223 78.8499Z" fill="white"/>
<path d="M309.223 78.8499C262.053 57.0699 205.223 55.9799 156.223 72.4099C106.793 88.9999 55.6726 130.84 51.0026 186.41C47.5426 227.19 79.6026 252.64 85.2126 290.66C88.6226 313.75 77.8726 333.66 76.2126 355.96C74.8026 374.96 81.6026 393.07 94.2126 407.15C133.213 450.91 209.313 467.82 255.143 424.75C273.143 407.8 289.143 384.49 313.563 376.14C362.653 359.38 437.673 355.14 445.063 289.64C449.563 249.72 424.993 212.73 404.353 180.82C378.503 141 354.003 99.5399 309.223 78.8499Z" fill="#C6FF00"/>
<path opacity="0.7" d="M309.223 78.8499C262.053 57.0699 205.223 55.9799 156.223 72.4099C106.793 88.9999 55.6726 130.84 51.0026 186.41C47.5426 227.19 79.6026 252.64 85.2126 290.66C88.6226 313.75 77.8726 333.66 76.2126 355.96C74.8026 374.96 81.6026 393.07 94.2126 407.15C133.213 450.91 209.313 467.82 255.143 424.75C273.143 407.8 289.143 384.49 313.563 376.14C362.653 359.38 437.673 355.14 445.063 289.64C449.563 249.72 424.993 212.73 404.353 180.82C378.503 141 354.003 99.5399 309.223 78.8499Z" fill="white"/>
<path d="M422.109 304.37H50.1094V307.76H422.109V304.37Z" fill="#263238"/>
<path d="M311.644 263C312.375 263.189 313.13 263.27 313.884 263.24C313.884 263.24 313.544 262.24 313.514 262.14C313.164 261.42 312.064 260.22 311.174 260.34C311.025 260.363 310.883 260.417 310.757 260.499C310.63 260.581 310.523 260.689 310.441 260.815C310.36 260.942 310.307 261.085 310.285 261.234C310.263 261.383 310.273 261.535 310.314 261.68C310.427 261.983 310.604 262.258 310.834 262.486C311.064 262.714 311.34 262.89 311.644 263Z" fill="#263238"/>
<path d="M332.394 257.57C331.494 257.47 330.394 258.7 330.104 259.43C330.104 259.5 329.744 260.54 329.764 260.54L329.214 261.18C328.864 261.61 328.474 262.1 328.084 262.66C327.656 263.264 327.262 263.891 326.904 264.54C326.506 265.262 326.171 266.019 325.904 266.8C325.904 266.53 325.904 265.8 325.904 265.74C325.794 264.94 325.124 263.45 324.244 263.29C324.096 263.267 323.945 263.276 323.801 263.315C323.656 263.354 323.521 263.423 323.404 263.517C323.288 263.611 323.192 263.728 323.123 263.861C323.054 263.994 323.014 264.14 323.004 264.29C323.018 264.614 323.102 264.931 323.25 265.22C323.399 265.508 323.608 265.761 323.864 265.96C324.482 266.367 325.155 266.68 325.864 266.89C325.614 267.692 325.417 268.511 325.274 269.34C325.184 269.82 325.114 270.34 325.054 270.8C325.054 270.57 325.054 270.37 325.054 270.34C324.944 269.54 324.274 268.06 323.394 267.9C323.246 267.875 323.094 267.883 322.949 267.921C322.804 267.96 322.668 268.028 322.551 268.123C322.434 268.217 322.338 268.335 322.27 268.469C322.202 268.603 322.162 268.749 322.154 268.9C322.168 269.224 322.252 269.541 322.401 269.829C322.549 270.117 322.759 270.37 323.014 270.57C323.632 270.97 324.306 271.277 325.014 271.48C325.014 271.66 324.964 271.85 324.944 272.04C324.834 272.95 324.734 273.85 324.604 274.73C324.554 275.05 324.504 275.35 324.444 275.66C324.453 275.526 324.453 275.393 324.444 275.26C324.344 274.46 323.674 272.97 322.784 272.81C322.637 272.785 322.485 272.793 322.341 272.831C322.196 272.87 322.061 272.939 321.945 273.033C321.829 273.128 321.734 273.246 321.666 273.38C321.599 273.513 321.561 273.66 321.554 273.81C321.568 274.134 321.651 274.451 321.8 274.74C321.949 275.028 322.158 275.281 322.414 275.48C322.997 275.874 323.638 276.174 324.314 276.37C324.254 276.68 324.184 276.99 324.104 277.29C324.024 277.59 324.004 277.69 323.944 277.89C323.884 278.09 323.814 278.29 323.744 278.49C323.614 278.86 323.474 279.25 323.334 279.61L323.044 280.33C323.094 280.02 323.174 279.42 323.174 279.33C323.17 278.626 322.98 277.936 322.624 277.33C322.629 277.25 322.629 277.169 322.624 277.09C322.606 276.941 322.557 276.799 322.479 276.671C322.402 276.543 322.299 276.434 322.176 276.349C322.053 276.264 321.914 276.206 321.767 276.178C321.62 276.151 321.47 276.155 321.324 276.19C320.454 276.42 319.894 277.95 319.854 278.75C319.854 278.8 319.854 279.32 319.904 279.64C319.904 279.46 319.824 279.27 319.774 279.08C319.684 278.69 319.584 278.31 319.474 277.9L319.294 277.3C319.234 277.1 319.154 276.9 319.084 276.69C318.914 276.22 318.714 275.75 318.504 275.28C319.206 275.135 319.881 274.882 320.504 274.53C320.777 274.351 321.008 274.116 321.18 273.839C321.353 273.563 321.464 273.253 321.504 272.93C321.509 272.78 321.482 272.63 321.425 272.491C321.368 272.352 321.283 272.227 321.175 272.123C321.066 272.02 320.937 271.94 320.796 271.889C320.654 271.839 320.504 271.818 320.354 271.83C319.454 271.93 318.674 273.36 318.514 274.15C318.514 274.2 318.444 274.78 318.424 275.09C318.294 274.81 318.174 274.53 318.034 274.25C317.634 273.45 317.204 272.64 316.774 271.84L316.384 271.1C317.115 270.947 317.819 270.687 318.474 270.33C318.748 270.15 318.98 269.913 319.152 269.635C319.325 269.357 319.435 269.045 319.474 268.72C319.478 268.569 319.45 268.42 319.391 268.282C319.333 268.143 319.247 268.019 319.137 267.916C319.028 267.813 318.898 267.735 318.756 267.685C318.615 267.636 318.464 267.617 318.314 267.63C317.424 267.73 316.644 269.16 316.484 269.95C316.484 270.01 316.394 270.84 316.384 271.05C316.104 270.51 315.824 269.96 315.574 269.42C315.229 268.681 314.935 267.919 314.694 267.14C315.429 266.99 316.137 266.731 316.794 266.37C317.066 266.188 317.296 265.951 317.469 265.673C317.641 265.395 317.752 265.084 317.794 264.76C317.798 264.609 317.77 264.46 317.711 264.322C317.653 264.183 317.567 264.059 317.457 263.956C317.348 263.853 317.218 263.775 317.076 263.725C316.935 263.676 316.784 263.657 316.634 263.67C315.744 263.77 314.964 265.2 314.794 265.99C314.794 266.05 314.704 266.99 314.704 267.11L314.654 266.97C314.431 266.185 314.28 265.382 314.204 264.57C314.154 264.12 314.124 263.69 314.114 263.27C314.845 263.206 315.56 263.027 316.234 262.74C316.521 262.589 316.772 262.38 316.97 262.124C317.168 261.869 317.31 261.574 317.384 261.26C317.404 261.113 317.393 260.964 317.353 260.822C317.312 260.679 317.243 260.547 317.149 260.433C317.055 260.318 316.939 260.224 316.808 260.157C316.676 260.089 316.532 260.049 316.384 260.04C315.484 260.04 314.554 261.38 314.304 262.14L314.134 262.94C314.134 262.75 314.134 262.56 314.134 262.38C314.134 261.69 314.134 261.07 314.214 260.52C314.214 260.2 314.274 259.92 314.304 259.65C314.919 259.257 315.469 258.771 315.934 258.21C316.121 257.944 316.248 257.641 316.305 257.321C316.362 257.002 316.348 256.673 316.264 256.36C316.215 256.218 316.136 256.088 316.032 255.98C315.929 255.871 315.804 255.785 315.665 255.729C315.526 255.672 315.376 255.645 315.226 255.651C315.076 255.656 314.929 255.693 314.794 255.76C313.994 256.17 313.794 257.76 313.914 258.58C313.914 258.65 314.234 259.7 314.244 259.7C314.244 259.96 314.174 260.23 314.134 260.53C314.134 261.08 314.024 261.71 314.014 262.39C313.987 263.13 314.004 263.871 314.064 264.61C314.127 265.434 314.264 266.25 314.474 267.05C314.334 266.82 313.914 266.21 313.874 266.17C313.344 265.56 311.974 264.69 311.144 265.05C311.008 265.11 310.885 265.2 310.786 265.311C310.686 265.423 310.611 265.554 310.565 265.697C310.52 265.839 310.505 265.99 310.523 266.139C310.54 266.288 310.588 266.431 310.664 266.56C310.854 266.823 311.099 267.042 311.383 267.201C311.666 267.36 311.981 267.455 312.304 267.48C313.051 267.476 313.792 267.362 314.504 267.14C314.734 267.948 315.018 268.74 315.354 269.51C315.554 269.96 315.764 270.41 315.984 270.85C315.854 270.66 315.734 270.5 315.714 270.48C315.184 269.87 313.814 269 312.984 269.35C312.847 269.412 312.725 269.502 312.625 269.614C312.525 269.727 312.45 269.859 312.405 270.002C312.36 270.146 312.345 270.297 312.362 270.447C312.379 270.596 312.428 270.74 312.504 270.87C312.695 271.133 312.94 271.351 313.223 271.51C313.506 271.669 313.821 271.764 314.144 271.79C314.871 271.79 315.592 271.679 316.284 271.46C316.364 271.63 316.444 271.8 316.534 271.97C316.944 272.79 317.354 273.6 317.734 274.41C317.864 274.69 317.984 274.98 318.114 275.26L317.884 274.93C317.354 274.33 315.974 273.46 315.144 273.81C315.008 273.872 314.887 273.963 314.788 274.076C314.689 274.189 314.615 274.322 314.571 274.465C314.527 274.608 314.513 274.759 314.531 274.908C314.549 275.057 314.598 275.201 314.674 275.33C314.865 275.593 315.11 275.811 315.393 275.97C315.676 276.129 315.991 276.224 316.314 276.25C317.016 276.249 317.714 276.145 318.384 275.94C318.504 276.23 318.624 276.53 318.724 276.82C318.824 277.11 318.864 277.21 318.914 277.41C318.964 277.61 319.024 277.82 319.084 278.02C319.174 278.4 319.274 278.8 319.354 279.18C319.434 279.56 319.464 279.69 319.514 279.94L319.094 279.06C318.664 278.38 317.434 277.31 316.554 277.54C316.41 277.579 316.276 277.649 316.161 277.744C316.046 277.84 315.953 277.959 315.888 278.093C315.822 278.228 315.787 278.375 315.783 278.524C315.779 278.673 315.806 278.822 315.864 278.96C316.008 279.25 316.215 279.504 316.469 279.705C316.723 279.905 317.019 280.047 317.334 280.12C318.067 280.232 318.812 280.232 319.544 280.12C319.634 280.54 319.714 280.94 319.774 281.33C320.014 282.67 320.164 283.79 320.254 284.58C320.254 284.72 320.254 284.85 320.254 284.96H317.534L318.534 304.31H323.154L324.154 284.96H321.624L321.684 284.85C322.034 284.13 322.514 283.09 323.034 281.85L323.534 280.58C324.259 280.741 325.003 280.799 325.744 280.75C326.06 280.701 326.361 280.587 326.63 280.414C326.899 280.242 327.128 280.016 327.304 279.75C327.37 279.615 327.406 279.469 327.411 279.32C327.416 279.171 327.39 279.022 327.335 278.884C327.279 278.746 327.195 278.62 327.088 278.516C326.982 278.412 326.854 278.332 326.714 278.28C325.854 277.99 324.554 278.96 324.074 279.61C324.074 279.61 323.784 280.1 323.624 280.38L323.834 279.83C323.964 279.46 324.094 279.09 324.224 278.68L324.404 278.09C324.468 277.882 324.522 277.672 324.564 277.46C324.684 276.97 324.774 276.46 324.864 275.97C325.532 276.236 326.237 276.398 326.954 276.45C327.279 276.449 327.6 276.378 327.894 276.239C328.188 276.101 328.447 275.9 328.654 275.65C328.74 275.527 328.8 275.387 328.828 275.24C328.857 275.092 328.854 274.941 328.82 274.794C328.786 274.648 328.722 274.511 328.631 274.391C328.541 274.271 328.426 274.172 328.294 274.1C327.494 273.69 326.054 274.45 325.484 275.02C325.484 275.02 325.084 275.51 324.894 275.76C324.894 275.46 324.984 275.15 325.024 274.84C325.134 273.95 325.224 273.04 325.314 272.14C325.314 271.86 325.364 271.58 325.394 271.3C326.087 271.582 326.819 271.754 327.564 271.81C327.888 271.809 328.208 271.738 328.502 271.602C328.795 271.465 329.055 271.267 329.264 271.02C329.35 270.897 329.41 270.757 329.438 270.61C329.467 270.462 329.464 270.311 329.43 270.164C329.396 270.018 329.332 269.881 329.241 269.761C329.151 269.641 329.036 269.542 328.904 269.47C328.104 269.05 326.664 269.82 326.094 270.38C326.094 270.38 325.524 271.08 325.404 271.25C325.464 270.64 325.534 270.04 325.634 269.44C325.749 268.634 325.923 267.839 326.154 267.06C326.848 267.338 327.58 267.51 328.324 267.57C328.648 267.569 328.968 267.498 329.261 267.362C329.555 267.225 329.815 267.027 330.024 266.78C330.11 266.657 330.17 266.517 330.198 266.37C330.227 266.222 330.224 266.071 330.19 265.924C330.156 265.778 330.092 265.641 330.001 265.521C329.911 265.401 329.796 265.302 329.664 265.23C328.864 264.81 327.424 265.58 326.854 266.14C326.854 266.19 326.254 266.89 326.154 267.03C326.158 266.983 326.158 266.936 326.154 266.89C326.403 266.111 326.718 265.355 327.094 264.63C327.304 264.23 327.524 263.86 327.744 263.5C328.39 263.847 329.084 264.093 329.804 264.23C330.128 264.263 330.454 264.226 330.762 264.121C331.069 264.015 331.35 263.844 331.584 263.62C331.682 263.506 331.755 263.373 331.798 263.23C331.841 263.087 331.855 262.936 331.837 262.788C331.819 262.639 331.77 262.496 331.694 262.367C331.618 262.238 331.516 262.127 331.394 262.04C330.644 261.55 329.134 262.15 328.504 262.65C328.504 262.65 328.144 262.99 327.924 263.22L328.224 262.75C328.604 262.18 328.984 261.68 329.324 261.24L329.874 260.57C330.602 260.582 331.328 260.481 332.024 260.27C332.327 260.151 332.6 259.968 332.824 259.733C333.049 259.498 333.219 259.217 333.324 258.91C333.364 258.76 333.371 258.603 333.344 258.45C333.318 258.297 333.258 258.152 333.169 258.024C333.081 257.897 332.966 257.79 332.832 257.712C332.698 257.633 332.549 257.585 332.394 257.57ZM322.464 281.67C321.914 282.91 321.464 283.93 321.064 284.67C320.984 284.81 320.924 284.94 320.864 285.05H320.804C320.804 284.923 320.784 284.773 320.744 284.6C320.634 283.8 320.464 282.67 320.194 281.32C320.114 280.9 320.014 280.44 319.904 279.98C320.328 279.81 320.742 279.616 321.144 279.4C321.687 279.864 322.289 280.255 322.934 280.56L322.464 281.67Z" fill="#263238"/>
<path d="M327.669 263.31C327.669 263.31 327.959 262.25 327.969 262.18C328.079 261.39 327.829 259.78 326.969 259.39C326.833 259.328 326.685 259.295 326.535 259.294C326.385 259.293 326.237 259.324 326.1 259.384C325.963 259.445 325.84 259.534 325.74 259.645C325.64 259.756 325.564 259.887 325.519 260.03C325.445 260.346 325.442 260.675 325.509 260.993C325.577 261.311 325.713 261.61 325.909 261.87C326.424 262.431 327.016 262.916 327.669 263.31Z" fill="#263238"/>
<path d="M96.9975 265C97.6919 265.184 98.4095 265.264 99.1275 265.24C99.1275 265.24 98.7975 264.24 98.7675 264.19C98.4375 263.5 97.3975 262.36 96.5475 262.48C96.4055 262.5 96.2695 262.55 96.1487 262.628C96.0279 262.705 95.9252 262.807 95.8474 262.928C95.7696 263.048 95.7187 263.184 95.698 263.326C95.6773 263.468 95.6873 263.612 95.7275 263.75C95.8375 264.037 96.0078 264.297 96.2269 264.513C96.4459 264.728 96.7087 264.894 96.9975 265Z" fill="#263238"/>
<path d="M116.748 259.87C115.898 259.78 114.878 260.94 114.568 261.64C114.568 261.71 114.228 262.7 114.248 262.7C114.078 262.88 113.908 263.08 113.728 263.3C113.398 263.71 113.018 264.18 112.648 264.71C112.278 265.24 111.888 265.84 111.528 266.49C111.131 267.178 110.796 267.901 110.528 268.65C110.528 268.4 110.528 267.7 110.528 267.65C110.428 266.89 109.788 265.48 108.948 265.33C108.803 265.305 108.655 265.312 108.513 265.351C108.371 265.39 108.24 265.459 108.128 265.555C108.017 265.65 107.927 265.769 107.867 265.903C107.806 266.037 107.776 266.183 107.778 266.33C107.787 266.638 107.865 266.941 108.005 267.215C108.145 267.49 108.344 267.731 108.588 267.92C109.18 268.308 109.827 268.605 110.508 268.8C110.273 269.564 110.086 270.342 109.948 271.13C109.868 271.59 109.798 272.06 109.738 272.52C109.738 272.3 109.738 272.11 109.738 272.08C109.638 271.32 108.998 269.91 108.158 269.76C108.017 269.735 107.873 269.741 107.735 269.777C107.597 269.813 107.468 269.879 107.357 269.969C107.246 270.059 107.156 270.171 107.092 270.299C107.029 270.427 106.993 270.567 106.988 270.71C107 271.017 107.079 271.319 107.219 271.594C107.358 271.868 107.556 272.109 107.798 272.3C108.371 272.684 109.003 272.975 109.668 273.16C109.668 273.34 109.668 273.52 109.598 273.7C109.498 274.56 109.398 275.42 109.278 276.26L109.128 277.14C109.128 276.94 109.128 276.78 109.128 276.76C109.028 276 108.388 274.59 107.548 274.43C107.403 274.405 107.255 274.412 107.113 274.451C106.971 274.49 106.84 274.559 106.728 274.655C106.617 274.75 106.527 274.869 106.467 275.003C106.406 275.137 106.376 275.283 106.378 275.43C106.389 275.736 106.467 276.037 106.607 276.31C106.747 276.583 106.945 276.822 107.188 277.01C107.745 277.383 108.355 277.669 108.998 277.86C108.938 278.15 108.878 278.45 108.798 278.73C108.755 278.922 108.702 279.113 108.638 279.3L108.458 279.87C108.328 280.22 108.198 280.59 108.068 280.93C107.938 281.27 107.878 281.4 107.788 281.62C107.838 281.33 107.918 280.75 107.918 280.7C107.908 280.028 107.725 279.371 107.388 278.79C107.393 278.713 107.393 278.636 107.388 278.56C107.373 278.416 107.327 278.278 107.253 278.154C107.179 278.031 107.079 277.924 106.961 277.843C106.842 277.761 106.707 277.706 106.565 277.681C106.423 277.657 106.277 277.663 106.138 277.7C105.318 277.92 104.788 279.38 104.748 280.14C104.748 280.19 104.748 280.68 104.748 280.99L104.628 280.45C104.538 280.08 104.438 279.72 104.338 279.33C104.278 279.14 104.218 278.95 104.168 278.76C104.118 278.57 104.028 278.37 103.968 278.18C103.798 277.73 103.608 277.28 103.418 276.84C104.087 276.697 104.731 276.454 105.328 276.12C105.583 275.948 105.798 275.723 105.958 275.461C106.118 275.198 106.221 274.905 106.258 274.6C106.259 274.459 106.23 274.321 106.174 274.192C106.117 274.064 106.034 273.949 105.931 273.855C105.827 273.76 105.705 273.689 105.572 273.645C105.438 273.601 105.298 273.586 105.158 273.6C104.308 273.69 103.568 275.05 103.408 275.8C103.408 275.85 103.348 276.4 103.328 276.7C103.208 276.44 103.088 276.17 102.958 275.9C102.578 275.13 102.168 274.37 101.758 273.6L101.388 272.9C102.087 272.757 102.761 272.511 103.388 272.17C103.644 271.996 103.859 271.77 104.02 271.506C104.18 271.242 104.282 270.947 104.318 270.64C104.319 270.5 104.29 270.361 104.234 270.232C104.177 270.104 104.094 269.989 103.991 269.895C103.887 269.8 103.765 269.729 103.632 269.685C103.498 269.641 103.358 269.626 103.218 269.64C102.368 269.74 101.628 271.1 101.468 271.85C101.468 271.9 101.388 272.7 101.378 272.9C101.108 272.38 100.848 271.9 100.608 271.34C100.285 270.637 100.004 269.916 99.7681 269.18C100.468 269.035 101.142 268.786 101.768 268.44C102.024 268.269 102.24 268.045 102.401 267.782C102.561 267.52 102.663 267.225 102.698 266.92C102.699 266.779 102.67 266.641 102.614 266.512C102.557 266.384 102.474 266.269 102.371 266.175C102.267 266.08 102.145 266.009 102.012 265.965C101.878 265.921 101.738 265.906 101.598 265.92C100.748 266.01 100.008 267.37 99.8581 268.12C99.8581 268.18 99.7681 269.03 99.7581 269.19V269.06C99.5462 268.314 99.4023 267.551 99.3281 266.78C99.3281 266.35 99.2581 265.94 99.2381 265.54C99.9265 265.477 100.601 265.309 101.238 265.04C101.512 264.897 101.752 264.696 101.94 264.45C102.129 264.205 102.261 263.922 102.328 263.62C102.35 263.476 102.34 263.33 102.3 263.191C102.259 263.052 102.189 262.923 102.094 262.813C101.999 262.704 101.881 262.617 101.749 262.557C101.617 262.498 101.473 262.468 101.328 262.47C100.468 262.47 99.5781 263.74 99.3281 264.47C99.3281 264.47 99.2281 264.92 99.1681 265.23C99.1681 265.05 99.1681 264.86 99.1681 264.69C99.1681 264.04 99.1681 263.45 99.2481 262.92C99.2481 262.62 99.3081 262.35 99.3381 262.1C99.9198 261.726 100.439 261.264 100.878 260.73C101.058 260.478 101.181 260.19 101.236 259.886C101.291 259.581 101.278 259.268 101.198 258.97C101.152 258.835 101.077 258.712 100.98 258.609C100.882 258.506 100.764 258.424 100.632 258.37C100.5 258.316 100.359 258.291 100.217 258.296C100.075 258.301 99.9354 258.336 99.8081 258.4C99.0381 258.79 98.8081 260.33 98.9681 261.08C98.9681 261.15 99.2681 262.15 99.2781 262.14C99.2781 262.38 99.2081 262.64 99.1781 262.93C99.1781 263.45 99.0681 264.05 99.0581 264.7C99.0141 265.399 99.0141 266.1 99.0581 266.8C99.1132 267.584 99.2438 268.361 99.4481 269.12L98.8781 268.29C98.3781 267.71 97.0681 266.88 96.2781 267.22C96.1471 267.277 96.03 267.362 95.9347 267.468C95.8393 267.575 95.7679 267.701 95.7252 267.837C95.6826 267.974 95.6697 268.118 95.6874 268.26C95.7052 268.401 95.7531 268.538 95.8281 268.66C96.0076 268.909 96.2393 269.116 96.507 269.266C96.7747 269.416 97.072 269.506 97.3781 269.53C98.0871 269.531 98.792 269.423 99.4681 269.21C99.6926 269.977 99.9665 270.728 100.288 271.46C100.468 271.89 100.668 272.32 100.878 272.74L100.628 272.38C100.128 271.8 98.8181 270.98 98.0281 271.31C97.8971 271.367 97.78 271.452 97.6847 271.558C97.5893 271.665 97.5179 271.791 97.4752 271.927C97.4326 272.064 97.4197 272.208 97.4374 272.35C97.4552 272.491 97.5031 272.628 97.5781 272.75C97.7571 273 97.9884 273.209 98.2561 273.36C98.5238 273.512 98.8213 273.604 99.1281 273.63C99.8062 273.624 100.48 273.519 101.128 273.32L101.368 273.8C101.758 274.58 102.158 275.35 102.518 276.12L102.878 276.93L102.658 276.62C102.158 276.04 100.848 275.21 100.058 275.55C99.9271 275.607 99.81 275.692 99.7146 275.798C99.6193 275.905 99.5479 276.031 99.5052 276.167C99.4626 276.304 99.4497 276.448 99.4674 276.59C99.4852 276.731 99.5331 276.868 99.6081 276.99C99.7871 277.24 100.018 277.448 100.286 277.6C100.554 277.752 100.851 277.844 101.158 277.87C101.836 277.875 102.511 277.774 103.158 277.57C103.268 277.85 103.378 278.13 103.478 278.41C103.578 278.69 103.608 278.78 103.658 278.98C103.708 279.18 103.768 279.36 103.818 279.55C103.908 279.91 103.998 280.29 104.078 280.65L104.228 281.38L103.828 280.54C103.418 279.9 102.248 278.88 101.418 279.09C101.279 279.126 101.149 279.191 101.037 279.282C100.925 279.373 100.835 279.487 100.771 279.616C100.707 279.745 100.672 279.886 100.669 280.03C100.665 280.174 100.692 280.317 100.748 280.45C100.889 280.724 101.089 280.965 101.332 281.155C101.576 281.345 101.857 281.479 102.158 281.55C102.854 281.657 103.562 281.657 104.258 281.55C104.338 281.94 104.418 282.33 104.478 282.7C104.698 283.97 104.838 285.04 104.928 285.79C104.928 285.93 104.928 286.04 104.928 286.16H102.348L103.288 304.55H107.688L108.628 286.16H106.228V286.05C106.558 285.36 107.018 284.37 107.508 283.16C107.668 282.78 107.828 282.37 107.988 281.94C108.675 282.107 109.383 282.164 110.088 282.11C110.393 282.061 110.683 281.947 110.939 281.774C111.195 281.601 111.41 281.374 111.568 281.11C111.633 280.982 111.67 280.843 111.677 280.7C111.684 280.557 111.66 280.415 111.607 280.282C111.554 280.15 111.473 280.03 111.369 279.931C111.266 279.832 111.143 279.757 111.008 279.71C110.198 279.44 109.008 280.36 108.498 280.98L108.078 281.71C108.138 281.54 108.208 281.37 108.268 281.19C108.398 280.84 108.518 280.48 108.648 280.1C108.708 279.91 108.758 279.72 108.818 279.53C108.878 279.34 108.918 279.14 108.968 278.94C109.078 278.47 109.168 278 109.248 277.52C109.888 277.77 110.563 277.921 111.248 277.97C111.556 277.968 111.86 277.9 112.14 277.771C112.419 277.641 112.668 277.453 112.868 277.22C112.954 277.104 113.013 276.97 113.043 276.829C113.072 276.688 113.071 276.542 113.038 276.401C113.006 276.261 112.944 276.129 112.856 276.015C112.768 275.9 112.656 275.807 112.528 275.74C111.768 275.35 110.398 276.08 109.858 276.62C109.858 276.62 109.478 277.08 109.288 277.32C109.288 277.03 109.378 276.74 109.418 276.45C109.518 275.6 109.608 274.73 109.688 273.87C109.688 273.61 109.688 273.35 109.768 273.08C110.426 273.343 111.121 273.505 111.828 273.56C112.136 273.558 112.44 273.49 112.72 273.361C112.999 273.231 113.248 273.043 113.448 272.81C113.532 272.693 113.589 272.56 113.617 272.42C113.645 272.279 113.642 272.134 113.609 271.995C113.575 271.855 113.513 271.725 113.425 271.612C113.336 271.499 113.225 271.406 113.098 271.34C112.338 270.94 110.978 271.67 110.428 272.21C110.428 272.21 109.888 272.87 109.778 273.03C109.838 272.45 109.898 271.88 109.988 271.31C110.105 270.546 110.272 269.791 110.488 269.05C111.15 269.314 111.848 269.476 112.558 269.53C112.865 269.528 113.167 269.46 113.445 269.33C113.723 269.201 113.969 269.013 114.168 268.78C114.254 268.664 114.313 268.53 114.343 268.389C114.372 268.248 114.371 268.102 114.338 267.961C114.306 267.821 114.244 267.689 114.156 267.575C114.068 267.46 113.956 267.367 113.828 267.3C113.068 266.91 111.698 267.64 111.158 268.18C111.158 268.18 110.578 268.89 110.488 269.02C110.493 268.973 110.493 268.926 110.488 268.88C110.721 268.14 111.022 267.423 111.388 266.74C111.578 266.36 111.788 266 111.998 265.66C112.622 265.999 113.298 266.232 113.998 266.35C114.304 266.386 114.615 266.354 114.907 266.255C115.2 266.156 115.466 265.994 115.688 265.78C115.784 265.674 115.857 265.548 115.9 265.412C115.944 265.275 115.957 265.131 115.94 264.989C115.923 264.846 115.876 264.709 115.801 264.587C115.727 264.465 115.627 264.36 115.508 264.28C114.798 263.8 113.358 264.37 112.758 264.85L112.208 265.4C112.308 265.25 112.398 265.09 112.498 264.95C112.858 264.41 113.218 263.95 113.498 263.52C113.688 263.28 113.858 263.07 114.028 262.88C114.705 262.882 115.379 262.784 116.028 262.59C116.315 262.476 116.574 262.302 116.788 262.079C117.002 261.857 117.166 261.591 117.268 261.3C117.339 261.174 117.383 261.034 117.395 260.89C117.407 260.746 117.387 260.601 117.338 260.465C117.289 260.329 117.21 260.205 117.108 260.102C117.007 260 116.884 259.92 116.748 259.87ZM107.308 282.78C106.788 283.97 106.308 284.94 105.968 285.61C105.908 285.75 105.838 285.87 105.788 285.98H105.728C105.728 285.84 105.728 285.7 105.668 285.54C105.568 284.78 105.398 283.71 105.148 282.43C105.068 282.02 104.978 281.59 104.878 281.15C105.279 280.989 105.669 280.806 106.048 280.6C106.565 281.042 107.141 281.412 107.758 281.7C107.608 282.08 107.448 282.44 107.308 282.78Z" fill="#263238"/>
<path d="M112.244 265.32C112.244 265.32 112.524 264.32 112.534 264.26C112.634 263.5 112.394 261.97 111.624 261.6C111.495 261.539 111.354 261.507 111.211 261.505C111.068 261.504 110.926 261.533 110.795 261.591C110.665 261.649 110.548 261.734 110.453 261.841C110.358 261.947 110.287 262.073 110.244 262.21C110.173 262.51 110.169 262.823 110.231 263.125C110.293 263.427 110.421 263.712 110.604 263.96C111.083 264.49 111.635 264.948 112.244 265.32Z" fill="#263238"/>
<path d="M335.438 306.37V118.53" stroke="#263238" stroke-linecap="round" stroke-linejoin="round"/>
<path d="M167.438 306.37V119.7" stroke="#263238" stroke-linecap="round" stroke-linejoin="round"/>
<path d="M60.1875 214.16H408.677" stroke="#263238" stroke-linecap="round" stroke-linejoin="round"/>
<path d="M216.481 179.66L212.141 182.33" stroke="#263238" stroke-width="0.5" stroke-linecap="round" stroke-linejoin="round"/>
<path d="M289.74 134.51L222.32 176.06" stroke="#263238" stroke-width="0.5" stroke-linecap="round" stroke-linejoin="round"/>
<path d="M298.637 137.32L244.617 170.6" stroke="#263238" stroke-width="0.5" stroke-linecap="round" stroke-linejoin="round"/>
<path d="M322.226 122.78L305.906 132.83" stroke="#263238" stroke-width="0.5" stroke-linecap="round" stroke-linejoin="round"/>
<path d="M166.438 188C181.349 188 193.438 175.912 193.438 161C193.438 146.088 181.349 134 166.438 134C151.526 134 139.438 146.088 139.438 161C139.438 175.912 151.526 188 166.438 188Z" fill="#263238"/>
<path d="M166.436 184.42C179.37 184.42 189.856 173.934 189.856 161C189.856 148.065 179.37 137.58 166.436 137.58C153.501 137.58 143.016 148.065 143.016 161C143.016 173.934 153.501 184.42 166.436 184.42Z" fill="white"/>
<path d="M151.25 165.31L166.44 161V139.75" stroke="#263238" stroke-width="2" stroke-miterlimit="10"/>
<path d="M409.789 380.75H416.439" stroke="#263238" stroke-linecap="round" stroke-linejoin="round"/>
<path d="M46.4375 380.75H400.767" stroke="#263238" stroke-linecap="round" stroke-linejoin="round"/>
<path d="M123.219 371.43H90.2188C90.2188 371.43 90.2187 380.29 94.8787 391.88C94.8787 394.1 100.209 395.88 106.789 395.88C113.369 395.88 118.689 394.09 118.689 391.88C118.703 391.771 118.703 391.66 118.689 391.55C123.169 380.12 123.219 371.43 123.219 371.43Z" fill="white" stroke="#263238" stroke-linecap="round" stroke-linejoin="round"/>
<path d="M106.828 376.24C115.979 376.24 123.398 374.087 123.398 371.43C123.398 368.774 115.979 366.62 106.828 366.62C97.6765 366.62 90.2578 368.774 90.2578 371.43C90.2578 374.087 97.6765 376.24 106.828 376.24Z" fill="white" stroke="#263238" stroke-linecap="round" stroke-linejoin="round"/>
<path d="M106.831 375.45C115.043 375.45 121.701 373.65 121.701 371.43C121.701 369.21 115.043 367.41 106.831 367.41C98.6185 367.41 91.9609 369.21 91.9609 371.43C91.9609 373.65 98.6185 375.45 106.831 375.45Z" fill="white" stroke="#263238" stroke-linecap="round" stroke-linejoin="round"/>
<path d="M93.3594 373.13C95.7394 374.5 100.869 375.44 106.829 375.44C112.789 375.44 117.919 374.5 120.289 373.13C117.919 371.77 112.779 370.82 106.829 370.82C100.879 370.82 95.7394 371.77 93.3594 373.13Z" fill="#263238" stroke="#263238" stroke-linecap="round" stroke-linejoin="round"/>
<path d="M99.898 373.51C99.898 373.51 95.588 362.75 96.848 359.88C98.108 357.01 102.228 357.37 103.668 360.24C105.108 363.11 105.818 373.87 105.818 373.87C105.818 373.87 101.508 375.31 99.898 373.51Z" fill="#C6FF00" stroke="#263238" stroke-linecap="round" stroke-linejoin="round"/>
<path d="M103.668 374.59C103.668 374.59 100.258 355.59 101.148 351.99C102.038 348.39 106.538 347.14 109.758 349.83C112.978 352.52 111.758 366.16 111.758 368.13C111.758 370.1 111.578 374.23 111.578 374.23C109.021 375.056 106.289 375.181 103.668 374.59Z" fill="#C6FF00" stroke="#263238" stroke-linecap="round" stroke-linejoin="round"/>
<path d="M110.663 374.23C110.663 374.23 108.003 366.87 109.593 364C111.183 361.13 114.433 362.21 114.433 364.54C114.433 366.87 114.613 372.44 114.253 373.69C113.893 374.94 111.923 375.31 110.663 374.23Z" fill="#C6FF00" stroke="#263238" stroke-linecap="round" stroke-linejoin="round"/>
<path d="M106.717 374.05C102.227 357.05 105.997 348.58 105.997 348.58C105.997 348.58 111.377 357.91 108.507 374.05" stroke="#263238" stroke-linecap="round" stroke-linejoin="round"/>
<path d="M99.3563 359.52C99.3563 359.52 95.2263 359.7 102.046 373.87" stroke="#263238" stroke-linecap="round" stroke-linejoin="round"/>
<path d="M241.357 309.73C241.357 309.73 176.927 307.54 170.358 322.18C163.787 336.82 170.358 380.75 170.358 380.75H270.658C270.658 380.75 284.997 326.33 276.997 319C268.997 311.67 241.357 309.73 241.357 309.73Z" fill="#263238" stroke="#263238" stroke-miterlimit="10"/>
<path d="M249.198 204.24C249.198 204.24 245.698 202.62 243.658 204.68C241.618 206.74 239.928 207.81 238.348 207.9C236.768 207.99 232.958 206.85 231.868 209.76C230.778 212.67 228.718 212.45 227.368 212.82C226.018 213.19 221.698 214.5 221.518 216.24C221.338 217.98 221.628 220.24 220.018 220.61C218.408 220.98 214.498 220.8 213.958 223.51C213.735 224.673 213.237 225.766 212.504 226.697C211.772 227.628 210.827 228.37 209.748 228.86C208.118 229.45 204.748 228.86 204.468 231.86C204.188 234.86 204.118 237.86 204.118 237.86L202.258 240.68C202.258 240.68 199.198 242.38 199.938 245.47C200.678 248.56 203.608 250.62 200.188 253.29C196.768 255.96 194.548 257.29 196.128 259.66C197.708 262.03 200.338 262.1 199.798 264.81C199.258 267.52 195.508 270.91 199.558 272.32C203.608 273.73 204.718 273.1 204.208 275.56C203.698 278.02 206.578 280.56 207.878 280.71C209.178 280.86 208.598 281.29 209.598 284.4C209.933 285.461 210.567 286.402 211.424 287.112C212.28 287.822 213.324 288.269 214.428 288.4C215.428 288.51 216.808 288.14 218.428 290.07C220.048 292 235.988 305.43 253.428 306.95C264.174 308.063 275.023 306.307 284.868 301.86C288.418 300.46 292.088 297.86 292.058 295.56C292.028 293.26 296.748 293.27 298.508 291.44C300.268 289.61 300.598 288.89 300.598 286.38C300.598 283.87 300.838 281.38 301.798 279.71C302.758 278.04 303.888 277.16 303.628 274.62C303.368 272.08 305.268 268.76 306.458 267.37C307.648 265.98 308.888 264.1 306.648 260.37C304.408 256.64 303.448 255.77 304.278 252.84C305.108 249.91 306.438 247.03 304.588 244.58C303.069 242.583 302.387 240.072 302.688 237.58C302.888 235.58 304.338 234.23 301.378 232.42C298.418 230.61 298.438 227.85 298.038 226.55C297.638 225.25 298.348 223.55 294.868 221.7C292.443 220.438 290.598 218.289 289.718 215.7C289.098 214.13 287.298 211.18 284.238 210.37C281.178 209.56 279.598 209.64 277.518 206.92C275.438 204.2 273.518 201.99 270.708 201.7C267.898 201.41 268.088 201.7 263.868 202.01C261.488 202.298 259.073 201.953 256.868 201.01C255.858 200.64 252.738 197.81 249.198 204.24Z" fill="#263238" stroke="#263238" stroke-linecap="round" stroke-linejoin="round"/>
<path d="M203.695 254.14C205.815 252.63 202.785 246.87 204.605 243.24C206.425 239.61 206.725 239.91 208.235 236.24C209.745 232.57 209.145 231.69 212.175 231.09C215.205 230.49 217.325 227.76 220.655 223.82C223.985 219.88 226.405 222.61 229.135 218.37C231.865 214.13 230.345 213.22 233.975 212.62C237.605 212.02 242.155 211.1 244.575 209.28C246.679 207.719 249.226 206.871 251.845 206.86C253.081 206.87 254.309 206.667 255.475 206.26C257.135 205.304 259.01 204.781 260.925 204.74C263.925 204.74 263.925 205.95 269.105 204.74M255.475 210.19C255.475 210.19 247.305 214.43 246.395 217.19C245.485 219.95 240.945 217.19 237.615 220.82C234.285 224.45 235.495 228.39 231.855 229.91C228.215 231.43 220.655 231.42 220.355 236.27C220.055 241.12 219.745 244.14 217.355 246.56C214.965 248.98 211.905 249.56 214.025 252.92C216.145 256.28 217.355 258.07 214.325 262.01C211.295 265.95 206.145 267.15 210.695 271.39C215.245 275.63 218.265 275.94 216.445 278.96C214.625 281.98 219.165 283.51 220.385 284.11" stroke="white" stroke-miterlimit="10"/>
<path d="M224.898 254.45C224.898 254.45 231.558 254.45 233.678 252.63C235.798 250.81 237.918 248.09 240.678 249.63C243.438 251.17 246.128 250.54 247.678 246.9C249.228 243.26 245.258 241.76 250.678 241.76C256.098 241.76 256.428 240.55 258.848 236.31C261.268 232.07 258.248 232.07 265.518 231.76C272.788 231.45 273.388 226.62 276.118 226.92C278.848 227.22 280.048 227.83 277.328 233.58C274.608 239.33 272.178 239.94 275.808 242.97C279.438 246 283.078 245.09 280.958 252.05C278.838 259.01 280.658 259.62 281.568 262.35C282.478 265.08 283.688 265.98 279.748 269.62C275.808 273.26 274.598 272.95 275.508 277.19C276.418 281.43 277.328 283.19 273.998 284.76C270.668 286.33 267.938 288.39 269.448 289.91C270.958 291.43 271.568 291.72 270.668 292.91" stroke="white" stroke-miterlimit="10"/>
<path d="M236.438 283.25C236.438 283.25 218.438 285.75 204.938 287.75C191.438 289.75 181.938 292 181.688 296.5C181.438 301 161.938 348.5 159.688 350C158.214 350.974 156.978 352.265 156.07 353.779C155.161 355.293 154.603 356.992 154.438 358.75C154.007 361.848 153.166 364.874 151.938 367.75C151.938 367.75 160.688 366.75 164.438 369.75C168.188 372.75 170.438 374.5 170.438 374.5C170.438 374.5 180.938 367.75 182.438 364.25C183.938 360.75 179.188 353.25 180.688 350.75C182.188 348.25 188.188 340 188.188 340C188.188 340 196.188 365 197.188 370.25C197.731 373.762 197.474 377.351 196.438 380.75H266.688V360C266.688 356.25 269.438 344.5 269.438 344.5C269.438 344.5 276.188 364 277.938 369.25C279.139 373.028 280.141 376.866 280.938 380.75H304.938C304.938 380.75 296.688 356 293.688 348.25C290.688 340.5 287.188 309.5 285.688 305.75C284.188 302 262.938 290.25 252.438 287.75C247.03 286.526 241.69 285.024 236.438 283.25Z" fill="#C6FF00"/>
<mask id="mask0_306_2230" style="mask-type:luminance" maskUnits="userSpaceOnUse" x="151" y="283" width="154" height="98">
<path d="M236.438 283.25C236.438 283.25 218.438 285.75 204.938 287.75C191.438 289.75 181.938 292 181.688 296.5C181.438 301 161.938 348.5 159.688 350C158.214 350.974 156.978 352.265 156.07 353.779C155.161 355.293 154.603 356.992 154.438 358.75C154.007 361.848 153.166 364.874 151.938 367.75C151.938 367.75 160.688 366.75 164.438 369.75C168.188 372.75 170.438 374.5 170.438 374.5C170.438 374.5 180.938 367.75 182.438 364.25C183.938 360.75 179.188 353.25 180.688 350.75C182.188 348.25 188.188 340 188.188 340C188.188 340 196.188 365 197.188 370.25C197.731 373.762 197.474 377.351 196.438 380.75H266.688V360C266.688 356.25 269.438 344.5 269.438 344.5C269.438 344.5 276.188 364 277.938 369.25C279.139 373.028 280.141 376.866 280.938 380.75H304.938C304.938 380.75 296.688 356 293.688 348.25C290.688 340.5 287.188 309.5 285.688 305.75C284.188 302 262.938 290.25 252.438 287.75C247.03 286.526 241.69 285.024 236.438 283.25Z" fill="white"/>
</mask>
<g mask="url(#mask0_306_2230)">
<path opacity="0.3" d="M164.438 369.75C168.188 372.75 170.438 374.5 170.438 374.5C170.438 374.5 180.938 367.75 182.438 364.25C183.938 360.75 179.188 353.25 180.688 350.75C182.188 348.25 188.188 340 188.188 340L188.357 340.53L193.438 334.53C193.438 334.53 195.438 335.03 198.438 345.53C201.438 356.03 214.438 362.53 211.438 368.03C209.498 371.59 207.767 377.23 206.787 380.78H266.688V360C266.688 356.25 269.438 344.5 269.438 344.5C269.438 344.5 276.188 364 277.938 369.25C279.139 373.028 280.141 376.866 280.938 380.75H304.938C304.938 380.75 296.688 356 293.688 348.25C291.137 341.67 288.227 318.31 286.487 309.13C285.581 307.985 284.559 306.936 283.438 306C276.438 300.5 259.438 294.5 255.438 294C251.438 293.5 241.438 287 230.438 291.5C230.438 291.5 222.938 298 217.438 299.5C211.938 301 200.938 290 199.938 295.5C199.356 299.144 199.356 302.856 199.938 306.5C199.938 306.5 193.938 292.5 194.438 298C194.938 303.5 194.938 308.5 194.938 308.5C194.938 308.5 189.438 296.5 189.438 301.5C189.438 306.5 191.938 313 191.438 317C190.938 321 176.938 346 175.438 348.5C173.938 351 174.438 355.6 172.688 359.05C171.57 361.149 169.692 362.742 167.438 363.5C167.438 363.5 168.938 357 163.438 357.5C157.938 358 151.938 367.75 151.938 367.75C151.938 367.75 160.688 366.75 164.438 369.75Z" fill="black"/>
</g>
<path d="M236.438 283.25C236.438 283.25 218.438 285.75 204.938 287.75C191.438 289.75 181.938 292 181.688 296.5C181.438 301 161.938 348.5 159.688 350C158.214 350.974 156.978 352.265 156.07 353.779C155.161 355.293 154.603 356.992 154.438 358.75C154.007 361.848 153.166 364.874 151.938 367.75C151.938 367.75 160.688 366.75 164.438 369.75C168.188 372.75 170.438 374.5 170.438 374.5C170.438 374.5 180.938 367.75 182.438 364.25C183.938 360.75 179.188 353.25 180.688 350.75C182.188 348.25 188.188 340 188.188 340C188.188 340 196.188 365 197.188 370.25C197.731 373.762 197.474 377.351 196.438 380.75H266.688V360C266.688 356.25 269.438 344.5 269.438 344.5C269.438 344.5 276.188 364 277.938 369.25C279.139 373.028 280.141 376.866 280.938 380.75H304.938C304.938 380.75 296.688 356 293.688 348.25C290.688 340.5 287.188 309.5 285.688 305.75C284.188 302 262.938 290.25 252.438 287.75C247.03 286.526 241.69 285.024 236.438 283.25Z" stroke="#263238" stroke-linecap="round" stroke-linejoin="round"/>
<path d="M241.438 325.75C241.438 325.75 243.638 348.08 242.708 357.35C241.778 366.62 238.538 373.58 239.928 380.07" stroke="#263238" stroke-linecap="round" stroke-linejoin="round"/>
<path d="M271.438 329L275.438 320.5" stroke="#263238" stroke-linecap="round" stroke-linejoin="round"/>
<path d="M234.191 281.25C234.191 281.25 231.441 283 230.941 284.75C230.441 286.5 226.441 291.25 224.691 298.25C222.941 305.25 223.941 318 225.191 315C226.441 312 229.691 305.5 230.941 304C232.191 302.5 232.441 304.5 233.441 308.75C234.441 313 241.441 325.75 241.441 325.75C241.441 325.75 246.691 314 249.691 312.25C252.691 310.5 253.941 304.75 253.941 304.75C253.941 304.75 256.941 319.75 258.691 319.75C260.441 319.75 261.191 308.25 260.441 301.25C259.691 294.25 256.441 285.75 254.441 283C252.441 280.25 243.941 271 234.191 281.25Z" fill="white" stroke="#263238" stroke-linecap="round" stroke-linejoin="round"/>
<path d="M234.436 279.75C234.436 279.75 233.436 299.25 234.936 307.75C236.436 316.25 240.186 328.75 241.436 325.75C242.686 322.75 250.686 308 251.936 301.25C252.958 296.443 254.466 291.752 256.436 287.25C256.436 287.25 241.436 289 234.436 279.75Z" fill="white" stroke="#263238" stroke-linecap="round" stroke-linejoin="round"/>
<path d="M270.814 235.6C270.814 235.6 266.454 236.85 265.364 239.28C264.274 241.71 263.364 241.9 260.604 244.44C257.844 246.98 256.994 246.61 254.814 248.65C252.634 250.69 250.954 250.51 248.384 250.81C245.814 251.11 243.574 250.89 242.384 251.61C241.235 252.23 240.045 252.771 238.824 253.23C238.824 253.23 237.234 252.23 236.004 256.04C234.774 259.85 233.294 268.75 234.204 273.64C235.114 278.53 238.734 290.19 244.374 293.03C250.014 295.87 263.634 286.8 267.134 282.93C270.634 279.06 277.854 260.87 278.134 257.8C278.414 254.73 273.674 248.88 272.784 246.53C271.894 244.18 273.154 242.9 271.404 240.74C269.654 238.58 270.814 235.6 270.814 235.6Z" fill="white" stroke="#263238" stroke-linecap="round" stroke-linejoin="round"/>
<path d="M256.789 274.26C256.789 274.26 255.989 275.65 253.219 275.37C250.449 275.09 249.359 273 249.679 271.37" stroke="#263238" stroke-linecap="round" stroke-linejoin="round"/>
<path d="M246.055 276.29C248.654 278.538 251.959 279.805 255.395 279.87" stroke="#263238" stroke-linecap="round" stroke-linejoin="round"/>
<path d="M251.345 259.89L250.285 262.25C250.285 262.25 246.665 263.85 243.375 259.08" stroke="#263238" stroke-linecap="round" stroke-linejoin="round"/>
<path d="M267.997 266.35L267.117 268.56C267.117 268.56 262.577 269.56 261.117 265.82" stroke="#263238" stroke-linecap="round" stroke-linejoin="round"/>
<path d="M263 258.61C263 258.61 270.52 255.76 272.61 262.72" stroke="#263238" stroke-linecap="round" stroke-linejoin="round"/>
<path d="M254.734 255.64C254.734 255.64 252.084 249.45 244.734 252.15" stroke="#263238" stroke-linecap="round" stroke-linejoin="round"/>
<path d="M250.285 262.25C250.285 262.25 248.915 262.77 246.055 261.82C245.215 261.538 244.445 261.079 243.798 260.473C243.151 259.867 242.642 259.13 242.305 258.31C242.305 258.31 242.285 264.89 250.285 262.25Z" fill="#263238"/>
<path d="M267.996 269C267.996 269 266.626 269.52 263.766 268.57C262.925 268.288 262.156 267.829 261.509 267.223C260.862 266.617 260.352 265.88 260.016 265.06C260.016 265.06 259.996 271.63 267.996 269Z" fill="#263238"/>
<path d="M188.188 340C188.188 340 196.688 326.25 201.188 316.75L188.188 340Z" fill="white"/>
<path d="M188.188 340C188.188 340 196.688 326.25 201.188 316.75" stroke="#263238" stroke-linecap="round" stroke-linejoin="round"/>
<path d="M194.688 330C198.534 327.489 201.778 324.16 204.188 320.25" stroke="#263238" stroke-linecap="round" stroke-linejoin="round"/>
<path d="M141.438 389H193.107L221.268 408.17H161.938L141.438 389Z" fill="white" stroke="#263238" stroke-linecap="round" stroke-linejoin="round"/>
<path d="M207.938 404H166.438" stroke="#263238" stroke-linecap="round" stroke-linejoin="round"/>
<path d="M203.938 400H162.438" stroke="#263238" stroke-linecap="round" stroke-linejoin="round"/>
<path d="M199.938 396H158.438" stroke="#263238" stroke-linecap="round" stroke-linejoin="round"/>
<path d="M105.438 401H157.107L185.268 420.17H125.938L105.438 401Z" fill="white" stroke="#263238" stroke-linecap="round" stroke-linejoin="round"/>
<path d="M171.938 416H130.438" stroke="#263238" stroke-linecap="round" stroke-linejoin="round"/>
<path d="M167.938 412H126.438" stroke="#263238" stroke-linecap="round" stroke-linejoin="round"/>
<path d="M163.938 408H122.438" stroke="#263238" stroke-linecap="round" stroke-linejoin="round"/>
<path d="M178.107 379.33C178.107 379.33 173.437 372.33 170.607 368C167.777 363.67 161.607 360.67 156.107 362C150.607 363.33 147.938 368.33 147.938 373.67C147.938 379.01 148.438 383.33 154.268 386.5C160.098 389.67 173.107 391.33 173.107 391.33C173.107 391.33 182.938 395 178.107 379.33Z" fill="white" stroke="#263238" stroke-linecap="round" stroke-linejoin="round"/>
<path d="M173.244 377.76C173.244 377.76 166.854 379.76 166.414 382.16C165.974 384.56 165.314 389.88 165.754 392.3C166.194 394.72 171.924 394.51 175.894 394.51C179.864 394.51 181.844 390.51 180.964 389.22C180.084 387.93 176.554 387.22 175.234 384.15C174.383 382.083 173.717 379.945 173.244 377.76Z" fill="white" stroke="#263238" stroke-linecap="round" stroke-linejoin="round"/>
<path d="M178.577 379.85C177.637 377.74 176.447 375.76 175.917 374.61C174.487 371.53 171.367 371.4 171.197 375.3C171.097 377.51 175.197 390.42 178.757 387.45C180.687 385.85 179.857 382.72 178.577 379.85Z" fill="white" stroke="#263238" stroke-linecap="round" stroke-linejoin="round"/>
<path d="M166.641 383.05C166.641 383.05 166.861 385.69 172.151 388.78C177.441 391.87 178.981 390.78 180.751 390.78" fill="white"/>
<path d="M166.641 383.05C166.641 383.05 166.861 385.69 172.151 388.78C177.441 391.87 178.981 390.78 180.751 390.78" stroke="#263238" stroke-linecap="round" stroke-linejoin="round"/>
<path d="M165.758 388.34C165.758 388.34 166.408 392.68 178.528 393.56L165.758 388.34Z" fill="white"/>
<path d="M165.758 388.34C165.758 388.34 166.408 392.68 178.528 393.56" stroke="#263238" stroke-linecap="round" stroke-linejoin="round"/>
<path d="M182.195 391L171.755 361C171.69 360.814 171.663 360.616 171.675 360.419C171.686 360.222 171.737 360.03 171.823 359.852C171.91 359.675 172.03 359.516 172.178 359.385C172.326 359.254 172.498 359.154 172.685 359.09C172.871 359.025 173.068 358.998 173.265 359.01C173.462 359.022 173.655 359.072 173.833 359.159C174.01 359.245 174.169 359.366 174.299 359.513C174.43 359.661 174.531 359.833 174.595 360.02L184.995 390.05L182.195 391Z" fill="#263238"/>
<path d="M182.195 391.03L185.015 394.64L185.025 390.05L182.195 391.03Z" fill="white"/>
<path d="M184 393.33L185 394.64V393C184.655 393.07 184.319 393.181 184 393.33Z" fill="#263238"/>
<path d="M174.597 360C174.465 359.623 174.188 359.315 173.828 359.142C173.468 358.97 173.054 358.947 172.677 359.08C172.301 359.213 171.992 359.489 171.82 359.85C171.647 360.21 171.625 360.623 171.757 361L172.757 364L175.557 362.93L174.597 360Z" fill="white"/>
<path d="M178.438 371.83C178.438 371.83 181.438 370.67 182.938 371.83C184.438 372.99 185.268 376 185.268 379.5C185.268 383 186.938 387.5 183.938 387.33C180.938 387.16 178.438 371.83 178.438 371.83Z" fill="white" stroke="#263238" stroke-linecap="round" stroke-linejoin="round"/>
<path d="M244.536 398.67L221.766 384.33H308.766L341.196 398.67H244.536Z" fill="white" stroke="#263238" stroke-linecap="round" stroke-linejoin="round"/>
<path d="M341.199 398.67H244.539L255.669 329.67H352.339L341.199 398.67Z" fill="white" stroke="#263238" stroke-linecap="round" stroke-linejoin="round"/>
<path d="M346.659 364.86C330.289 368.58 316.169 364.86 288.149 369.41C260.699 373.83 249.599 386.34 245.149 394.85L244.539 398.67H341.199L346.659 364.86Z" fill="#263238" stroke="#263238" stroke-miterlimit="10"/>
<path d="M346.755 373.36C346.755 373.36 341.275 374.06 339.305 376.31C337.335 378.56 338.885 379.41 340.575 379.41C342.265 379.41 347.885 379.41 350.415 376.41C352.465 374.05 351.115 373.08 346.755 373.36Z" fill="white" stroke="#263238" stroke-linecap="round" stroke-linejoin="round"/>
<path d="M344.927 389.39C344.927 389.39 339.447 390.09 337.477 392.34C335.507 394.59 337.057 395.43 338.747 395.43C340.437 395.43 346.057 395.43 348.587 392.48C350.647 390.08 349.287 389.11 344.927 389.39Z" fill="white" stroke="#263238" stroke-linecap="round" stroke-linejoin="round"/>
<path d="M345.499 385.17C345.499 385.17 340.009 385.87 338.039 388.12C336.069 390.37 337.619 391.22 339.309 391.22C340.999 391.22 346.619 391.22 349.149 388.22C351.209 385.87 349.849 384.89 345.499 385.17Z" fill="white" stroke="#263238" stroke-linecap="round" stroke-linejoin="round"/>
<path d="M345.636 380.39C345.636 380.39 340.146 381.09 338.186 383.34C336.226 385.59 337.756 386.44 339.446 386.44C341.136 386.44 346.756 386.44 349.286 383.44C351.346 381.08 349.996 380.11 345.636 380.39Z" fill="white" stroke="#263238" stroke-linecap="round" stroke-linejoin="round"/>
</svg>
