<svg width="150" height="150" viewBox="0 0 150 150" fill="none" xmlns="http://www.w3.org/2000/svg">
<rect x="5" y="5" width="140" height="140" rx="70" stroke="#077F00" stroke-width="10"/>
<path d="M57.364 92V67.016L49.78 69.704L47.692 63.488L64.132 57.68H64.66V92H57.364ZM86.0181 92.72C83.7461 92.72 81.7221 92.264 79.9461 91.352C78.1701 90.44 76.6741 89.176 75.4581 87.56C74.2421 85.944 73.3141 84.08 72.6741 81.968C72.0501 79.856 71.7381 77.6 71.7381 75.2C71.7381 72.784 72.0501 70.52 72.6741 68.408C73.3141 66.296 74.2421 64.44 75.4581 62.84C76.6741 61.224 78.1701 59.96 79.9461 59.048C81.7221 58.136 83.7461 57.68 86.0181 57.68C88.2741 57.68 90.2901 58.136 92.0661 59.048C93.8421 59.96 95.3381 61.224 96.5541 62.84C97.7701 64.44 98.6901 66.296 99.3141 68.408C99.9541 70.52 100.274 72.784 100.274 75.2C100.274 77.6 99.9541 79.856 99.3141 81.968C98.6901 84.08 97.7701 85.944 96.5541 87.56C95.3381 89.176 93.8421 90.44 92.0661 91.352C90.2901 92.264 88.2741 92.72 86.0181 92.72ZM86.0181 85.88C87.0261 85.88 87.9381 85.648 88.7541 85.184C89.5861 84.72 90.2981 84.04 90.8901 83.144C91.4821 82.232 91.9381 81.112 92.2581 79.784C92.5781 78.456 92.7381 76.928 92.7381 75.2C92.7381 72.896 92.4581 70.952 91.8981 69.368C91.3381 67.768 90.5541 66.56 89.5461 65.744C88.5381 64.912 87.3621 64.496 86.0181 64.496C85.0101 64.496 84.0901 64.736 83.2581 65.216C82.4261 65.68 81.7141 66.368 81.1221 67.28C80.5301 68.176 80.0741 69.288 79.7541 70.616C79.4501 71.944 79.2981 73.472 79.2981 75.2C79.2981 77.504 79.5701 79.448 80.1141 81.032C80.6741 82.616 81.4581 83.824 82.4661 84.656C83.4741 85.472 84.6581 85.88 86.0181 85.88Z" fill="black"/>
</svg>
