<svg width="150" height="150" viewBox="0 0 150 150" fill="none" xmlns="http://www.w3.org/2000/svg">
<rect x="5" y="5" width="140" height="140" rx="70" stroke="#077F00" stroke-width="10"/>
<path d="M59.364 92V67.016L51.78 69.704L49.692 63.488L66.132 57.68H66.66V92H59.364ZM73.9301 92V86.768L81.0821 80.36C83.2901 78.376 85.0181 76.728 86.2661 75.416C87.5141 74.104 88.3941 72.952 88.9061 71.96C89.4181 70.968 89.6741 69.968 89.6741 68.96C89.6741 67.472 89.1781 66.328 88.1861 65.528C87.2101 64.728 85.8101 64.328 83.9861 64.328C82.5301 64.328 81.1301 64.616 79.7861 65.192C78.4421 65.768 77.2341 66.616 76.1621 67.736L73.4501 61.952C74.9701 60.592 76.7221 59.544 78.7061 58.808C80.6901 58.056 82.7141 57.68 84.7781 57.68C87.2581 57.68 89.4181 58.112 91.2581 58.976C93.0981 59.84 94.5141 61.048 95.5061 62.6C96.5141 64.136 97.0181 65.928 97.0181 67.976C97.0181 69.352 96.7461 70.696 96.2021 72.008C95.6581 73.32 94.6981 74.8 93.3221 76.448C91.9621 78.08 90.0421 80.064 87.5621 82.4L84.2741 85.472H97.9061V92H73.9301Z" fill="black"/>
</svg>
