<svg width="150" height="150" viewBox="0 0 150 150" fill="none" xmlns="http://www.w3.org/2000/svg">
<rect x="5" y="5" width="140" height="140" rx="70" stroke="#077F00" stroke-width="10"/>
<path d="M73.22 92.72C71.732 92.72 70.268 92.552 68.828 92.216C67.404 91.896 66.108 91.456 64.94 90.896C63.772 90.336 62.852 89.696 62.18 88.976L64.556 82.688C65.452 83.712 66.644 84.528 68.132 85.136C69.636 85.728 71.164 86.024 72.716 86.024C73.884 86.024 74.908 85.84 75.788 85.472C76.668 85.088 77.348 84.552 77.828 83.864C78.324 83.176 78.572 82.368 78.572 81.44C78.572 79.984 78.036 78.856 76.964 78.056C75.908 77.256 74.532 76.856 72.836 76.856C72.228 76.856 71.588 76.904 70.916 77C70.26 77.08 69.588 77.208 68.9 77.384L66.788 72.416L75.572 64.832H62.564V58.4H84.524V64.328L76.412 72.176C78.028 72.288 79.564 72.728 81.02 73.496C82.476 74.264 83.668 75.36 84.596 76.784C85.524 78.192 85.988 79.936 85.988 82.016C85.988 84.096 85.444 85.944 84.356 87.56C83.268 89.16 81.764 90.424 79.844 91.352C77.924 92.264 75.716 92.72 73.22 92.72Z" fill="black"/>
</svg>
