<svg width="150" height="150" viewBox="0 0 150 150" fill="none" xmlns="http://www.w3.org/2000/svg">
<rect x="5" y="5" width="140" height="140" rx="70" stroke="#077F00" stroke-width="10"/>
<path d="M74.568 92.72C71.928 92.72 69.664 92.28 67.776 91.4C65.904 90.504 64.472 89.296 63.48 87.776C62.488 86.256 61.992 84.544 61.992 82.64C61.992 81.296 62.224 80.088 62.688 79.016C63.168 77.944 63.848 77.008 64.728 76.208C65.624 75.408 66.696 74.76 67.944 74.264C66.76 73.736 65.672 72.864 64.68 71.648C63.688 70.432 63.192 68.872 63.192 66.968C63.192 65.176 63.688 63.584 64.68 62.192C65.672 60.784 67.04 59.68 68.784 58.88C70.528 58.08 72.512 57.68 74.736 57.68C77.008 57.68 79.016 58.088 80.76 58.904C82.52 59.704 83.896 60.808 84.888 62.216C85.88 63.608 86.376 65.192 86.376 66.968C86.376 68.248 86.144 69.368 85.68 70.328C85.232 71.288 84.64 72.096 83.904 72.752C83.184 73.408 82.432 73.912 81.648 74.264C83.376 75 84.784 76.088 85.872 77.528C86.96 78.952 87.504 80.656 87.504 82.64C87.504 84.544 86.952 86.256 85.848 87.776C84.744 89.296 83.216 90.504 81.264 91.4C79.328 92.28 77.096 92.72 74.568 92.72ZM74.736 86.528C75.664 86.528 76.536 86.352 77.352 86C78.168 85.632 78.832 85.104 79.344 84.416C79.872 83.712 80.136 82.848 80.136 81.824C80.136 80.8 79.888 79.944 79.392 79.256C78.912 78.568 78.264 78.048 77.448 77.696C76.632 77.328 75.728 77.144 74.736 77.144C73.248 77.144 71.976 77.552 70.92 78.368C69.88 79.168 69.36 80.32 69.36 81.824C69.36 82.848 69.608 83.712 70.104 84.416C70.6 85.104 71.256 85.632 72.072 86C72.904 86.352 73.792 86.528 74.736 86.528ZM74.784 71.192C75.696 71.192 76.512 71.024 77.232 70.688C77.952 70.352 78.512 69.88 78.912 69.272C79.312 68.664 79.512 67.968 79.512 67.184C79.512 66 79.072 65.016 78.192 64.232C77.312 63.448 76.176 63.056 74.784 63.056C73.872 63.056 73.056 63.24 72.336 63.608C71.632 63.96 71.08 64.448 70.68 65.072C70.28 65.696 70.08 66.4 70.08 67.184C70.08 68.368 70.52 69.336 71.4 70.088C72.296 70.824 73.424 71.192 74.784 71.192Z" fill="black"/>
</svg>
