<svg width="150" height="150" viewBox="0 0 150 150" fill="none" xmlns="http://www.w3.org/2000/svg">
<rect x="5" y="5" width="140" height="140" rx="70" stroke="#077F00" stroke-width="10"/>
<path d="M66.292 92.72L63.604 86.864C65.588 86.592 67.372 86.176 68.956 85.616C70.54 85.056 71.94 84.368 73.156 83.552C74.388 82.736 75.428 81.832 76.276 80.84C77.14 79.832 77.836 78.76 78.364 77.624C77.66 78.232 76.828 78.72 75.868 79.088C74.924 79.44 73.932 79.616 72.892 79.616C70.764 79.616 68.86 79.152 67.18 78.224C65.5 77.296 64.172 76.024 63.196 74.408C62.236 72.776 61.756 70.912 61.756 68.816C61.756 66.72 62.292 64.832 63.364 63.152C64.436 61.472 65.932 60.144 67.852 59.168C69.772 58.176 71.98 57.68 74.476 57.68C77.02 57.68 79.276 58.224 81.244 59.312C83.228 60.4 84.788 61.952 85.924 63.968C87.06 65.968 87.628 68.36 87.628 71.144C87.628 74.024 87.084 76.672 85.996 79.088C84.908 81.504 83.388 83.648 81.436 85.52C79.5 87.392 77.236 88.944 74.644 90.176C72.068 91.392 69.284 92.24 66.292 92.72ZM74.476 73.616C75.484 73.616 76.388 73.408 77.188 72.992C77.988 72.576 78.62 72.008 79.084 71.288C79.548 70.552 79.78 69.728 79.78 68.816C79.78 67.888 79.548 67.072 79.084 66.368C78.636 65.648 78.012 65.08 77.212 64.664C76.412 64.248 75.5 64.04 74.476 64.04C73.452 64.04 72.54 64.248 71.74 64.664C70.94 65.08 70.308 65.648 69.844 66.368C69.396 67.072 69.172 67.888 69.172 68.816C69.172 69.728 69.404 70.552 69.868 71.288C70.332 72.008 70.964 72.576 71.764 72.992C72.564 73.408 73.468 73.616 74.476 73.616Z" fill="black"/>
</svg>
