<svg width="150" height="150" viewBox="0 0 150 150" fill="none" xmlns="http://www.w3.org/2000/svg">
<rect x="5" y="5" width="140" height="140" rx="70" stroke="#077F00" stroke-width="10"/>
<path d="M74.816 92.72C72.224 92.72 69.912 92.168 67.88 91.064C65.864 89.944 64.272 88.36 63.104 86.312C61.952 84.248 61.376 81.8 61.376 78.968C61.376 76.136 61.928 73.528 63.032 71.144C64.136 68.744 65.672 66.624 67.64 64.784C69.608 62.928 71.896 61.4 74.504 60.2C77.128 58.984 79.944 58.144 82.952 57.68L85.64 63.536C83.624 63.776 81.808 64.16 80.192 64.688C78.592 65.216 77.168 65.864 75.92 66.632C74.688 67.4 73.632 68.256 72.752 69.2C71.888 70.128 71.184 71.128 70.64 72.2C71.392 71.576 72.264 71.088 73.256 70.736C74.248 70.368 75.296 70.184 76.4 70.184C78.592 70.184 80.544 70.648 82.256 71.576C83.984 72.504 85.344 73.784 86.336 75.416C87.328 77.048 87.824 78.912 87.824 81.008C87.824 82.64 87.504 84.168 86.864 85.592C86.24 87.016 85.352 88.264 84.2 89.336C83.048 90.392 81.68 91.224 80.096 91.832C78.512 92.424 76.752 92.72 74.816 92.72ZM74.816 86.336C75.904 86.336 76.864 86.12 77.696 85.688C78.544 85.256 79.208 84.664 79.688 83.912C80.168 83.144 80.408 82.264 80.408 81.272C80.408 80.312 80.16 79.448 79.664 78.68C79.184 77.912 78.52 77.312 77.672 76.88C76.84 76.432 75.888 76.208 74.816 76.208C73.76 76.208 72.808 76.432 71.96 76.88C71.128 77.312 70.464 77.912 69.968 78.68C69.472 79.448 69.224 80.312 69.224 81.272C69.224 82.264 69.464 83.144 69.944 83.912C70.44 84.664 71.104 85.256 71.936 85.688C72.784 86.12 73.744 86.336 74.816 86.336Z" fill="black"/>
</svg>
