<svg width="150" height="150" viewBox="0 0 150 150" fill="none" xmlns="http://www.w3.org/2000/svg">
<rect x="5" y="5" width="140" height="140" rx="70" stroke="#077F00" stroke-width="10"/>
<path d="M73.244 92.72C71.052 92.72 68.98 92.408 67.028 91.784C65.076 91.16 63.46 90.296 62.18 89.192L64.46 82.976C65.516 84.032 66.78 84.808 68.252 85.304C69.724 85.784 71.244 86.024 72.812 86.024C74.044 86.024 75.108 85.848 76.004 85.496C76.916 85.144 77.612 84.608 78.092 83.888C78.588 83.168 78.836 82.264 78.836 81.176C78.836 80.264 78.58 79.472 78.068 78.8C77.572 78.128 76.868 77.616 75.956 77.264C75.06 76.896 73.996 76.712 72.764 76.712C71.964 76.712 71.124 76.808 70.244 77C69.364 77.192 68.476 77.488 67.58 77.888L64.316 74.288L66.092 58.424L85.436 58.472V65.264H71.564L70.796 71.144C71.388 71 71.972 70.888 72.548 70.808C73.14 70.728 73.748 70.688 74.372 70.688C76.692 70.688 78.74 71.12 80.516 71.984C82.308 72.848 83.708 74.096 84.716 75.728C85.724 77.344 86.228 79.28 86.228 81.536C86.228 83.808 85.684 85.784 84.596 87.464C83.524 89.128 82.012 90.424 80.06 91.352C78.124 92.264 75.852 92.72 73.244 92.72Z" fill="black"/>
</svg>
