<svg width="500" height="500" viewBox="0 0 500 500" fill="none" xmlns="http://www.w3.org/2000/svg">
<path d="M146.862 98.43C146.862 98.43 93.3623 136.66 87.9323 206.12C82.5023 275.58 122.882 339.86 154.222 392.8C185.562 445.74 241.292 465.28 289.142 441.9C336.992 418.52 323.272 371.25 358.742 316.97C394.212 262.69 411.882 253.61 412.042 188.73C412.202 123.85 345.602 66.93 268.002 65.58C190.402 64.23 146.862 98.43 146.862 98.43Z" fill="#C6FF00"/>
<path opacity="0.7" d="M146.862 98.43C146.862 98.43 93.3623 136.66 87.9323 206.12C82.5023 275.58 122.882 339.86 154.222 392.8C185.562 445.74 241.292 465.28 289.142 441.9C336.992 418.52 323.272 371.25 358.742 316.97C394.212 262.69 411.882 253.61 412.042 188.73C412.202 123.85 345.602 66.93 268.002 65.58C190.402 64.23 146.862 98.43 146.862 98.43Z" fill="white"/>
<path d="M217.047 100.79H233.657" stroke="#263238" stroke-width="2" stroke-miterlimit="10"/>
<path d="M224.836 97.6699L222.236 105.46C222.236 105.46 144.365 113.77 137.615 102.34C130.865 90.9099 142.295 86.7699 169.285 90.9199C196.275 95.0699 224.836 97.6699 224.836 97.6699Z" fill="white" stroke="#263238" stroke-miterlimit="10"/>
<path d="M284.196 100.79H267.586" stroke="#263238" stroke-width="2" stroke-miterlimit="10"/>
<path d="M276.406 97.6699L279.006 105.46C279.006 105.46 356.876 113.77 363.616 102.34C370.356 90.9099 358.996 86.7699 331.996 90.9199C304.996 95.0699 276.406 97.6699 276.406 97.6699Z" fill="white" stroke="#263238" stroke-miterlimit="10"/>
<path d="M240.992 116.05C240.992 116.05 238.062 132.82 243.332 134.4C248.602 135.98 261.172 135.63 264.672 130.95C268.172 126.27 265.822 121.59 261.942 114.55C258.062 107.51 247.872 107.09 240.992 116.05Z" fill="white" stroke="#263238" stroke-miterlimit="10"/>
<path d="M248.234 50.96V103.53H252.964V53.33" fill="white"/>
<path d="M248.234 50.96V103.53H252.964V53.33" stroke="#263238" stroke-miterlimit="10"/>
<path d="M236.442 106.75C245.91 109.75 256.074 109.75 265.542 106.75H272.992V100C272.992 95 263.142 91 250.992 91C238.842 91 228.992 95 228.992 100V106.75H236.442Z" fill="white" stroke="#263238" stroke-miterlimit="10"/>
<path d="M250.992 115.75C263.142 115.75 272.992 111.721 272.992 106.75C272.992 101.779 263.142 97.75 250.992 97.75C238.842 97.75 228.992 101.779 228.992 106.75C228.992 111.721 238.842 115.75 250.992 115.75Z" fill="white" stroke="#263238" stroke-miterlimit="10"/>
<path d="M250.992 115.75C263.142 115.75 272.992 111.721 272.992 106.75C272.992 101.779 263.142 97.75 250.992 97.75C238.842 97.75 228.992 101.779 228.992 106.75C228.992 111.721 238.842 115.75 250.992 115.75Z" fill="white" stroke="#263238" stroke-miterlimit="10"/>
<path d="M329.179 285.86H314.969V325.6H329.179V285.86Z" fill="#A8A8A8"/>
<path d="M325.631 289.12H318.531V312.74H325.631V289.12Z" fill="#8C8C8C"/>
<path d="M322.079 322.14C323.244 322.14 324.189 321.195 324.189 320.03C324.189 318.865 323.244 317.92 322.079 317.92C320.913 317.92 319.969 318.865 319.969 320.03C319.969 321.195 320.913 322.14 322.079 322.14Z" fill="#8C8C8C"/>
<path d="M349.468 285.86H335.258V325.6H349.468V285.86Z" fill="#8C8C8C"/>
<path d="M345.913 289.12H338.812V312.74H345.913V289.12Z" fill="#A8A8A8"/>
<path d="M342.368 322.14C343.533 322.14 344.478 321.195 344.478 320.03C344.478 318.865 343.533 317.92 342.368 317.92C341.202 317.92 340.258 318.865 340.258 320.03C340.258 321.195 341.202 322.14 342.368 322.14Z" fill="#A8A8A8"/>
<path d="M369.757 285.86H355.547V325.6H369.757V285.86Z" fill="#8C8C8C"/>
<path d="M366.202 289.12H359.102V312.74H366.202V289.12Z" fill="#A8A8A8"/>
<path d="M364.771 320C364.771 319.58 364.647 319.17 364.413 318.821C364.18 318.472 363.848 318.2 363.46 318.04C363.072 317.88 362.645 317.839 362.234 317.921C361.822 318.004 361.445 318.207 361.149 318.504C360.853 318.802 360.651 319.181 360.571 319.592C360.49 320.004 360.534 320.431 360.696 320.818C360.858 321.205 361.131 321.536 361.481 321.767C361.831 321.999 362.242 322.122 362.661 322.12C363.222 322.117 363.758 321.893 364.154 321.495C364.549 321.098 364.771 320.56 364.771 320Z" fill="#A8A8A8"/>
<path d="M390.046 285.86H375.836V325.6H390.046V285.86Z" fill="#A8A8A8"/>
<path d="M386.491 289.12H379.391V312.74H386.491V289.12Z" fill="#8C8C8C"/>
<path d="M385.06 320C385.06 319.581 384.936 319.171 384.703 318.822C384.47 318.473 384.139 318.202 383.752 318.041C383.364 317.881 382.938 317.839 382.527 317.921C382.115 318.002 381.738 318.204 381.441 318.501C381.145 318.797 380.943 319.175 380.861 319.586C380.779 319.998 380.821 320.424 380.982 320.811C381.142 321.199 381.414 321.53 381.762 321.763C382.111 321.996 382.521 322.12 382.94 322.12C383.503 322.12 384.042 321.897 384.439 321.499C384.837 321.101 385.06 320.562 385.06 320Z" fill="#8C8C8C"/>
<path d="M413.148 184.59V181.71H407.768V171H403.548V181.71H309.088V171H304.868V181.71H297.758V184.59H304.868V229.51H297.758V232.39H304.868V277.32H297.758V280.2H304.868V325.12H297.758V328H304.868V377.18H309.088V328H403.548V377.18H407.768V328H413.148V325.12H407.768V280.2H413.148V277.32H407.768V232.39H413.148V229.51H407.768V184.59H413.148ZM403.548 325.12H309.088V280.2H403.548V325.12ZM403.548 277.32H309.088V232.39H403.548V277.32ZM403.548 229.51H309.088V184.59H403.548V229.51Z" fill="#A8A8A8"/>
<path d="M377.601 189.77H363.391V229.51H377.601V189.77Z" fill="#8C8C8C"/>
<path d="M374.038 193.03H366.938V216.65H374.038V193.03Z" fill="#8C8C8C"/>
<path d="M372.607 223.94C372.607 223.52 372.483 223.11 372.249 222.761C372.016 222.412 371.684 222.14 371.296 221.98C370.908 221.82 370.481 221.779 370.07 221.861C369.658 221.944 369.281 222.147 368.985 222.444C368.689 222.742 368.487 223.12 368.407 223.532C368.326 223.944 368.369 224.371 368.531 224.758C368.693 225.145 368.967 225.476 369.317 225.707C369.667 225.939 370.077 226.062 370.497 226.06C371.058 226.057 371.594 225.833 371.99 225.435C372.385 225.038 372.607 224.5 372.607 223.94Z" fill="#8C8C8C"/>
<path d="M360.929 189.77H346.719V229.51H360.929V189.77Z" fill="#8C8C8C"/>
<path d="M357.381 193.03H350.281V216.65H357.381V193.03Z" fill="#8C8C8C"/>
<path d="M353.829 226.05C354.994 226.05 355.939 225.105 355.939 223.94C355.939 222.775 354.994 221.83 353.829 221.83C352.663 221.83 351.719 222.775 351.719 223.94C351.719 225.105 352.663 226.05 353.829 226.05Z" fill="#8C8C8C"/>
<path d="M344.272 189.77H330.062V229.51H344.272V189.77Z" fill="#A8A8A8"/>
<path d="M340.709 193.03H333.609V216.65H340.709V193.03Z" fill="#8C8C8C"/>
<path d="M337.157 226.05C338.322 226.05 339.267 225.105 339.267 223.94C339.267 222.775 338.322 221.83 337.157 221.83C335.992 221.83 335.047 222.775 335.047 223.94C335.047 225.105 335.992 226.05 337.157 226.05Z" fill="#8C8C8C"/>
<path d="M397.179 189.77H382.969V229.51H397.179V189.77Z" fill="#8C8C8C"/>
<path d="M393.631 193.03H386.531V216.65H393.631V193.03Z" fill="#8C8C8C"/>
<path d="M390.079 226.05C391.244 226.05 392.189 225.105 392.189 223.94C392.189 222.775 391.244 221.83 390.079 221.83C388.913 221.83 387.969 222.775 387.969 223.94C387.969 225.105 388.913 226.05 390.079 226.05Z" fill="#8C8C8C"/>
<path d="M326.522 189.77H312.312V229.51H326.522V189.77Z" fill="#A8A8A8"/>
<path d="M322.959 193.03H315.859V216.65H322.959V193.03Z" fill="#8C8C8C"/>
<path d="M319.407 226.05C320.572 226.05 321.517 225.105 321.517 223.94C321.517 222.775 320.572 221.83 319.407 221.83C318.242 221.83 317.297 222.775 317.297 223.94C317.297 225.105 318.242 226.05 319.407 226.05Z" fill="#8C8C8C"/>
<path d="M383.788 169.37H341.078C342.507 171.037 343.266 173.175 343.208 175.37C343.262 177.564 342.504 179.701 341.078 181.37H383.788C385.379 181.37 386.906 180.738 388.031 179.613C389.156 178.488 389.788 176.961 389.788 175.37C389.788 173.779 389.156 172.253 388.031 171.127C386.906 170.002 385.379 169.37 383.788 169.37Z" fill="#D4D4D4" stroke="white" stroke-miterlimit="10"/>
<path d="M385.469 169.61V181C386.699 180.632 387.779 179.878 388.55 178.85C389.32 177.822 389.741 176.574 389.749 175.29C389.734 174.01 389.311 172.769 388.541 171.747C387.771 170.726 386.695 169.977 385.469 169.61Z" fill="#9C9C9C" stroke="white" stroke-miterlimit="10"/>
<path d="M383.788 156.7H341.078C342.504 158.369 343.262 160.505 343.208 162.7C343.262 164.894 342.504 167.031 341.078 168.7H383.788C385.379 168.7 386.906 168.068 388.031 166.942C389.156 165.817 389.788 164.291 389.788 162.7C389.788 161.108 389.156 159.582 388.031 158.457C386.906 157.332 385.379 156.7 383.788 156.7Z" fill="#D4D4D4" stroke="white" stroke-miterlimit="10"/>
<path d="M385.469 156.94V168.38C386.701 168.011 387.782 167.256 388.553 166.226C389.323 165.196 389.743 163.946 389.749 162.66C389.743 161.374 389.323 160.123 388.553 159.094C387.782 158.064 386.701 157.309 385.469 156.94Z" fill="#9C9C9C" stroke="white" stroke-miterlimit="10"/>
<path d="M340.522 140.44H326.312V180.18H340.522V140.44Z" fill="#A8A8A8"/>
<path d="M336.959 143.7H329.859V167.32H336.959V143.7Z" fill="#A8A8A8"/>
<path d="M335.517 174.61C335.517 174.193 335.393 173.785 335.161 173.438C334.929 173.091 334.6 172.82 334.214 172.661C333.829 172.501 333.405 172.459 332.995 172.541C332.586 172.622 332.21 172.823 331.915 173.118C331.62 173.413 331.419 173.789 331.337 174.198C331.256 174.608 331.298 175.032 331.457 175.417C331.617 175.803 331.888 176.133 332.235 176.364C332.582 176.596 332.99 176.72 333.407 176.72C333.684 176.721 333.959 176.668 334.216 176.562C334.472 176.457 334.706 176.301 334.902 176.105C335.098 175.909 335.253 175.676 335.359 175.419C335.465 175.162 335.518 174.887 335.517 174.61Z" fill="#A8A8A8"/>
<path d="M397.179 237.19H382.969V276.93H397.179V237.19Z" fill="#A8A8A8"/>
<path d="M393.631 240.46H386.531V264.08H393.631V240.46Z" fill="#8C8C8C"/>
<path d="M392.189 271.37C392.189 270.952 392.065 270.545 391.833 270.198C391.601 269.851 391.272 269.58 390.886 269.42C390.501 269.261 390.076 269.219 389.667 269.3C389.258 269.382 388.882 269.583 388.587 269.878C388.292 270.173 388.091 270.549 388.009 270.958C387.928 271.367 387.97 271.792 388.129 272.177C388.289 272.563 388.56 272.892 388.907 273.124C389.253 273.356 389.661 273.48 390.079 273.48C390.638 273.477 391.173 273.254 391.568 272.859C391.963 272.464 392.186 271.929 392.189 271.37Z" fill="#8C8C8C"/>
<path d="M380.71 237.19H366.5V276.93H380.71V237.19Z" fill="#A8A8A8"/>
<path d="M377.147 240.46H370.047V264.08H377.147V240.46Z" fill="#8C8C8C"/>
<path d="M375.712 271.37C375.712 270.952 375.588 270.545 375.357 270.198C375.125 269.851 374.795 269.58 374.41 269.42C374.024 269.261 373.6 269.219 373.191 269.3C372.781 269.382 372.405 269.583 372.11 269.878C371.815 270.173 371.614 270.549 371.533 270.958C371.451 271.367 371.493 271.792 371.653 272.177C371.812 272.563 372.083 272.892 372.43 273.124C372.777 273.356 373.185 273.48 373.602 273.48C373.879 273.48 374.154 273.425 374.41 273.319C374.666 273.213 374.898 273.058 375.094 272.862C375.29 272.666 375.446 272.433 375.552 272.177C375.658 271.921 375.712 271.647 375.712 271.37Z" fill="#8C8C8C"/>
<path d="M346.71 237.19H332.5V276.93H346.71V237.19Z" fill="#A8A8A8"/>
<path d="M343.147 240.46H336.047V264.08H343.147V240.46Z" fill="#8C8C8C"/>
<path d="M341.712 271.37C341.712 270.952 341.588 270.545 341.357 270.198C341.125 269.851 340.795 269.58 340.41 269.42C340.024 269.261 339.6 269.219 339.191 269.3C338.781 269.382 338.405 269.583 338.11 269.878C337.815 270.173 337.614 270.549 337.533 270.958C337.451 271.367 337.493 271.792 337.653 272.177C337.812 272.563 338.083 272.892 338.43 273.124C338.777 273.356 339.185 273.48 339.602 273.48C339.879 273.48 340.154 273.425 340.41 273.319C340.666 273.213 340.898 273.058 341.094 272.862C341.29 272.666 341.446 272.433 341.552 272.177C341.658 271.921 341.712 271.647 341.712 271.37Z" fill="#8C8C8C"/>
<path d="M364.226 237.19H350.016V276.93H364.226V237.19Z" fill="#A8A8A8"/>
<path d="M360.67 240.46H353.57V264.08H360.67V240.46Z" fill="#8C8C8C"/>
<path d="M359.228 271.37C359.228 270.952 359.104 270.545 358.872 270.198C358.64 269.851 358.311 269.58 357.925 269.42C357.54 269.261 357.115 269.219 356.706 269.3C356.297 269.382 355.921 269.583 355.626 269.878C355.331 270.173 355.13 270.549 355.048 270.958C354.967 271.367 355.009 271.792 355.168 272.177C355.328 272.563 355.599 272.892 355.946 273.124C356.293 273.356 356.7 273.48 357.118 273.48C357.395 273.48 357.669 273.425 357.925 273.319C358.181 273.213 358.414 273.058 358.61 272.862C358.806 272.666 358.961 272.433 359.067 272.177C359.173 271.921 359.228 271.647 359.228 271.37Z" fill="#8C8C8C"/>
<path d="M214.858 285.86H200.648V325.6H214.858V285.86Z" fill="#A8A8A8"/>
<path d="M211.295 289.12H204.195V312.74H211.295V289.12Z" fill="#A8A8A8"/>
<path d="M207.751 322.14C208.916 322.14 209.861 321.195 209.861 320.03C209.861 318.865 208.916 317.92 207.751 317.92C206.585 317.92 205.641 318.865 205.641 320.03C205.641 321.195 206.585 322.14 207.751 322.14Z" fill="#A8A8A8"/>
<path d="M235.14 285.86H220.93V325.6H235.14V285.86Z" fill="#A8A8A8"/>
<path d="M231.592 289.12H224.492V312.74H231.592V289.12Z" fill="#A8A8A8"/>
<path d="M228.04 322.14C229.205 322.14 230.15 321.195 230.15 320.03C230.15 318.865 229.205 317.92 228.04 317.92C226.874 317.92 225.93 318.865 225.93 320.03C225.93 321.195 226.874 322.14 228.04 322.14Z" fill="#A8A8A8"/>
<path d="M255.429 285.86H241.219V325.6H255.429V285.86Z" fill="#A8A8A8"/>
<path d="M251.881 289.12H244.781V312.74H251.881V289.12Z" fill="#A8A8A8"/>
<path d="M248.329 322.14C249.494 322.14 250.439 321.195 250.439 320.03C250.439 318.865 249.494 317.92 248.329 317.92C247.163 317.92 246.219 318.865 246.219 320.03C246.219 321.195 247.163 322.14 248.329 322.14Z" fill="#A8A8A8"/>
<path d="M275.718 285.86H261.508V325.6H275.718V285.86Z" fill="#A8A8A8"/>
<path d="M272.163 289.12H265.062V312.74H272.163V289.12Z" fill="#A8A8A8"/>
<path d="M270.732 320C270.732 319.58 270.608 319.17 270.374 318.821C270.141 318.472 269.809 318.2 269.421 318.04C269.033 317.88 268.606 317.839 268.195 317.921C267.783 318.004 267.406 318.207 267.11 318.504C266.814 318.802 266.612 319.181 266.532 319.592C266.451 320.004 266.494 320.431 266.656 320.818C266.818 321.205 267.092 321.536 267.442 321.767C267.792 321.999 268.202 322.122 268.622 322.12C269.183 322.117 269.719 321.893 270.115 321.495C270.51 321.098 270.732 320.56 270.732 320Z" fill="#A8A8A8"/>
<path d="M194.759 171H190.539V377.18H194.759V171Z" fill="#A8A8A8"/>
<path d="M293.439 171H289.219V377.18H293.439V171Z" fill="#A8A8A8"/>
<path d="M298.82 181.71H183.43V184.59H298.82V181.71Z" fill="#A8A8A8"/>
<path d="M298.82 229.51H183.43V232.39H298.82V229.51Z" fill="#A8A8A8"/>
<path d="M298.82 277.32H183.43V280.2H298.82V277.32Z" fill="#A8A8A8"/>
<path d="M298.82 325.12H183.43V328H298.82V325.12Z" fill="#A8A8A8"/>
<path d="M263.272 189.77H249.062V229.51H263.272V189.77Z" fill="#A8A8A8"/>
<path d="M259.709 193.03H252.609V216.65H259.709V193.03Z" fill="#A8A8A8"/>
<path d="M258.279 223.94C258.279 223.52 258.154 223.11 257.921 222.761C257.688 222.412 257.356 222.14 256.968 221.98C256.58 221.82 256.153 221.779 255.742 221.861C255.33 221.944 254.953 222.147 254.656 222.444C254.36 222.742 254.159 223.12 254.079 223.532C253.998 223.944 254.041 224.371 254.203 224.758C254.365 225.145 254.639 225.476 254.989 225.707C255.338 225.939 255.749 226.062 256.169 226.06C256.73 226.057 257.266 225.833 257.662 225.435C258.057 225.038 258.279 224.5 258.279 223.94Z" fill="#A8A8A8"/>
<path d="M246.608 189.77H232.398V229.51H246.608V189.77Z" fill="#A8A8A8"/>
<path d="M243.045 193.03H235.945V216.65H243.045V193.03Z" fill="#8C8C8C"/>
<path d="M239.501 226.05C240.666 226.05 241.611 225.105 241.611 223.94C241.611 222.775 240.666 221.83 239.501 221.83C238.335 221.83 237.391 222.775 237.391 223.94C237.391 225.105 238.335 226.05 239.501 226.05Z" fill="#8C8C8C"/>
<path d="M229.937 189.77H215.727V229.51H229.937V189.77Z" fill="#A8A8A8"/>
<path d="M226.381 193.03H219.281V216.65H226.381V193.03Z" fill="#8C8C8C"/>
<path d="M222.829 226.05C223.994 226.05 224.939 225.105 224.939 223.94C224.939 222.775 223.994 221.83 222.829 221.83C221.663 221.83 220.719 222.775 220.719 223.94C220.719 225.105 221.663 226.05 222.829 226.05Z" fill="#8C8C8C"/>
<path d="M282.858 189.77H268.648V229.51H282.858V189.77Z" fill="#A8A8A8"/>
<path d="M279.295 193.03H272.195V216.65H279.295V193.03Z" fill="#8C8C8C"/>
<path d="M275.751 226.05C276.916 226.05 277.861 225.105 277.861 223.94C277.861 222.775 276.916 221.83 275.751 221.83C274.585 221.83 273.641 222.775 273.641 223.94C273.641 225.105 274.585 226.05 275.751 226.05Z" fill="#A8A8A8"/>
<path d="M212.187 189.77H197.977V229.51H212.187V189.77Z" fill="#A8A8A8"/>
<path d="M208.631 193.03H201.531V216.65H208.631V193.03Z" fill="#8C8C8C"/>
<path d="M205.079 226.05C206.244 226.05 207.189 225.105 207.189 223.94C207.189 222.775 206.244 221.83 205.079 221.83C203.913 221.83 202.969 222.775 202.969 223.94C202.969 225.105 203.913 226.05 205.079 226.05Z" fill="#8C8C8C"/>
<path d="M212.187 141.77H197.977V181.51H212.187V141.77Z" fill="#A8A8A8"/>
<path d="M208.631 145.03H201.531V168.65H208.631V145.03Z" fill="#8C8C8C"/>
<path d="M205.079 178.05C206.244 178.05 207.189 177.105 207.189 175.94C207.189 174.775 206.244 173.83 205.079 173.83C203.913 173.83 202.969 174.775 202.969 175.94C202.969 177.105 203.913 178.05 205.079 178.05Z" fill="#8C8C8C"/>
<path d="M227.796 141.77H213.586V181.51H227.796V141.77Z" fill="#A8A8A8"/>
<path d="M224.248 145.03H217.148V168.65H224.248V145.03Z" fill="#8C8C8C"/>
<path d="M220.696 178.05C221.861 178.05 222.806 177.105 222.806 175.94C222.806 174.775 221.861 173.83 220.696 173.83C219.531 173.83 218.586 174.775 218.586 175.94C218.586 177.105 219.531 178.05 220.696 178.05Z" fill="#8C8C8C"/>
<path d="M268.117 182.3V168.09H228.377V182.3H268.117Z" fill="#A8A8A8"/>
<path d="M264.859 178.74V171.64H241.249V178.74H264.859Z" fill="#8C8C8C"/>
<path d="M234.001 177.3C234.418 177.3 234.826 177.176 235.173 176.944C235.52 176.713 235.79 176.383 235.95 175.998C236.11 175.612 236.151 175.188 236.07 174.778C235.989 174.369 235.788 173.993 235.493 173.698C235.198 173.403 234.822 173.202 234.412 173.121C234.003 173.039 233.579 173.081 233.193 173.241C232.808 173.4 232.478 173.671 232.246 174.018C232.014 174.365 231.891 174.773 231.891 175.19C231.893 175.749 232.116 176.284 232.512 176.679C232.907 177.074 233.442 177.297 234.001 177.3Z" fill="#8C8C8C"/>
<path d="M282.858 237.19H268.648V276.93H282.858V237.19Z" fill="#A8A8A8"/>
<path d="M279.295 240.46H272.195V264.08H279.295V240.46Z" fill="#A8A8A8"/>
<path d="M277.861 271.37C277.861 270.952 277.737 270.545 277.505 270.198C277.273 269.851 276.944 269.58 276.558 269.42C276.173 269.261 275.748 269.219 275.339 269.3C274.93 269.382 274.554 269.583 274.259 269.878C273.964 270.173 273.763 270.549 273.681 270.958C273.6 271.367 273.642 271.792 273.801 272.177C273.961 272.563 274.231 272.892 274.578 273.124C274.925 273.356 275.333 273.48 275.751 273.48C276.028 273.48 276.302 273.425 276.558 273.319C276.814 273.213 277.047 273.058 277.243 272.862C277.439 272.666 277.594 272.433 277.7 272.177C277.806 271.921 277.861 271.647 277.861 271.37Z" fill="#A8A8A8"/>
<path d="M266.382 237.19H252.172V276.93H266.382V237.19Z" fill="#A8A8A8"/>
<path d="M262.819 240.46H255.719V264.08H262.819V240.46Z" fill="#A8A8A8"/>
<path d="M261.376 271.37C261.376 270.952 261.253 270.545 261.021 270.198C260.789 269.851 260.459 269.58 260.074 269.42C259.688 269.261 259.264 269.219 258.855 269.3C258.445 269.382 258.069 269.583 257.774 269.878C257.479 270.173 257.278 270.549 257.197 270.958C257.115 271.367 257.157 271.792 257.317 272.177C257.477 272.563 257.747 272.892 258.094 273.124C258.441 273.356 258.849 273.48 259.266 273.48C259.543 273.48 259.818 273.425 260.074 273.319C260.33 273.213 260.562 273.058 260.758 272.862C260.954 272.666 261.11 272.433 261.216 272.177C261.322 271.921 261.376 271.647 261.376 271.37Z" fill="#A8A8A8"/>
<path d="M232.382 237.19H218.172V276.93H232.382V237.19Z" fill="#A8A8A8"/>
<path d="M228.819 240.46H221.719V264.08H228.819V240.46Z" fill="#A8A8A8"/>
<path d="M227.376 271.37C227.376 270.952 227.252 270.545 227.021 270.198C226.789 269.851 226.459 269.58 226.074 269.42C225.688 269.261 225.264 269.219 224.855 269.3C224.445 269.382 224.069 269.583 223.774 269.878C223.479 270.173 223.278 270.549 223.197 270.958C223.115 271.367 223.157 271.792 223.317 272.177C223.477 272.563 223.747 272.892 224.094 273.124C224.441 273.356 224.849 273.48 225.266 273.48C225.543 273.48 225.818 273.425 226.074 273.319C226.33 273.213 226.562 273.058 226.758 272.862C226.954 272.666 227.11 272.433 227.216 272.177C227.322 271.921 227.376 271.647 227.376 271.37Z" fill="#A8A8A8"/>
<path d="M249.897 237.19H235.688V276.93H249.897V237.19Z" fill="#A8A8A8"/>
<path d="M246.342 240.46H239.242V264.08H246.342V240.46Z" fill="#A8A8A8"/>
<path d="M244.9 271.37C244.9 270.952 244.776 270.545 244.544 270.198C244.312 269.851 243.983 269.58 243.597 269.42C243.212 269.261 242.787 269.219 242.378 269.3C241.969 269.382 241.593 269.583 241.298 269.878C241.003 270.173 240.802 270.549 240.72 270.958C240.639 271.367 240.681 271.792 240.84 272.177C241 272.563 241.27 272.892 241.617 273.124C241.964 273.356 242.372 273.48 242.79 273.48C243.067 273.48 243.341 273.425 243.597 273.319C243.853 273.213 244.086 273.058 244.282 272.862C244.478 272.666 244.633 272.433 244.739 272.177C244.845 271.921 244.9 271.647 244.9 271.37Z" fill="#A8A8A8"/>
<path d="M99.71 285.86H85.5V325.6H99.71V285.86Z" fill="#A8A8A8"/>
<path d="M96.1469 289.12H89.0469V312.74H96.1469V289.12Z" fill="#8C8C8C"/>
<path d="M92.61 322.14C93.7753 322.14 94.72 321.195 94.72 320.03C94.72 318.865 93.7753 317.92 92.61 317.92C91.4447 317.92 90.5 318.865 90.5 320.03C90.5 321.195 91.4447 322.14 92.61 322.14Z" fill="#8C8C8C"/>
<path d="M119.999 285.86H105.789V325.6H119.999V285.86Z" fill="#A8A8A8"/>
<path d="M116.436 289.12H109.336V312.74H116.436V289.12Z" fill="#8C8C8C"/>
<path d="M112.899 322.14C114.064 322.14 115.009 321.195 115.009 320.03C115.009 318.865 114.064 317.92 112.899 317.92C111.734 317.92 110.789 318.865 110.789 320.03C110.789 321.195 111.734 322.14 112.899 322.14Z" fill="#8C8C8C"/>
<path d="M140.288 285.86H126.078V325.6H140.288V285.86Z" fill="#8C8C8C"/>
<path d="M136.733 289.12H129.633V312.74H136.733V289.12Z" fill="#A8A8A8"/>
<path d="M133.18 322.14C134.346 322.14 135.29 321.195 135.29 320.03C135.29 318.865 134.346 317.92 133.18 317.92C132.015 317.92 131.07 318.865 131.07 320.03C131.07 321.195 132.015 322.14 133.18 322.14Z" fill="#A8A8A8"/>
<path d="M160.577 285.86H146.367V325.6H160.577V285.86Z" fill="#A8A8A8"/>
<path d="M157.022 289.12H149.922V312.74H157.022V289.12Z" fill="#8C8C8C"/>
<path d="M153.469 322.14C154.635 322.14 155.579 321.195 155.579 320.03C155.579 318.865 154.635 317.92 153.469 317.92C152.304 317.92 151.359 318.865 151.359 320.03C151.359 321.195 152.304 322.14 153.469 322.14Z" fill="#8C8C8C"/>
<path d="M79.6106 171H75.3906V377.18H79.6106V171Z" fill="#A8A8A8"/>
<path d="M178.298 171H174.078V377.18H178.298V171Z" fill="#A8A8A8"/>
<path d="M183.679 181.71H68.2891V184.59H183.679V181.71Z" fill="#A8A8A8"/>
<path d="M183.679 229.51H68.2891V232.39H183.679V229.51Z" fill="#A8A8A8"/>
<path d="M183.679 277.32H68.2891V280.2H183.679V277.32Z" fill="#A8A8A8"/>
<path d="M183.679 325.12H68.2891V328H183.679V325.12Z" fill="#A8A8A8"/>
<path d="M148.132 189.77H133.922V229.51H148.132V189.77Z" fill="#8C8C8C"/>
<path d="M144.569 193.03H137.469V216.65H144.569V193.03Z" fill="#A8A8A8"/>
<path d="M143.138 223.94C143.138 223.521 143.014 223.111 142.781 222.762C142.548 222.413 142.217 222.142 141.83 221.981C141.442 221.821 141.016 221.779 140.605 221.861C140.194 221.942 139.816 222.144 139.519 222.441C139.223 222.737 139.021 223.115 138.939 223.526C138.857 223.937 138.899 224.364 139.06 224.751C139.22 225.138 139.492 225.47 139.841 225.703C140.189 225.935 140.599 226.06 141.018 226.06C141.581 226.06 142.12 225.836 142.518 225.439C142.915 225.041 143.138 224.502 143.138 223.94Z" fill="#A8A8A8"/>
<path d="M131.46 189.77H117.25V229.51H131.46V189.77Z" fill="#A8A8A8"/>
<path d="M127.897 193.03H120.797V216.65H127.897V193.03Z" fill="#8C8C8C"/>
<path d="M124.36 226.05C125.525 226.05 126.47 225.105 126.47 223.94C126.47 222.775 125.525 221.83 124.36 221.83C123.195 221.83 122.25 222.775 122.25 223.94C122.25 225.105 123.195 226.05 124.36 226.05Z" fill="#8C8C8C"/>
<path d="M114.796 189.77H100.586V229.51H114.796V189.77Z" fill="#A8A8A8"/>
<path d="M111.241 193.03H104.141V216.65H111.241V193.03Z" fill="#8C8C8C"/>
<path d="M107.688 226.05C108.853 226.05 109.798 225.105 109.798 223.94C109.798 222.775 108.853 221.83 107.688 221.83C106.523 221.83 105.578 222.775 105.578 223.94C105.578 225.105 106.523 226.05 107.688 226.05Z" fill="#8C8C8C"/>
<path d="M167.71 189.77H153.5V229.51H167.71V189.77Z" fill="#A8A8A8"/>
<path d="M164.147 193.03H157.047V216.65H164.147V193.03Z" fill="#8C8C8C"/>
<path d="M160.61 226.05C161.775 226.05 162.72 225.105 162.72 223.94C162.72 222.775 161.775 221.83 160.61 221.83C159.445 221.83 158.5 222.775 158.5 223.94C158.5 225.105 159.445 226.05 160.61 226.05Z" fill="#8C8C8C"/>
<path d="M127.43 167.82V182.03H167.17V167.82H127.43Z" fill="#A8A8A8"/>
<path d="M130.695 171.37V178.47H154.315V171.37H130.695Z" fill="#8C8C8C"/>
<path d="M161.607 172.81C161.187 172.808 160.776 172.931 160.426 173.162C160.076 173.394 159.803 173.725 159.641 174.112C159.479 174.499 159.435 174.926 159.516 175.338C159.597 175.749 159.798 176.128 160.094 176.426C160.39 176.723 160.768 176.926 161.179 177.009C161.591 177.091 162.018 177.05 162.406 176.89C162.793 176.729 163.125 176.458 163.359 176.109C163.592 175.76 163.717 175.35 163.717 174.93C163.717 174.37 163.495 173.832 163.099 173.435C162.704 173.037 162.167 172.813 161.607 172.81Z" fill="#8C8C8C"/>
<path d="M125.945 153.86V168.07H165.685V153.86H125.945Z" fill="#A8A8A8"/>
<path d="M129.211 157.41V164.51H152.831V157.41H129.211Z" fill="#8C8C8C"/>
<path d="M160.118 158.85C159.7 158.85 159.293 158.974 158.946 159.206C158.599 159.438 158.328 159.767 158.168 160.153C158.009 160.538 157.967 160.962 158.048 161.372C158.13 161.781 158.331 162.157 158.626 162.452C158.921 162.747 159.297 162.948 159.706 163.03C160.115 163.111 160.54 163.069 160.925 162.91C161.311 162.75 161.64 162.479 161.872 162.132C162.104 161.785 162.228 161.377 162.228 160.96C162.229 160.683 162.175 160.408 162.07 160.151C161.964 159.894 161.809 159.661 161.613 159.465C161.417 159.269 161.183 159.114 160.927 159.008C160.67 158.902 160.395 158.849 160.118 158.85Z" fill="#8C8C8C"/>
<path d="M97.0459 189.77H82.8359V229.51H97.0459V189.77Z" fill="#A8A8A8"/>
<path d="M93.4906 193.03H86.3906V216.65H93.4906V193.03Z" fill="#8C8C8C"/>
<path d="M89.9381 226.05C91.1034 226.05 92.0481 225.105 92.0481 223.94C92.0481 222.775 91.1034 221.83 89.9381 221.83C88.7728 221.83 87.8281 222.775 87.8281 223.94C87.8281 225.105 88.7728 226.05 89.9381 226.05Z" fill="#8C8C8C"/>
<path d="M167.71 237.19H153.5V276.93H167.71V237.19Z" fill="#A8A8A8"/>
<path d="M164.147 240.46H157.047V264.08H164.147V240.46Z" fill="#8C8C8C"/>
<path d="M162.717 271.37C162.719 270.95 162.596 270.538 162.363 270.188C162.131 269.838 161.8 269.565 161.412 269.403C161.025 269.241 160.598 269.199 160.185 269.28C159.773 269.361 159.395 269.564 159.097 269.861C158.8 270.158 158.598 270.536 158.517 270.949C158.435 271.361 158.478 271.788 158.64 272.176C158.802 272.563 159.075 272.894 159.425 273.127C159.775 273.359 160.186 273.482 160.607 273.48C161.165 273.477 161.7 273.254 162.096 272.859C162.491 272.464 162.714 271.929 162.717 271.37Z" fill="#8C8C8C"/>
<path d="M151.226 237.19H137.016V276.93H151.226V237.19Z" fill="#8C8C8C"/>
<path d="M147.678 240.46H140.578V264.08H147.678V240.46Z" fill="#A8A8A8"/>
<path d="M146.236 271.37C146.236 270.952 146.112 270.545 145.88 270.198C145.648 269.851 145.319 269.58 144.933 269.42C144.548 269.261 144.123 269.219 143.714 269.3C143.305 269.382 142.929 269.583 142.634 269.878C142.339 270.173 142.138 270.549 142.056 270.958C141.975 271.367 142.017 271.792 142.176 272.177C142.336 272.563 142.606 272.892 142.953 273.124C143.3 273.356 143.708 273.48 144.126 273.48C144.684 273.477 145.22 273.254 145.615 272.859C146.01 272.464 146.233 271.929 146.236 271.37Z" fill="#A8A8A8"/>
<path d="M100.421 237.19H86.2109V276.93H100.421V237.19Z" fill="#8C8C8C"/>
<path d="M96.8656 240.46H89.7656V264.08H96.8656V240.46Z" fill="#A8A8A8"/>
<path d="M95.4309 271.37C95.4309 270.952 95.3072 270.545 95.0753 270.198C94.8435 269.851 94.514 269.58 94.1284 269.42C93.7429 269.261 93.3186 269.219 92.9093 269.3C92.5 269.382 92.124 269.583 91.8289 269.878C91.5339 270.173 91.3329 270.549 91.2515 270.958C91.1701 271.367 91.2119 271.792 91.3716 272.177C91.5313 272.563 91.8017 272.892 92.1487 273.124C92.4957 273.356 92.9036 273.48 93.3209 273.48C93.8797 273.477 94.4149 273.254 94.81 272.859C95.2052 272.464 95.4283 271.929 95.4309 271.37Z" fill="#A8A8A8"/>
<path d="M117.226 237.19H103.016V276.93H117.226V237.19Z" fill="#8C8C8C"/>
<path d="M113.678 240.46H106.578V264.08H113.678V240.46Z" fill="#A8A8A8"/>
<path d="M112.236 271.37C112.236 270.952 112.112 270.545 111.88 270.198C111.648 269.851 111.319 269.58 110.933 269.42C110.548 269.261 110.123 269.219 109.714 269.3C109.305 269.382 108.929 269.583 108.634 269.878C108.339 270.173 108.138 270.549 108.056 270.958C107.975 271.367 108.017 271.792 108.176 272.177C108.336 272.563 108.606 272.892 108.953 273.124C109.3 273.356 109.708 273.48 110.126 273.48C110.684 273.477 111.22 273.254 111.615 272.859C112.01 272.464 112.233 271.929 112.236 271.37Z" fill="#A8A8A8"/>
<path d="M134.749 237.19H120.539V276.93H134.749V237.19Z" fill="#8C8C8C"/>
<path d="M131.202 240.46H124.102V264.08H131.202V240.46Z" fill="#A8A8A8"/>
<path d="M129.759 271.37C129.759 270.952 129.635 270.545 129.403 270.198C129.172 269.851 128.842 269.58 128.457 269.42C128.071 269.261 127.647 269.219 127.237 269.3C126.828 269.382 126.452 269.583 126.157 269.878C125.862 270.173 125.661 270.549 125.58 270.958C125.498 271.367 125.54 271.792 125.7 272.177C125.859 272.563 126.13 272.892 126.477 273.124C126.824 273.356 127.232 273.48 127.649 273.48C128.208 273.477 128.743 273.254 129.138 272.859C129.533 272.464 129.756 271.929 129.759 271.37Z" fill="#A8A8A8"/>
<path d="M123.94 377.58H102.63L99.4297 342.25H127.14L123.94 377.58Z" fill="#C6FF00" stroke="#263238" stroke-linecap="round" stroke-linejoin="round"/>
<path d="M127.088 340.97H99.4678C98.6615 340.97 98.0078 341.624 98.0078 342.43V342.57C98.0078 343.377 98.6615 344.03 99.4678 344.03H127.088C127.894 344.03 128.548 343.377 128.548 342.57V342.43C128.548 341.624 127.894 340.97 127.088 340.97Z" fill="white" stroke="#263238" stroke-linecap="round" stroke-linejoin="round"/>
<path d="M100.781 291.65C101.206 290.694 101.846 289.849 102.651 289.18" stroke="#263238" stroke-linecap="round" stroke-linejoin="round"/>
<path d="M108.156 339.06C108.156 339.06 114.456 338.01 118.916 330.66C123.376 323.31 117.086 319.66 106.846 310.97C100.476 305.58 99.0858 299.47 99.7658 294.97" stroke="#263238" stroke-linecap="round" stroke-linejoin="round"/>
<path d="M121.565 337.86C123.9 336.405 125.584 334.105 126.265 331.44C127.585 326.44 125.745 320.68 118.395 315.96C111.045 311.24 107.105 309.96 103.695 305.46" stroke="#263238" stroke-linecap="round" stroke-linejoin="round"/>
<path d="M116.297 339.84C117.457 339.66 118.587 339.324 119.657 338.84" stroke="#263238" stroke-linecap="round" stroke-linejoin="round"/>
<path d="M208.444 283.06C203.684 277.75 201.744 271.84 203.184 263.73C205.684 249.73 221.044 234.16 221.044 224.37C221.044 214.58 227.894 191.78 248.824 190.43C269.754 189.08 280.374 199.6 284.824 222.64C289.274 245.68 289.054 249.71 294.234 260.46C296.364 264.89 298.774 269.36 299.654 274.25C301.404 283.95 290.874 288.69 283.424 291.36C262.504 298.84 236.324 303.78 216.624 290.23C213.621 288.175 210.875 285.768 208.444 283.06Z" fill="#263238" stroke="#263238" stroke-linecap="round" stroke-linejoin="round"/>
<path d="M284.242 240.45C285.383 240.978 286.576 241.383 287.802 241.66" stroke="white" stroke-miterlimit="10" stroke-linecap="round"/>
<path d="M255.539 208.65C255.539 208.65 263.789 228.15 273.539 234.53C275.729 235.96 277.649 237.1 279.309 238.02" stroke="white" stroke-miterlimit="10" stroke-linecap="round"/>
<path d="M242.816 214.66C238.076 222.85 229.046 235.83 216.906 241.28" stroke="white" stroke-miterlimit="10" stroke-linecap="round"/>
<path d="M246.534 207.52C246.534 207.52 245.954 208.84 244.844 210.97" stroke="white" stroke-miterlimit="10" stroke-linecap="round"/>
<path d="M224.405 241.66C224.405 241.66 209.005 257 210.905 275" stroke="white" stroke-miterlimit="10" stroke-linecap="round"/>
<path d="M228.53 245C228.53 245 221.4 264.51 223.65 276.89" stroke="white" stroke-miterlimit="10" stroke-linecap="round"/>
<path d="M235.254 264.5C235.254 264.5 199.734 274.09 197.044 275.05C194.354 276.01 194.744 282.16 194.744 283.5C194.744 284.84 186.874 325.16 186.874 325.16C184.355 326.748 181.977 328.548 179.764 330.54C176.694 333.42 177.844 337.26 177.844 338.22C177.844 339.18 178.034 339.56 177.074 340.52C176.114 341.48 174.004 339.76 174.394 345.71C174.784 351.66 172.664 365.71 178.034 366.44C183.404 367.17 186.104 366.64 193.974 363.95C198.608 362.406 202.506 359.199 204.914 354.95V377.61H301.294C301.294 377.61 311.084 349 311.664 330.19C312.244 311.38 314.734 283.72 311.284 278.54C307.834 273.36 289.584 267.6 273.454 265.68C257.324 263.76 238.134 263.73 235.254 264.5Z" fill="#C6FF00"/>
<mask id="mask0_298_2581" style="mask-type:luminance" maskUnits="userSpaceOnUse" x="174" y="264" width="140" height="114">
<path d="M235.254 264.5C235.254 264.5 199.734 274.09 197.044 275.05C194.354 276.01 194.744 282.16 194.744 283.5C194.744 284.84 186.874 325.16 186.874 325.16C184.355 326.748 181.977 328.548 179.764 330.54C176.694 333.42 177.844 337.26 177.844 338.22C177.844 339.18 178.034 339.56 177.074 340.52C176.114 341.48 174.004 339.76 174.394 345.71C174.784 351.66 172.664 365.71 178.034 366.44C183.404 367.17 186.104 366.64 193.974 363.95C198.608 362.406 202.506 359.199 204.914 354.95V377.61H301.294C301.294 377.61 311.084 349 311.664 330.19C312.244 311.38 314.734 283.72 311.284 278.54C307.834 273.36 289.584 267.6 273.454 265.68C257.324 263.76 238.134 263.73 235.254 264.5Z" fill="white"/>
</mask>
<g mask="url(#mask0_298_2581)">
<g style="mix-blend-mode:multiply" opacity="0.24">
<path d="M307.618 275.4C308.118 275.99 308.328 276.49 307.898 276.69C306.578 277.32 300.378 279.32 299.628 281.95C298.878 284.58 299.188 273.95 297.748 277.06C296.308 280.17 294.358 292.48 286.468 317.3C280.158 337.11 276.738 362.43 278.868 377.58H301.298C301.298 377.58 311.088 348.97 311.668 330.16C312.248 311.35 314.738 283.69 311.288 278.51C310.288 277.235 309.04 276.176 307.618 275.4Z" fill="black"/>
</g>
<path d="M236.598 259.12C235.254 260.026 234.19 261.29 233.528 262.77C232.188 265.45 220.858 286.38 219.898 287.34C218.938 288.3 225.078 288.11 227.578 286.96C230.078 285.81 234.678 285.81 234.678 285.81L239.098 289.26L252.728 294.64C252.728 294.64 258.868 290.22 261.938 287.73C265.008 285.24 266.358 284.27 266.358 284.27C269.024 285.172 271.596 286.331 274.038 287.73C277.108 289.65 275.958 290.61 277.108 289.65C278.258 288.69 277.688 286.77 276.108 284.08C274.528 281.39 269.778 266.61 263.818 261.08C257.858 255.55 243.698 253.74 236.598 259.12Z" fill="#C6FF00" stroke="#263238" stroke-linecap="round" stroke-linejoin="round"/>
<path d="M264.438 306.93L290.938 307.12L290.358 314.61L276.728 321.52L264.438 314.8V306.93Z" fill="#C6FF00" stroke="#263238" stroke-linecap="round" stroke-linejoin="round"/>
<path d="M204.914 304.62L231.414 304.81L230.834 312.3L217.204 319.21L204.914 312.49V304.62Z" fill="#C6FF00" stroke="#263238" stroke-linecap="round" stroke-linejoin="round"/>
<g style="mix-blend-mode:multiply" opacity="0.24">
<path d="M205.235 362.05C205.235 362.05 203.735 305.27 204.865 298.87C205.995 292.47 198.095 273.3 198.465 283.46C198.835 293.62 201.465 308.93 201.685 312.74C201.905 316.55 192.825 314.67 193.575 319.56C194.325 324.45 199.575 324.44 201.105 331.97C202.635 339.5 189.815 339.11 189.815 343.25C189.815 347.39 194.335 353.02 190.575 356.41C186.815 359.8 184.695 355.26 184.695 355.26C186.033 358.826 186.291 362.708 185.435 366.42C188.347 365.821 191.211 365.012 194.005 364C198.639 362.456 202.537 359.25 204.945 355V363.16L205.235 362.05Z" fill="black"/>
</g>
</g>
<path d="M235.254 264.5C235.254 264.5 199.734 274.09 197.044 275.05C194.354 276.01 194.744 282.16 194.744 283.5C194.744 284.84 186.874 325.16 186.874 325.16C184.355 326.748 181.977 328.548 179.764 330.54C176.694 333.42 177.844 337.26 177.844 338.22C177.844 339.18 178.034 339.56 177.074 340.52C176.114 341.48 174.004 339.76 174.394 345.71C174.784 351.66 172.664 365.71 178.034 366.44C183.404 367.17 186.104 366.64 193.974 363.95C198.608 362.406 202.506 359.199 204.914 354.95V377.61H301.294C301.294 377.61 311.084 349 311.664 330.19C312.244 311.38 314.734 283.72 311.284 278.54C307.834 273.36 289.584 267.6 273.454 265.68C257.324 263.76 238.134 263.73 235.254 264.5Z" stroke="#263238" stroke-linecap="round" stroke-linejoin="round"/>
<path d="M204.916 322.09V355.31C204.916 355.31 203.186 334.19 198.586 328.81" stroke="#263238" stroke-linecap="round" stroke-linejoin="round"/>
<path d="M179 340C179 340 189.18 343.65 191.29 351.13C193.4 358.61 190.91 363.42 190.91 363.42" stroke="#263238" stroke-linecap="round" stroke-linejoin="round"/>
<path d="M166.821 352.59C166.821 352.59 174.251 349.21 174.821 348.59C175.391 347.97 181.931 348.28 184.661 355.24C187.391 362.2 185.411 365.54 184.051 366.29C182.691 367.04 175.561 369.12 173.591 369.12C171.621 369.12 163.341 355.17 166.821 352.59Z" fill="#C6FF00" stroke="#263238" stroke-linecap="round" stroke-linejoin="round"/>
<path d="M237.743 262.58C237.743 262.58 234.483 377.31 235.823 377.31H259.253C259.253 377.31 259.443 293.68 260.973 285.81C262.503 277.94 266.163 263.92 265.583 260.08C265.003 256.24 238.903 258.35 238.903 258.35C238.315 259.697 237.924 261.121 237.743 262.58Z" fill="white"/>
<mask id="mask1_298_2581" style="mask-type:luminance" maskUnits="userSpaceOnUse" x="235" y="257" width="31" height="121">
<path d="M237.743 262.58C237.743 262.58 234.483 377.31 235.823 377.31H259.253C259.253 377.31 259.443 293.68 260.973 285.81C262.503 277.94 266.163 263.92 265.583 260.08C265.003 256.24 238.903 258.35 238.903 258.35C238.315 259.697 237.924 261.121 237.743 262.58Z" fill="white"/>
</mask>
<g mask="url(#mask1_298_2581)">
<path d="M237.743 262.58C237.743 262.58 234.483 377.31 235.823 377.31H259.253C259.253 377.31 259.443 293.68 260.973 285.81C262.503 277.94 266.163 263.92 265.583 260.08C265.003 256.24 238.903 258.35 238.903 258.35C238.315 259.697 237.924 261.121 237.743 262.58Z" fill="#C6FF00"/>
<path opacity="0.7" d="M237.743 262.58C237.743 262.58 234.483 377.31 235.823 377.31H259.253C259.253 377.31 259.443 293.68 260.973 285.81C262.503 277.94 266.163 263.92 265.583 260.08C265.003 256.24 238.903 258.35 238.903 258.35C238.315 259.697 237.924 261.121 237.743 262.58Z" fill="white"/>
</g>
<path d="M237.743 262.58C237.743 262.58 234.483 377.31 235.823 377.31H259.253C259.253 377.31 259.443 293.68 260.973 285.81C262.503 277.94 266.163 263.92 265.583 260.08C265.003 256.24 238.903 258.35 238.903 258.35C238.315 259.697 237.924 261.121 237.743 262.58Z" stroke="#263238" stroke-linecap="round" stroke-linejoin="round"/>
<path d="M260.834 286.76C253.148 289.23 244.93 289.531 237.084 287.63C236.204 321.93 234.884 377.31 235.824 377.31H259.254C259.254 377.31 259.434 298.93 260.834 286.76Z" fill="white"/>
<mask id="mask2_298_2581" style="mask-type:luminance" maskUnits="userSpaceOnUse" x="235" y="286" width="26" height="92">
<path d="M260.834 286.76C253.148 289.23 244.93 289.531 237.084 287.63C236.204 321.93 234.884 377.31 235.824 377.31H259.254C259.254 377.31 259.434 298.93 260.834 286.76Z" fill="white"/>
</mask>
<g mask="url(#mask2_298_2581)">
<path d="M259.303 365.65C259.303 362.51 259.303 358.96 259.363 355.15H235.633C235.633 358.99 235.543 362.53 235.523 365.65H259.303Z" fill="#263238"/>
<path d="M236.005 335.15C235.935 338.75 235.865 342.26 235.805 345.65H259.465C259.465 342.22 259.525 338.7 259.565 335.15H236.005Z" fill="#263238"/>
<path d="M236.41 315.15C236.33 318.64 236.25 322.15 236.18 325.65H259.65C259.7 322.07 259.75 318.54 259.81 315.15H236.41Z" fill="#263238"/>
<path d="M236.893 295.15C236.813 298.52 236.723 302.04 236.633 305.65H260.003C260.093 301.72 260.203 298.16 260.323 295.15H236.893Z" fill="#263238"/>
</g>
<path d="M260.834 286.76C253.148 289.23 244.93 289.531 237.084 287.63C236.204 321.93 234.884 377.31 235.824 377.31H259.254C259.254 377.31 259.434 298.93 260.834 286.76Z" stroke="#263238" stroke-linecap="round" stroke-linejoin="round"/>
<path d="M248.882 213C248.882 213 245.422 223.94 230.452 233.74C230.452 233.74 229.452 247.37 233.522 257.54C237.592 267.71 248.302 275.78 252.912 274.82C257.522 273.86 266.542 263.49 269.612 256.2C272.682 248.91 272.692 235.85 272.692 235.85C272.692 235.85 257.132 225.71 248.882 213Z" fill="white" stroke="#263238" stroke-linecap="round" stroke-linejoin="round"/>
<path d="M247.735 250.1C247.735 250.1 247.345 256.43 248.305 257.01C249.265 257.59 250.995 257.39 251.185 255.28" stroke="#263238" stroke-linecap="round" stroke-linejoin="round"/>
<path d="M245.812 261C245.812 261 251.763 262.15 255.023 260.23" stroke="#263238" stroke-linecap="round" stroke-linejoin="round"/>
<path d="M245.692 231.15C245.692 231.15 237.632 229 234.172 235" stroke="#263238" stroke-linecap="round" stroke-linejoin="round"/>
<path d="M253.445 235.75C253.445 235.75 259.035 230.12 266.915 235.2" stroke="#263238" stroke-linecap="round" stroke-linejoin="round"/>
<path d="M236.406 243.18C236.406 243.18 240.056 246.64 246.006 244.18" stroke="#263238" stroke-linecap="round" stroke-linejoin="round"/>
<path d="M254.609 244C254.609 244 259.609 246.31 263.819 243.62" stroke="#263238" stroke-linecap="round" stroke-linejoin="round"/>
<path d="M240.169 252.78C244.621 252.78 248.229 249.172 248.229 244.72C248.229 240.269 244.621 236.66 240.169 236.66C235.718 236.66 232.109 240.269 232.109 244.72C232.109 249.172 235.718 252.78 240.169 252.78Z" stroke="#263238" stroke-width="0.75" stroke-linecap="round" stroke-linejoin="round"/>
<path d="M259.412 252.78C263.863 252.78 267.472 249.172 267.472 244.72C267.472 240.269 263.863 236.66 259.412 236.66C254.96 236.66 251.352 240.269 251.352 244.72C251.352 249.172 254.96 252.78 259.412 252.78Z" stroke="#263238" stroke-width="0.75" stroke-linecap="round" stroke-linejoin="round"/>
<path d="M248.234 244.72H251.344" stroke="#263238" stroke-width="0.75" stroke-linecap="round" stroke-linejoin="round"/>
<path d="M267.477 244.72H272.197" stroke="#263238" stroke-width="0.75" stroke-linecap="round" stroke-linejoin="round"/>
<path d="M229.953 244.72H232.093" stroke="#263238" stroke-width="0.75" stroke-linecap="round" stroke-linejoin="round"/>
<path d="M243.204 245.22C243.204 245.22 245.254 245.31 243.334 246.02C241.414 246.73 239.474 246.38 237.484 244.69C237.484 244.69 241.294 245.19 243.204 245.22Z" fill="#263238" stroke="#263238" stroke-linecap="round" stroke-linejoin="round"/>
<path d="M257.102 244.74C257.102 244.74 255.102 244.56 256.872 245.51C258.642 246.46 260.652 246.38 262.872 244.95C262.842 245 259.002 245 257.102 244.74Z" fill="#263238" stroke="#263238" stroke-linecap="round" stroke-linejoin="round"/>
<path d="M287.469 311.53L284.399 279.85C284.399 279.85 277.869 278.51 275.569 276.97C273.269 275.43 270.569 273.52 270.569 273.52C270.569 273.52 269.039 274.86 267.889 273.52C266.739 272.18 263.089 269.52 262.509 267.37C261.929 265.22 265.969 262.37 268.459 258.93C270.949 255.49 273.649 252.21 275.569 252.4C277.489 252.59 285.739 261 289.999 267.57C294.259 274.14 295.949 275.82 296.139 278.13C296.329 280.44 300.139 292.13 300.139 292.13L301.139 311.91L287.469 311.53Z" fill="white" stroke="#263238" stroke-linecap="round" stroke-linejoin="round"/>
<path d="M270.569 273.52C270.569 273.52 266.789 269.79 266.789 268.67" stroke="#263238" stroke-linecap="round" stroke-linejoin="round"/>
<path d="M280.94 293.2L284.59 313.55L288.59 290.89L304.14 289.17C304.14 289.17 304 313.36 304 319.5C304 325.64 306.69 353.68 307.46 363.5C308.23 373.32 303.04 376.5 295.94 376.74C288.84 376.98 283.07 370.41 280.77 357.16C278.47 343.91 281.15 319.72 280 315.69C278.85 311.66 274 295.15 274 295.15L280.94 293.2Z" fill="#C6FF00"/>
<mask id="mask3_298_2581" style="mask-type:luminance" maskUnits="userSpaceOnUse" x="274" y="289" width="34" height="88">
<path d="M280.94 293.2L284.59 313.55L288.59 290.89L304.14 289.17C304.14 289.17 304 313.36 304 319.5C304 325.64 306.69 353.68 307.46 363.5C308.23 373.32 303.04 376.5 295.94 376.74C288.84 376.98 283.07 370.41 280.77 357.16C278.47 343.91 281.15 319.72 280 315.69C278.85 311.66 274 295.15 274 295.15L280.94 293.2Z" fill="white"/>
</mask>
<g mask="url(#mask3_298_2581)">
<g style="mix-blend-mode:multiply" opacity="0.24">
<path d="M298.382 376.5C304.172 375.64 308.112 372.09 307.442 363.5C306.672 353.71 303.982 325.68 303.982 319.5C303.982 313.32 304.172 289.17 304.172 289.17L301.652 289.45C300.202 294.28 292.122 322.63 296.232 342.87C300.752 365.06 304.512 367.31 298.492 376.34L298.382 376.5Z" fill="black"/>
</g>
</g>
<path d="M280.94 293.2L284.59 313.55L288.59 290.89L304.14 289.17C304.14 289.17 304 313.36 304 319.5C304 325.64 306.69 353.68 307.46 363.5C308.23 373.32 303.04 376.5 295.94 376.74C288.84 376.98 283.07 370.41 280.77 357.16C278.47 343.91 281.15 319.72 280 315.69C278.85 311.66 274 295.15 274 295.15L280.94 293.2Z" stroke="#263238" stroke-linecap="round" stroke-linejoin="round"/>
<path d="M158.872 372.5C158.872 372.5 158.412 375.59 161.212 376.29C164.012 376.99 170.742 375.24 171.302 373.8C171.468 373.405 171.516 372.97 171.437 372.549C171.359 372.128 171.159 371.739 170.862 371.43H164.722C164.722 371.43 160.092 370 158.872 372.5Z" fill="white" stroke="#263238" stroke-linecap="round" stroke-linejoin="round"/>
<path d="M131.383 339.18L156.833 356.86L158.733 354.33L133.163 336.5L131.383 339.18Z" fill="#263238" stroke="#263238" stroke-linecap="round" stroke-linejoin="round"/>
<path d="M137.293 343.28L139.273 340.76L133.163 336.5L131.383 339.18L137.293 343.28Z" fill="white" stroke="#263238" stroke-linecap="round" stroke-linejoin="round"/>
<path d="M162.863 372.23C166.847 372.043 170.638 370.46 173.573 367.76C178.133 363.32 178.443 360.35 172.283 353.97C166.123 347.59 152.653 355.06 152.223 357.88C151.793 360.7 162.863 372.23 162.863 372.23Z" fill="white" stroke="#263238" stroke-linecap="round" stroke-linejoin="round"/>
<path d="M176.493 360.7C176.493 360.7 174.753 364.33 173.103 365.7C171.453 367.07 168.833 367.44 167.283 365.23C165.733 363.02 164.143 356.16 162.793 356.02C161.443 355.88 154.713 353.67 152.793 351.02C150.873 348.37 150.973 346.32 155.203 347.58C159.433 348.84 170.753 350.31 170.753 350.31C170.753 350.31 173.433 351.92 175.293 357.57" fill="white"/>
<path d="M176.493 360.7C176.493 360.7 174.753 364.33 173.103 365.7C171.453 367.07 168.833 367.44 167.283 365.23C165.733 363.02 164.143 356.16 162.793 356.02C161.443 355.88 154.713 353.67 152.793 351.02C150.873 348.37 150.973 346.32 155.203 347.58C159.433 348.84 170.753 350.31 170.753 350.31C170.753 350.31 173.433 351.92 175.293 357.57" stroke="#263238" stroke-linecap="round" stroke-linejoin="round"/>
<path d="M154.727 369.2C155.327 369.94 157.297 373.29 158.227 373.52C159.157 373.75 164.867 370.12 167.067 367.35C169.267 364.58 165.167 360.74 163.997 360.2C162.827 359.66 154.727 369.2 154.727 369.2Z" fill="white" stroke="#263238" stroke-linecap="round" stroke-linejoin="round"/>
<path d="M151.813 359.2C151.813 359.2 146.813 362.2 148.003 364.26C149.193 366.32 153.193 369.45 154.473 368.9C155.753 368.35 164.373 364.34 164.333 362.15C164.293 359.96 164.153 357.35 159.743 357.71C157.056 357.935 154.399 358.434 151.813 359.2Z" fill="white" stroke="#263238" stroke-linecap="round" stroke-linejoin="round"/>
<path d="M146.814 350.89C146.814 350.89 144.384 355.83 146.614 357.97C148.844 360.11 162.614 360.06 163.314 357.54C164.014 355.02 158.854 354.48 155.064 352.85C151.274 351.22 147.344 349.72 146.814 350.89Z" fill="white" stroke="#263238" stroke-linecap="round" stroke-linejoin="round"/>
<path d="M200.212 376.62C200.212 376.62 199.832 370.09 194.072 367.79C188.312 365.49 185.232 366.44 172.372 369.9C164.267 372.02 155.967 373.306 147.602 373.74V376.62H200.212Z" fill="white" stroke="#263238" stroke-linecap="round" stroke-linejoin="round"/>
<path d="M200 376.62C200 376.62 200.38 370.09 206.14 367.79C211.9 365.49 214.97 366.44 227.84 369.9C235.941 372.019 244.237 373.306 252.6 373.74V376.62H200Z" fill="white" stroke="#263238" stroke-linecap="round" stroke-linejoin="round"/>
<path d="M254.746 375.47H146.266V377.58H254.746V375.47Z" fill="#263238" stroke="#263238" stroke-linecap="round" stroke-linejoin="round"/>
<path d="M83 377.58H431.66" stroke="#263238" stroke-linecap="round" stroke-linejoin="round"/>
<path d="M427.664 319.6H353.744L328.594 377.77H402.514L427.664 319.6Z" fill="white" stroke="#263238" stroke-linecap="round" stroke-linejoin="round"/>
<path d="M430.539 319.6H356.619L331.469 377.77H405.389L430.539 319.6Z" fill="#263238" stroke="#263238" stroke-linecap="round" stroke-linejoin="round"/>
<path d="M386.924 355C385.024 358 381.464 359.18 378.974 357.6C376.484 356.02 375.974 352.31 377.894 349.3C379.814 346.29 383.354 345.13 385.894 346.7C388.434 348.27 388.824 352 386.924 355Z" fill="white" stroke="#C6FF00" stroke-linecap="round" stroke-linejoin="round"/>
<path d="M329.552 375.47H275.602V377.58H329.552V375.47Z" fill="white" stroke="#263238" stroke-linecap="round" stroke-linejoin="round"/>
</svg>
