<svg width="100" height="100" viewBox="0 0 100 100" fill="none" xmlns="http://www.w3.org/2000/svg">
<path d="M69.7059 27.624L50.2859 42.424L30.4219 27.624V27.628L30.4459 27.648V48.372L50.0619 63.492L69.7059 48.956V27.624Z" fill="#EA4335"/>
<path d="M74.8109 24.0242L69.7109 27.6242V48.9562L85.7589 36.9242V29.6762C85.7589 29.6762 83.8109 19.3242 74.8109 24.0242Z" fill="#FBBC05"/>
<path d="M69.7109 48.9558V76.6238H82.0109C82.0109 76.6238 85.5109 76.2718 85.7629 72.3758V36.9238L69.7109 48.9558Z" fill="#34A853"/>
<path d="M30.4459 76.648V48.3721L30.4219 48.3521L30.4459 76.648Z" fill="#C5221F"/>
<path d="M30.4224 27.6285L25.3504 24.0485C16.3504 19.3485 14.3984 29.6965 14.3984 29.6965V36.9445L30.4224 48.3525V27.6285Z" fill="#C5221F"/>
<path d="M30.4219 27.6279V48.3519L30.4459 48.3719V27.6479L30.4219 27.6279Z" fill="#C5221F"/>
<path d="M14.3984 36.9482V72.4002C14.6464 76.3002 18.1504 76.6482 18.1504 76.6482H30.4504L30.4224 48.3522L14.3984 36.9482Z" fill="#4285F4"/>
</svg>
