<svg width="101" height="100" viewBox="0 0 101 100" fill="none" xmlns="http://www.w3.org/2000/svg">
<rect x="0.671875" width="100" height="100" rx="50" fill="#077F00"/>
<path d="M39.7027 62.2684L41.8858 61.0503H41.8858L39.7027 62.2684ZM48.8488 82.6667L49.9882 80.4415H49.9882L48.8488 82.6667ZM52.495 82.6667L53.6344 84.892L52.495 82.6667ZM61.6411 62.2684L63.8242 63.4866L61.6411 62.2684ZM56.3752 80.6799L55.2357 78.4546L56.3752 80.6799ZM56.8952 80.3673L55.1703 78.5577L56.8952 80.3673ZM57.164 79.9276L59.5609 80.6382L57.164 79.9276ZM44.1798 79.9276L46.5767 79.2171L44.1798 79.9276ZM44.9686 80.6799L43.8291 82.9051L44.9686 80.6799ZM44.4486 80.3673L46.1735 78.5577L44.4486 80.3673ZM37.3057 58.2114L35.6343 60.0706L37.3057 58.2114ZM37.7393 58.7496L35.5561 59.9678L37.7393 58.7496ZM37.5623 58.4603L35.6086 60.0201L37.5623 58.4603ZM64.038 58.2114L62.3667 56.3522L64.038 58.2114ZM63.6045 58.7496L65.7876 59.9678L63.6045 58.7496ZM63.7814 58.4603L61.8277 56.9005L63.7814 58.4603ZM68.1719 43.3335C68.1719 48.5023 65.9341 53.1452 62.3667 56.3522L65.7094 60.0706C70.2871 55.9553 73.1719 49.9796 73.1719 43.3335H68.1719ZM50.6719 25.8335C60.3369 25.8335 68.1719 33.6685 68.1719 43.3335H73.1719C73.1719 30.9071 63.0983 20.8335 50.6719 20.8335V25.8335ZM33.1719 43.3335C33.1719 33.6685 41.0069 25.8335 50.6719 25.8335V20.8335C38.2455 20.8335 28.1719 30.9071 28.1719 43.3335H33.1719ZM38.9771 56.3522C35.4096 53.1452 33.1719 48.5023 33.1719 43.3335H28.1719C28.1719 49.9796 31.0566 55.9553 35.6343 60.0706L38.9771 56.3522ZM41.8858 61.0503L39.9224 57.5315L35.5561 59.9678L37.5195 63.4866L41.8858 61.0503ZM46.6385 79.3223C46.6385 72.926 45.0024 66.636 41.8858 61.0503L37.5195 63.4866C40.2206 68.3275 41.6385 73.7788 41.6385 79.3223H46.6385ZM49.9882 80.4415L46.108 78.4546L43.8291 82.9051L47.7093 84.892L49.9882 80.4415ZM51.3555 80.4415C50.9263 80.6613 50.4175 80.6613 49.9882 80.4415L47.7093 84.892C49.5695 85.8445 51.7742 85.8445 53.6344 84.892L51.3555 80.4415ZM55.2357 78.4546L51.3555 80.4415L53.6344 84.892L57.5146 82.9051L55.2357 78.4546ZM59.4579 61.0503C56.3413 66.636 54.7052 72.926 54.7052 79.3223H59.7052C59.7052 73.7788 61.1232 68.3275 63.8242 63.4866L59.4579 61.0503ZM61.4213 57.5315L59.4579 61.0503L63.8242 63.4866L65.7876 59.9678L61.4213 57.5315ZM57.5146 82.9051C57.6526 82.8344 58.1898 82.587 58.6201 82.1769L55.1703 78.5577C55.2383 78.4928 55.3021 78.4422 55.3541 78.4051C55.4028 78.3702 55.4365 78.3505 55.4413 78.3477C55.4449 78.3456 55.4342 78.3519 55.3953 78.3724C55.356 78.393 55.3083 78.4175 55.2357 78.4546L57.5146 82.9051ZM54.7052 79.3223C54.7052 79.4039 54.7052 79.4574 54.7047 79.5018C54.7042 79.5458 54.7035 79.5582 54.7037 79.554C54.704 79.5485 54.7062 79.5095 54.715 79.4502C54.7244 79.3871 54.7404 79.3072 54.7671 79.2171L59.5609 80.6382C59.7298 80.0683 59.7052 79.4774 59.7052 79.3223H54.7052ZM58.6201 82.1769C59.0627 81.755 59.3871 81.2245 59.5609 80.6382L54.7671 79.2171C54.8416 78.9658 54.9806 78.7385 55.1703 78.5577L58.6201 82.1769ZM41.6385 79.3223C41.6385 79.4774 41.6139 80.0683 41.7829 80.6382L46.5767 79.2171C46.6034 79.3072 46.6193 79.3871 46.6287 79.4502C46.6375 79.5095 46.6397 79.5485 46.64 79.554C46.6403 79.5582 46.6395 79.5458 46.639 79.5018C46.6386 79.4574 46.6385 79.4038 46.6385 79.3223H41.6385ZM46.108 78.4546C46.0355 78.4175 45.9878 78.393 45.9485 78.3724C45.9095 78.3519 45.8989 78.3456 45.9025 78.3477C45.9072 78.3505 45.941 78.3702 45.9897 78.4051C46.0416 78.4422 46.1055 78.4928 46.1735 78.5577L42.7237 82.1769C43.1539 82.587 43.6911 82.8344 43.8291 82.9051L46.108 78.4546ZM41.7829 80.6382C41.9567 81.2245 42.281 81.755 42.7237 82.1769L46.1735 78.5577C46.3632 78.7385 46.5022 78.9658 46.5767 79.2171L41.7829 80.6382ZM35.6343 60.0706C35.6701 60.1028 35.694 60.1243 35.7139 60.1423C35.7336 60.1603 35.7399 60.1662 35.7393 60.1657C35.738 60.1644 35.6801 60.1096 35.6086 60.0201L39.5161 56.9005C39.3043 56.6353 39.045 56.4133 38.9771 56.3522L35.6343 60.0706ZM39.9224 57.5315C39.8793 57.4542 39.7264 57.1641 39.5161 56.9005L35.6086 60.0201C35.576 59.9794 35.5495 59.9424 35.5291 59.9122C35.5098 59.8837 35.498 59.8641 35.4956 59.8601C35.4936 59.8569 35.4966 59.8617 35.5082 59.8822C35.52 59.9031 35.5341 59.9284 35.5561 59.9678L39.9224 57.5315ZM62.3667 56.3522C62.2987 56.4133 62.0395 56.6353 61.8277 56.9005L65.7352 60.0201C65.6637 60.1096 65.6058 60.1644 65.6044 60.1657C65.6039 60.1662 65.6102 60.1603 65.6299 60.1423C65.6497 60.1243 65.6736 60.1027 65.7094 60.0706L62.3667 56.3522ZM65.7876 59.9678C65.8096 59.9283 65.8238 59.903 65.8356 59.8822C65.8472 59.8617 65.8501 59.8569 65.8482 59.8601C65.8458 59.8641 65.834 59.8837 65.8147 59.9122C65.7943 59.9424 65.7677 59.9794 65.7352 60.0201L61.8277 56.9005C61.6173 57.1641 61.4645 57.4542 61.4213 57.5315L65.7876 59.9678Z" fill="white"/>
<path d="M60.6427 63.6001V63.6001C54.6058 67.6353 46.7322 67.6353 40.6953 63.6001V63.6001" stroke="white" stroke-width="5"/>
</svg>
