<svg width="101" height="100" viewBox="0 0 101 100" fill="none" xmlns="http://www.w3.org/2000/svg">
<rect x="0.5" width="100" height="100" rx="50" fill="#077F00"/>
<path d="M50.5947 23.021C37.9934 23.021 26.1034 28.3937 17.9907 37.5003C16.7661 38.8747 16.9284 40.9633 18.3034 42.1877C19.6777 43.411 21.7661 43.251 22.9907 41.875C29.8401 34.1866 39.8977 29.6877 50.5947 29.6877C61.2594 29.6877 71.11 34.139 77.9907 41.875C79.214 43.251 81.3024 43.411 82.678 42.1877C84.0537 40.9643 84.2144 38.8757 82.9907 37.5003C74.8517 28.3493 63.1737 23.021 50.5947 23.021ZM50.5947 36.3543C41.7947 36.3543 33.6514 40.154 27.9907 46.6677C26.7831 48.0577 26.9137 50.1476 28.3034 51.3543C29.6927 52.561 31.7831 52.431 32.9907 51.041C37.3984 45.971 43.7454 43.021 50.5947 43.021C57.323 43.021 63.589 45.9177 67.9907 50.8343C69.2187 52.2043 71.3064 52.271 72.678 51.041C74.0497 49.8143 74.219 47.7243 72.9907 46.3543C67.337 40.04 59.239 36.3543 50.5947 36.3543ZM50.5947 49.6876C45.698 49.6876 41.1347 51.7876 37.9907 55.4176C36.7851 56.8076 36.9117 58.8976 38.3034 60.1043C39.6944 61.311 41.7851 61.1843 42.9907 59.791C44.8814 57.611 47.6524 56.3543 50.5947 56.3543C53.4724 56.3543 56.1034 57.5876 57.9907 59.6876C59.2217 61.0576 61.4137 61.1276 62.7824 59.8943C64.1514 58.6643 64.2217 56.5776 62.9907 55.2076C59.8517 51.7176 55.383 49.6876 50.5947 49.6876ZM50.4907 63.021C49.6844 63.021 48.9184 63.3543 48.3034 63.9576C48.3034 63.9576 43.3617 68.8276 41.4281 70.7276C39.4947 72.631 40.7097 76.3643 43.8241 76.3543H53.3034H57.1574C60.219 76.3643 61.5107 72.551 59.5534 70.6243C57.5957 68.6976 52.7827 63.9576 52.7824 63.9576C52.167 63.3543 51.297 63.021 50.4907 63.021Z" fill="white"/>
</svg>
