<svg width="100" height="100" viewBox="0 0 100 100" fill="none" xmlns="http://www.w3.org/2000/svg">
<rect width="100" height="100" rx="50" fill="#077F00"/>
<path d="M23.3333 62.5002C25.2231 62.5002 26.3077 61.0286 26.783 60.2244C27.3572 59.2529 27.7876 58.0136 28.1157 56.7013C28.7815 54.0381 29.1667 50.4916 29.1667 46.6668C29.1667 42.8421 28.7815 39.2955 28.1157 36.6324C27.7876 35.3201 27.3572 34.0807 26.783 33.1092C26.3077 32.3051 25.2231 30.8335 23.3333 30.8335C21.4435 30.8335 20.359 32.3051 19.8837 33.1092C19.3095 34.0807 18.879 35.3201 18.551 36.6324C17.8852 39.2955 17.5 42.8421 17.5 46.6668C17.5 50.4916 17.8852 54.0381 18.551 56.7013C18.879 58.0136 19.3095 59.2529 19.8837 60.2244C20.359 61.0286 21.4435 62.5002 23.3333 62.5002Z" stroke="white" stroke-width="5"/>
<path d="M76.6693 62.5002C78.5119 62.5002 79.5934 61.0919 80.0853 60.277C80.6687 59.3104 81.111 58.0639 81.4517 56.7013C82.1408 53.9445 82.5026 50.3375 82.5026 46.6668C82.5026 42.9961 82.1408 39.3891 81.4517 36.6324C81.111 35.2698 80.6687 34.0233 80.0853 33.0566C79.5934 32.2417 78.5119 30.8335 76.6693 30.8335" stroke="white" stroke-width="5" stroke-linecap="round"/>
<path d="M76.6693 31C76.6693 31 65.0026 34.3333 50.0026 34.3333C35.0026 34.3333 23.3359 31 23.3359 31" stroke="white" stroke-width="5" stroke-linecap="round"/>
<path d="M23.3307 62.1201C23.3307 62.1201 31.6787 59.735 43.3307 58.9999M76.6641 62.1201C76.6641 62.1201 68.3161 59.735 56.6641 58.9999" stroke="white" stroke-width="5" stroke-linecap="round"/>
<path d="M45.5 35V45M55.5 35V45" stroke="white" stroke-width="5" stroke-linecap="round"/>
<circle cx="50.5" cy="53" r="8.5" stroke="white" stroke-width="5"/>
<path d="M43.3333 60L35 66.6667L40 68.3333L43.3333 73.3333L50 63.3333L56.6667 73.3333L60 68.3333L65 66.6667L56.6667 60" stroke="white" stroke-width="5" stroke-linecap="round" stroke-linejoin="round"/>
</svg>
