<svg width="101" height="100" viewBox="0 0 101 100" fill="none" xmlns="http://www.w3.org/2000/svg">
<rect x="0.5" width="100" height="100" rx="50" fill="#077F00"/>
<path d="M23 36.6668C23 33.4535 23.0053 31.2949 23.2218 29.6848C23.4286 28.1466 23.786 27.4883 24.2204 27.0539C24.6548 26.6195 25.3131 26.2621 26.8513 26.0553C28.4614 25.8388 30.62 25.8335 33.8333 25.8335H67.1667C70.38 25.8335 72.5386 25.8388 74.1487 26.0553C75.6869 26.2621 76.3452 26.6195 76.7796 27.0539C77.214 27.4883 77.5714 28.1466 77.7782 29.6848C77.9947 31.2949 78 33.4535 78 36.6668V64.1668H23V36.6668Z" stroke="white" stroke-width="5"/>
<path d="M22.7222 64.1665C20.1142 64.1665 18 66.2807 18 68.8887C18 72.724 21.1091 75.8332 24.9444 75.8332H76.0556C79.8909 75.8332 83 72.724 83 68.8887C83 66.2807 80.8858 64.1665 78.2778 64.1665H22.7222Z" stroke="white" stroke-width="5"/>
</svg>
