<svg width="1061" height="194" viewBox="0 0 1061 194" fill="none" xmlns="http://www.w3.org/2000/svg">
<path d="M9.816 178.36C8.072 178.36 6.544 178 5.232 177.28C3.92 176.56 2.9 175.548 2.172 174.244C1.444 172.932 1.08 171.392 1.08 169.624C1.08 168.336 1.292 167.16 1.716 166.096C2.148 165.024 2.756 164.096 3.54 163.312C4.332 162.52 5.26 161.912 6.324 161.488C7.396 161.056 8.572 160.84 9.852 160.84C11.172 160.84 12.3 161.008 13.236 161.344C14.172 161.672 15.004 162.14 15.732 162.748L14.136 165.304C13.624 164.816 13.024 164.456 12.336 164.224C11.656 163.984 10.9 163.864 10.068 163.864C9.18 163.864 8.384 163.996 7.68 164.26C6.976 164.524 6.376 164.908 5.88 165.412C5.384 165.908 5.004 166.508 4.74 167.212C4.476 167.916 4.344 168.708 4.344 169.588C4.344 170.796 4.58 171.828 5.052 172.684C5.524 173.532 6.196 174.184 7.068 174.64C7.94 175.096 8.976 175.324 10.176 175.324C10.984 175.324 11.772 175.2 12.54 174.952C13.316 174.704 14.048 174.308 14.736 173.764L16.176 176.392C15.376 177.016 14.448 177.5 13.392 177.844C12.344 178.188 11.152 178.36 9.816 178.36ZM18.5338 178V166H24.4498C25.8338 166 26.9298 166.26 27.7378 166.78C28.5538 167.292 28.9618 168.064 28.9618 169.096C28.9618 169.608 28.8338 170.056 28.5778 170.44C28.3218 170.816 27.9738 171.128 27.5338 171.376C27.0938 171.616 26.5938 171.788 26.0338 171.892L25.9858 171.208C27.0818 171.336 27.9378 171.684 28.5538 172.252C29.1698 172.812 29.4778 173.532 29.4778 174.412C29.4778 175.156 29.2858 175.796 28.9018 176.332C28.5258 176.868 27.9778 177.28 27.2578 177.568C26.5378 177.856 25.6698 178 24.6538 178H18.5338ZM21.4858 175.816H24.2458C24.9578 175.816 25.5058 175.696 25.8898 175.456C26.2738 175.208 26.4658 174.848 26.4658 174.376C26.4658 173.912 26.2738 173.56 25.8898 173.32C25.5138 173.08 24.9658 172.96 24.2458 172.96H21.1378V170.872H23.9578C24.6298 170.872 25.1498 170.768 25.5178 170.56C25.8858 170.344 26.0698 170.004 26.0698 169.54C26.0698 169.068 25.8818 168.724 25.5058 168.508C25.1378 168.292 24.6218 168.184 23.9578 168.184H21.4858V175.816ZM37.8711 178.36C36.5911 178.36 35.4551 178.072 34.4631 177.496C33.4791 176.912 32.7071 176.14 32.1471 175.18C31.5871 174.212 31.3071 173.152 31.3071 172C31.3071 171.152 31.4671 170.344 31.7871 169.576C32.1071 168.808 32.5591 168.132 33.1431 167.548C33.7351 166.956 34.4311 166.492 35.2311 166.156C36.0311 165.812 36.9111 165.64 37.8711 165.64C39.1431 165.64 40.2711 165.928 41.2551 166.504C42.2471 167.08 43.0231 167.852 43.5831 168.82C44.1511 169.788 44.4351 170.848 44.4351 172C44.4351 172.848 44.2711 173.656 43.9431 174.424C43.6231 175.184 43.1711 175.86 42.5871 176.452C42.0031 177.044 41.3111 177.512 40.5111 177.856C39.7111 178.192 38.8311 178.36 37.8711 178.36ZM37.8591 175.672C38.5391 175.672 39.1431 175.524 39.6711 175.228C40.2071 174.924 40.6271 174.5 40.9311 173.956C41.2351 173.404 41.3871 172.752 41.3871 172C41.3871 171.248 41.2351 170.596 40.9311 170.044C40.6271 169.492 40.2111 169.068 39.6831 168.772C39.1551 168.476 38.5511 168.328 37.8711 168.328C37.1911 168.328 36.5831 168.476 36.0471 168.772C35.5191 169.068 35.1031 169.492 34.7991 170.044C34.5031 170.596 34.3551 171.248 34.3551 172C34.3551 172.752 34.5071 173.404 34.8111 173.956C35.1151 174.5 35.5311 174.924 36.0591 175.228C36.5871 175.524 37.1871 175.672 37.8591 175.672ZM46.9635 178V166H50.0355V178H46.9635ZM46.3155 164.008C45.8275 164.008 45.4195 163.844 45.0915 163.516C44.7555 163.18 44.5875 162.748 44.5875 162.22C44.5875 161.684 44.7555 161.252 45.0915 160.924C45.4195 160.596 45.8275 160.432 46.3155 160.432C46.7955 160.432 47.1995 160.596 47.5275 160.924C47.8635 161.252 48.0315 161.684 48.0315 162.22C48.0315 162.748 47.8635 163.18 47.5275 163.516C47.1995 163.844 46.7955 164.008 46.3155 164.008ZM50.6835 164.008C50.2035 164.008 49.7955 163.844 49.4595 163.516C49.1315 163.18 48.9675 162.748 48.9675 162.22C48.9675 161.684 49.1315 161.252 49.4595 160.924C49.7955 160.596 50.2035 160.432 50.6835 160.432C51.1795 160.432 51.5915 160.596 51.9195 160.924C52.2475 161.252 52.4115 161.684 52.4115 162.22C52.4115 162.748 52.2475 163.18 51.9195 163.516C51.5915 163.844 51.1795 164.008 50.6835 164.008ZM59.3385 183.04V166H62.0505V167.584C62.5145 167 63.1105 166.532 63.8385 166.18C64.5665 165.82 65.4465 165.64 66.4785 165.64C67.6385 165.64 68.6705 165.912 69.5745 166.456C70.4785 167 71.1865 167.752 71.6985 168.712C72.2185 169.664 72.4785 170.76 72.4785 172C72.4785 172.888 72.3305 173.716 72.0345 174.484C71.7385 175.252 71.3225 175.928 70.7865 176.512C70.2505 177.088 69.6105 177.54 68.8665 177.868C68.1305 178.196 67.3185 178.36 66.4305 178.36C65.5665 178.36 64.7985 178.212 64.1265 177.916C63.4625 177.612 62.8865 177.2 62.3985 176.68V183.04H59.3385ZM65.9145 175.672C66.5945 175.672 67.1985 175.524 67.7265 175.228C68.2545 174.924 68.6705 174.5 68.9745 173.956C69.2785 173.404 69.4305 172.752 69.4305 172C69.4305 171.248 69.2785 170.596 68.9745 170.044C68.6705 169.492 68.2505 169.068 67.7145 168.772C67.1865 168.476 66.5865 168.328 65.9145 168.328C65.2345 168.328 64.6305 168.476 64.1025 168.772C63.5745 169.068 63.1585 169.492 62.8545 170.044C62.5505 170.596 62.3985 171.248 62.3985 172C62.3985 172.752 62.5465 173.404 62.8425 173.956C63.1465 174.5 63.5625 174.924 64.0905 175.228C64.6265 175.524 65.2345 175.672 65.9145 175.672ZM80.6794 178.36C79.3754 178.36 78.2314 178.096 77.2474 177.568C76.2634 177.032 75.4954 176.288 74.9434 175.336C74.3994 174.384 74.1274 173.276 74.1274 172.012C74.1274 171.084 74.2834 170.232 74.5954 169.456C74.9154 168.68 75.3634 168.008 75.9394 167.44C76.5234 166.864 77.2034 166.42 77.9794 166.108C78.7634 165.796 79.6194 165.64 80.5474 165.64C81.5554 165.64 82.4554 165.82 83.2474 166.18C84.0394 166.532 84.6954 167.032 85.2154 167.68C85.7434 168.32 86.1114 169.072 86.3194 169.936C86.5354 170.792 86.5634 171.728 86.4034 172.744H77.0194C77.0114 173.376 77.1594 173.928 77.4634 174.4C77.7754 174.872 78.2154 175.244 78.7834 175.516C79.3594 175.78 80.0354 175.912 80.8114 175.912C81.4994 175.912 82.1594 175.812 82.7914 175.612C83.4234 175.412 84.0114 175.116 84.5554 174.724L85.6354 176.872C85.2594 177.176 84.7914 177.44 84.2314 177.664C83.6714 177.888 83.0794 178.06 82.4554 178.18C81.8394 178.3 81.2474 178.36 80.6794 178.36ZM77.1994 170.56H83.4274C83.4034 169.752 83.1354 169.12 82.6234 168.664C82.1114 168.2 81.3954 167.968 80.4754 167.968C79.5634 167.968 78.8114 168.2 78.2194 168.664C77.6274 169.12 77.2874 169.752 77.1994 170.56ZM93.1498 178.3C92.4778 178.3 91.8258 178.248 91.1938 178.144C90.5618 178.048 89.9658 177.892 89.4058 177.676C88.8538 177.452 88.3538 177.16 87.9058 176.8L89.1778 174.784C89.6738 175.2 90.2618 175.504 90.9418 175.696C91.6218 175.888 92.3178 175.984 93.0298 175.984C93.9418 175.984 94.6538 175.856 95.1658 175.6C95.6858 175.336 95.9458 174.908 95.9458 174.316C95.9458 173.796 95.6778 173.428 95.1418 173.212C94.6138 172.996 93.8338 172.888 92.8018 172.888H90.5938V170.656H92.7178C93.6378 170.656 94.3338 170.552 94.8058 170.344C95.2858 170.136 95.5258 169.788 95.5258 169.3C95.5258 169.004 95.4218 168.76 95.2138 168.568C95.0058 168.368 94.7058 168.22 94.3138 168.124C93.9298 168.02 93.4778 167.968 92.9578 167.968C92.2778 167.968 91.6258 168.068 91.0018 168.268C90.3778 168.468 89.8338 168.776 89.3698 169.192L88.2658 167.164C88.9138 166.644 89.6778 166.252 90.5578 165.988C91.4458 165.724 92.3338 165.592 93.2218 165.592C94.2778 165.592 95.1858 165.72 95.9458 165.976C96.7058 166.232 97.2858 166.604 97.6858 167.092C98.0938 167.58 98.2978 168.172 98.2978 168.868C98.2978 169.46 98.1098 169.984 97.7338 170.44C97.3658 170.888 96.8218 171.212 96.1018 171.412C96.9818 171.62 97.6498 171.976 98.1058 172.48C98.5618 172.976 98.7898 173.608 98.7898 174.376C98.7898 175.176 98.5578 175.872 98.0938 176.464C97.6378 177.048 96.9858 177.5 96.1378 177.82C95.2978 178.14 94.3018 178.3 93.1498 178.3ZM101.573 178V166H104.645L104.633 170.524H108.617V173.02H104.633L104.645 178H101.573ZM113.561 178.36C112.281 178.36 111.145 178.072 110.153 177.496C109.169 176.912 108.397 176.14 107.837 175.18C107.277 174.212 106.997 173.152 106.997 172C106.997 171.152 107.157 170.344 107.477 169.576C107.797 168.808 108.249 168.132 108.833 167.548C109.425 166.956 110.121 166.492 110.921 166.156C111.721 165.812 112.601 165.64 113.561 165.64C114.833 165.64 115.961 165.928 116.945 166.504C117.937 167.08 118.713 167.852 119.273 168.82C119.841 169.78 120.125 170.84 120.125 172C120.125 172.848 119.961 173.656 119.633 174.424C119.313 175.184 118.857 175.86 118.265 176.452C117.681 177.044 116.989 177.512 116.189 177.856C115.397 178.192 114.521 178.36 113.561 178.36ZM113.561 175.672C114.233 175.672 114.833 175.524 115.361 175.228C115.897 174.924 116.317 174.5 116.621 173.956C116.925 173.404 117.077 172.752 117.077 172C117.077 171.248 116.925 170.596 116.621 170.044C116.317 169.492 115.901 169.068 115.373 168.772C114.845 168.476 114.241 168.328 113.561 168.328C112.881 168.328 112.277 168.476 111.749 168.772C111.221 169.068 110.805 169.492 110.501 170.044C110.197 170.596 110.045 171.248 110.045 172C110.045 172.752 110.197 173.404 110.501 173.956C110.805 174.5 111.221 174.924 111.749 175.228C112.277 175.524 112.881 175.672 113.561 175.672ZM122.667 178V166H125.307H125.379L130.587 173.656L129.267 173.68L134.199 166H136.899V178H134.151L134.187 169.504L134.775 169.744L130.743 175.732H128.835L124.599 169.732L125.175 169.492L125.223 178H122.667ZM145.976 178.36C144.672 178.36 143.528 178.096 142.544 177.568C141.56 177.032 140.792 176.288 140.24 175.336C139.696 174.384 139.424 173.276 139.424 172.012C139.424 171.084 139.58 170.232 139.892 169.456C140.212 168.68 140.66 168.008 141.236 167.44C141.82 166.864 142.5 166.42 143.276 166.108C144.06 165.796 144.916 165.64 145.844 165.64C146.852 165.64 147.752 165.82 148.544 166.18C149.336 166.532 149.992 167.032 150.512 167.68C151.04 168.32 151.408 169.072 151.616 169.936C151.832 170.792 151.86 171.728 151.7 172.744H142.316C142.308 173.376 142.456 173.928 142.76 174.4C143.072 174.872 143.512 175.244 144.08 175.516C144.656 175.78 145.332 175.912 146.108 175.912C146.796 175.912 147.456 175.812 148.088 175.612C148.72 175.412 149.308 175.116 149.852 174.724L150.932 176.872C150.556 177.176 150.088 177.44 149.528 177.664C148.968 177.888 148.376 178.06 147.752 178.18C147.136 178.3 146.544 178.36 145.976 178.36ZM142.496 170.56H148.724C148.7 169.752 148.432 169.12 147.92 168.664C147.408 168.2 146.692 167.968 145.772 167.968C144.86 167.968 144.108 168.2 143.516 168.664C142.924 169.12 142.584 169.752 142.496 170.56ZM160.096 178V166H163.168V170.524H168.7V166H171.772V178H168.7V173.02H163.168V178H160.096ZM178.643 178.36C177.827 178.36 177.103 178.204 176.471 177.892C175.839 177.58 175.343 177.14 174.983 176.572C174.623 175.996 174.443 175.316 174.443 174.532C174.443 173.86 174.611 173.26 174.947 172.732C175.283 172.204 175.799 171.768 176.495 171.424C177.191 171.072 178.079 170.836 179.159 170.716C180.247 170.596 181.535 170.612 183.023 170.764L183.071 172.792C182.095 172.64 181.243 172.572 180.515 172.588C179.787 172.604 179.183 172.688 178.703 172.84C178.231 172.992 177.875 173.2 177.635 173.464C177.403 173.728 177.287 174.036 177.287 174.388C177.287 174.916 177.479 175.324 177.863 175.612C178.247 175.892 178.771 176.032 179.435 176.032C180.003 176.032 180.511 175.928 180.959 175.72C181.415 175.512 181.775 175.22 182.039 174.844C182.303 174.46 182.435 174.008 182.435 173.488V170.452C182.435 169.948 182.327 169.512 182.111 169.144C181.903 168.768 181.583 168.48 181.151 168.28C180.719 168.072 180.163 167.968 179.483 167.968C178.859 167.968 178.239 168.064 177.623 168.256C177.015 168.44 176.443 168.728 175.907 169.12L175.079 166.924C175.839 166.42 176.639 166.06 177.479 165.844C178.319 165.628 179.131 165.52 179.915 165.52C181.035 165.52 182.003 165.696 182.819 166.048C183.643 166.4 184.275 166.94 184.715 167.668C185.163 168.388 185.387 169.304 185.387 170.416V178H182.675V176.632C182.275 177.184 181.723 177.612 181.019 177.916C180.315 178.212 179.523 178.36 178.643 178.36ZM197.388 178V168.496H193.02V169.828C193.02 170.852 192.948 171.8 192.804 172.672C192.668 173.544 192.424 174.32 192.072 175C191.72 175.68 191.232 176.252 190.608 176.716C189.984 177.172 189.188 177.5 188.22 177.7L187.536 175.6C188.28 175.424 188.84 175.084 189.216 174.58C189.6 174.068 189.856 173.412 189.984 172.612C190.12 171.812 190.188 170.884 190.188 169.828V166H200.46V178H197.388ZM187.536 181.6V175.6L189.312 175.756L189.792 175.504H202.872V181.6H200.064V178H190.344V181.6H187.536ZM210.5 178.36C209.228 178.36 208.096 178.084 207.104 177.532C206.12 176.972 205.344 176.216 204.776 175.264C204.208 174.304 203.924 173.216 203.924 172C203.924 171.08 204.092 170.236 204.428 169.468C204.764 168.692 205.236 168.02 205.844 167.452C206.452 166.876 207.164 166.432 207.98 166.12C208.804 165.8 209.7 165.64 210.668 165.64C211.508 165.64 212.288 165.752 213.008 165.976C213.728 166.2 214.388 166.544 214.988 167.008L213.56 169.324C213.184 168.988 212.756 168.74 212.276 168.58C211.804 168.412 211.308 168.328 210.788 168.328C210.004 168.328 209.328 168.472 208.76 168.76C208.2 169.048 207.768 169.464 207.464 170.008C207.16 170.552 207.008 171.212 207.008 171.988C207.008 173.14 207.344 174.044 208.016 174.7C208.696 175.348 209.62 175.672 210.788 175.672C211.372 175.672 211.924 175.564 212.444 175.348C212.964 175.132 213.416 174.836 213.8 174.46L215.168 176.788C214.512 177.276 213.78 177.66 212.972 177.94C212.164 178.22 211.34 178.36 210.5 178.36ZM217.471 178V166H220.423V173.584L226.483 166H229.195V178H226.243V170.32L220.147 178H217.471ZM232.441 178.24L231.397 175.492C232.213 175.284 232.809 174.964 233.185 174.532C233.561 174.1 233.801 173.504 233.905 172.744C234.009 171.984 234.061 171.012 234.061 169.828V166H244.093V178H241.021V168.496H236.893V169.828C236.893 171.084 236.829 172.188 236.701 173.14C236.573 174.092 236.345 174.908 236.017 175.588C235.697 176.268 235.245 176.824 234.661 177.256C234.085 177.688 233.345 178.016 232.441 178.24ZM250.971 178.36C250.155 178.36 249.431 178.204 248.799 177.892C248.167 177.58 247.671 177.14 247.311 176.572C246.951 175.996 246.771 175.316 246.771 174.532C246.771 173.86 246.939 173.26 247.275 172.732C247.611 172.204 248.127 171.768 248.823 171.424C249.519 171.072 250.407 170.836 251.487 170.716C252.575 170.596 253.863 170.612 255.351 170.764L255.399 172.792C254.423 172.64 253.571 172.572 252.843 172.588C252.115 172.604 251.511 172.688 251.031 172.84C250.559 172.992 250.203 173.2 249.963 173.464C249.731 173.728 249.615 174.036 249.615 174.388C249.615 174.916 249.807 175.324 250.191 175.612C250.575 175.892 251.099 176.032 251.763 176.032C252.331 176.032 252.839 175.928 253.287 175.72C253.743 175.512 254.103 175.22 254.367 174.844C254.631 174.46 254.763 174.008 254.763 173.488V170.452C254.763 169.948 254.655 169.512 254.439 169.144C254.231 168.768 253.911 168.48 253.479 168.28C253.047 168.072 252.491 167.968 251.811 167.968C251.187 167.968 250.567 168.064 249.951 168.256C249.343 168.44 248.771 168.728 248.235 169.12L247.407 166.924C248.167 166.42 248.967 166.06 249.807 165.844C250.647 165.628 251.459 165.52 252.243 165.52C253.363 165.52 254.331 165.696 255.147 166.048C255.971 166.4 256.603 166.94 257.043 167.668C257.491 168.388 257.715 169.304 257.715 170.416V178H255.003V176.632C254.603 177.184 254.051 177.612 253.347 177.916C252.643 178.212 251.851 178.36 250.971 178.36ZM261.112 178V166H264.064V173.584L270.124 166H272.836V178H269.884V170.32L263.788 178H261.112ZM266.968 164.08C266.04 164.08 265.228 163.896 264.532 163.528C263.836 163.152 263.296 162.636 262.912 161.98C262.536 161.324 262.36 160.568 262.384 159.712H264.916C264.892 160.4 265.064 160.956 265.432 161.38C265.808 161.796 266.32 162.004 266.968 162.004C267.616 162.004 268.124 161.796 268.492 161.38C268.868 160.956 269.036 160.4 268.996 159.712H271.54C271.564 160.552 271.38 161.304 270.988 161.968C270.604 162.624 270.064 163.14 269.368 163.516C268.672 163.892 267.872 164.08 266.968 164.08ZM278.95 178V168.496H275.17V166H285.802V168.496H282.022V178H278.95ZM293.679 178.36C292.375 178.36 291.231 178.096 290.247 177.568C289.263 177.032 288.495 176.288 287.943 175.336C287.399 174.384 287.127 173.276 287.127 172.012C287.127 171.084 287.283 170.232 287.595 169.456C287.915 168.68 288.363 168.008 288.939 167.44C289.523 166.864 290.203 166.42 290.979 166.108C291.763 165.796 292.619 165.64 293.547 165.64C294.555 165.64 295.455 165.82 296.247 166.18C297.039 166.532 297.695 167.032 298.215 167.68C298.743 168.32 299.111 169.072 299.319 169.936C299.535 170.792 299.563 171.728 299.403 172.744H290.019C290.011 173.376 290.159 173.928 290.463 174.4C290.775 174.872 291.215 175.244 291.783 175.516C292.359 175.78 293.035 175.912 293.811 175.912C294.499 175.912 295.159 175.812 295.791 175.612C296.423 175.412 297.011 175.116 297.555 174.724L298.635 176.872C298.259 177.176 297.791 177.44 297.231 177.664C296.671 177.888 296.079 178.06 295.455 178.18C294.839 178.3 294.247 178.36 293.679 178.36ZM290.199 170.56H296.427C296.403 169.752 296.135 169.12 295.623 168.664C295.111 168.2 294.395 167.968 293.475 167.968C292.563 167.968 291.811 168.2 291.219 168.664C290.627 169.12 290.287 169.752 290.199 170.56ZM307.799 178V166H310.871V170.524H316.403V166H319.475V178H316.403V173.02H310.871V178H307.799ZM326.346 178.36C325.53 178.36 324.806 178.204 324.174 177.892C323.542 177.58 323.046 177.14 322.686 176.572C322.326 175.996 322.146 175.316 322.146 174.532C322.146 173.86 322.314 173.26 322.65 172.732C322.986 172.204 323.502 171.768 324.198 171.424C324.894 171.072 325.782 170.836 326.862 170.716C327.95 170.596 329.238 170.612 330.726 170.764L330.774 172.792C329.798 172.64 328.946 172.572 328.218 172.588C327.49 172.604 326.886 172.688 326.406 172.84C325.934 172.992 325.578 173.2 325.338 173.464C325.106 173.728 324.99 174.036 324.99 174.388C324.99 174.916 325.182 175.324 325.566 175.612C325.95 175.892 326.474 176.032 327.138 176.032C327.706 176.032 328.214 175.928 328.662 175.72C329.118 175.512 329.478 175.22 329.742 174.844C330.006 174.46 330.138 174.008 330.138 173.488V170.452C330.138 169.948 330.03 169.512 329.814 169.144C329.606 168.768 329.286 168.48 328.854 168.28C328.422 168.072 327.866 167.968 327.186 167.968C326.562 167.968 325.942 168.064 325.326 168.256C324.718 168.44 324.146 168.728 323.61 169.12L322.782 166.924C323.542 166.42 324.342 166.06 325.182 165.844C326.022 165.628 326.834 165.52 327.618 165.52C328.738 165.52 329.706 165.696 330.522 166.048C331.346 166.4 331.978 166.94 332.418 167.668C332.866 168.388 333.09 169.304 333.09 170.416V178H330.378V176.632C329.978 177.184 329.426 177.612 328.722 177.916C328.018 178.212 327.226 178.36 326.346 178.36ZM336.487 178V166H339.127H339.199L344.407 173.656L343.087 173.68L348.019 166H350.719V178H347.971L348.007 169.504L348.595 169.744L344.563 175.732H342.655L338.419 169.732L338.995 169.492L339.043 178H336.487ZM360.018 178V166H363.09V170.524H368.622V166H371.694V178H368.622V173.02H363.09V178H360.018ZM378.565 178.36C377.749 178.36 377.025 178.204 376.393 177.892C375.761 177.58 375.265 177.14 374.905 176.572C374.545 175.996 374.365 175.316 374.365 174.532C374.365 173.86 374.533 173.26 374.869 172.732C375.205 172.204 375.721 171.768 376.417 171.424C377.113 171.072 378.001 170.836 379.081 170.716C380.169 170.596 381.457 170.612 382.945 170.764L382.993 172.792C382.017 172.64 381.165 172.572 380.437 172.588C379.709 172.604 379.105 172.688 378.625 172.84C378.153 172.992 377.797 173.2 377.557 173.464C377.325 173.728 377.209 174.036 377.209 174.388C377.209 174.916 377.401 175.324 377.785 175.612C378.169 175.892 378.693 176.032 379.357 176.032C379.925 176.032 380.433 175.928 380.881 175.72C381.337 175.512 381.697 175.22 381.961 174.844C382.225 174.46 382.357 174.008 382.357 173.488V170.452C382.357 169.948 382.249 169.512 382.033 169.144C381.825 168.768 381.505 168.48 381.073 168.28C380.641 168.072 380.085 167.968 379.405 167.968C378.781 167.968 378.161 168.064 377.545 168.256C376.937 168.44 376.365 168.728 375.829 169.12L375.001 166.924C375.761 166.42 376.561 166.06 377.401 165.844C378.241 165.628 379.053 165.52 379.837 165.52C380.957 165.52 381.925 165.696 382.741 166.048C383.565 166.4 384.197 166.94 384.637 167.668C385.085 168.388 385.309 169.304 385.309 170.416V178H382.597V176.632C382.197 177.184 381.645 177.612 380.941 177.916C380.237 178.212 379.445 178.36 378.565 178.36ZM394.471 178V166H406.135V178H403.063V168.496H397.543V178H394.471ZM415.238 178.36C413.958 178.36 412.822 178.072 411.83 177.496C410.846 176.912 410.074 176.14 409.514 175.18C408.954 174.212 408.674 173.152 408.674 172C408.674 171.152 408.834 170.344 409.154 169.576C409.474 168.808 409.926 168.132 410.51 167.548C411.102 166.956 411.798 166.492 412.598 166.156C413.398 165.812 414.278 165.64 415.238 165.64C416.51 165.64 417.638 165.928 418.622 166.504C419.614 167.08 420.39 167.852 420.95 168.82C421.518 169.788 421.802 170.848 421.802 172C421.802 172.848 421.638 173.656 421.31 174.424C420.99 175.184 420.538 175.86 419.954 176.452C419.37 177.044 418.678 177.512 417.878 177.856C417.078 178.192 416.198 178.36 415.238 178.36ZM415.226 175.672C415.906 175.672 416.51 175.524 417.038 175.228C417.574 174.924 417.994 174.5 418.298 173.956C418.602 173.404 418.754 172.752 418.754 172C418.754 171.248 418.602 170.596 418.298 170.044C417.994 169.492 417.578 169.068 417.05 168.772C416.522 168.476 415.918 168.328 415.238 168.328C414.558 168.328 413.95 168.476 413.414 168.772C412.886 169.068 412.47 169.492 412.166 170.044C411.87 170.596 411.722 171.248 411.722 172C411.722 172.752 411.874 173.404 412.178 173.956C412.482 174.5 412.898 174.924 413.426 175.228C413.954 175.524 414.554 175.672 415.226 175.672ZM424.331 178V166H427.283V175.504H431.915V166H434.867V175.504H439.499V166H442.451V178H424.331ZM448.567 178V168.496H444.787V166H455.419V168.496H451.639V178H448.567ZM459.388 183.376C458.916 183.376 458.452 183.324 457.996 183.22C457.54 183.116 457.1 182.948 456.676 182.716L457.36 180.112C457.608 180.264 457.884 180.38 458.188 180.46C458.492 180.54 458.768 180.58 459.016 180.58C459.528 180.58 459.944 180.46 460.264 180.22C460.584 179.988 460.828 179.616 460.996 179.104L461.32 178.144L456.616 166H459.964L463.06 174.94L466.072 166H469.324L464.212 179.548C463.828 180.524 463.392 181.288 462.904 181.84C462.416 182.4 461.876 182.796 461.284 183.028C460.7 183.26 460.068 183.376 459.388 183.376Z" fill="black"/>
<path d="M494.248 181.256C492.691 181.256 491.304 180.989 490.088 180.456C488.872 179.923 487.912 179.197 487.208 178.28C486.504 177.341 486.109 176.296 486.024 175.144H491.432C491.496 175.763 491.784 176.264 492.296 176.648C492.808 177.032 493.437 177.224 494.184 177.224C494.867 177.224 495.389 177.096 495.752 176.84C496.136 176.563 496.328 176.211 496.328 175.784C496.328 175.272 496.061 174.899 495.528 174.664C494.995 174.408 494.131 174.131 492.936 173.832C491.656 173.533 490.589 173.224 489.736 172.904C488.883 172.563 488.147 172.04 487.528 171.336C486.909 170.611 486.6 169.64 486.6 168.424C486.6 167.4 486.877 166.472 487.432 165.64C488.008 164.787 488.84 164.115 489.928 163.624C491.037 163.133 492.349 162.888 493.864 162.888C496.104 162.888 497.864 163.443 499.144 164.552C500.445 165.661 501.192 167.133 501.384 168.968H496.328C496.243 168.349 495.965 167.859 495.496 167.496C495.048 167.133 494.451 166.952 493.704 166.952C493.064 166.952 492.573 167.08 492.232 167.336C491.891 167.571 491.72 167.901 491.72 168.328C491.72 168.84 491.987 169.224 492.52 169.48C493.075 169.736 493.928 169.992 495.08 170.248C496.403 170.589 497.48 170.931 498.312 171.272C499.144 171.592 499.869 172.125 500.488 172.872C501.128 173.597 501.459 174.579 501.48 175.816C501.48 176.861 501.181 177.8 500.584 178.632C500.008 179.443 499.165 180.083 498.056 180.552C496.968 181.021 495.699 181.256 494.248 181.256ZM514.78 176.36V181H511.996C510.012 181 508.465 180.52 507.356 179.56C506.246 178.579 505.692 176.989 505.692 174.792V167.688H503.516V163.144H505.692V158.792H511.164V163.144H514.748V167.688H511.164V174.856C511.164 175.389 511.292 175.773 511.548 176.008C511.804 176.243 512.23 176.36 512.828 176.36H514.78ZM535.46 163.144V181H529.988V178.568C529.433 179.357 528.676 179.997 527.716 180.488C526.777 180.957 525.732 181.192 524.58 181.192C523.214 181.192 522.009 180.893 520.964 180.296C519.918 179.677 519.108 178.792 518.532 177.64C517.956 176.488 517.668 175.133 517.668 173.576V163.144H523.108V172.84C523.108 174.035 523.417 174.963 524.036 175.624C524.654 176.285 525.486 176.616 526.532 176.616C527.598 176.616 528.441 176.285 529.06 175.624C529.678 174.963 529.988 174.035 529.988 172.84V163.144H535.46ZM538.302 172.04C538.302 170.205 538.644 168.595 539.326 167.208C540.03 165.821 540.98 164.755 542.174 164.008C543.369 163.261 544.702 162.888 546.174 162.888C547.348 162.888 548.414 163.133 549.374 163.624C550.356 164.115 551.124 164.776 551.678 165.608V157.32H557.15V181H551.678V178.44C551.166 179.293 550.43 179.976 549.47 180.488C548.532 181 547.433 181.256 546.174 181.256C544.702 181.256 543.369 180.883 542.174 180.136C540.98 179.368 540.03 178.291 539.326 176.904C538.644 175.496 538.302 173.875 538.302 172.04ZM551.678 172.072C551.678 170.707 551.294 169.629 550.526 168.84C549.78 168.051 548.862 167.656 547.774 167.656C546.686 167.656 545.758 168.051 544.99 168.84C544.244 169.608 543.87 170.675 543.87 172.04C543.87 173.405 544.244 174.493 544.99 175.304C545.758 176.093 546.686 176.488 547.774 176.488C548.862 176.488 549.78 176.093 550.526 175.304C551.294 174.515 551.678 173.437 551.678 172.072ZM577.941 171.784C577.941 172.296 577.909 172.829 577.845 173.384H565.461C565.546 174.493 565.898 175.347 566.517 175.944C567.157 176.52 567.936 176.808 568.853 176.808C570.218 176.808 571.168 176.232 571.701 175.08H577.525C577.226 176.253 576.682 177.309 575.893 178.248C575.125 179.187 574.154 179.923 572.981 180.456C571.808 180.989 570.496 181.256 569.045 181.256C567.296 181.256 565.738 180.883 564.373 180.136C563.008 179.389 561.941 178.323 561.173 176.936C560.405 175.549 560.021 173.928 560.021 172.072C560.021 170.216 560.394 168.595 561.141 167.208C561.909 165.821 562.976 164.755 564.341 164.008C565.706 163.261 567.274 162.888 569.045 162.888C570.773 162.888 572.309 163.251 573.653 163.976C574.997 164.701 576.042 165.736 576.789 167.08C577.557 168.424 577.941 169.992 577.941 171.784ZM572.341 170.344C572.341 169.405 572.021 168.659 571.381 168.104C570.741 167.549 569.941 167.272 568.981 167.272C568.064 167.272 567.285 167.539 566.645 168.072C566.026 168.605 565.642 169.363 565.493 170.344H572.341ZM591.708 162.952C593.798 162.952 595.462 163.635 596.7 165C597.958 166.344 598.588 168.2 598.588 170.568V181H593.148V171.304C593.148 170.109 592.838 169.181 592.22 168.52C591.601 167.859 590.769 167.528 589.724 167.528C588.678 167.528 587.846 167.859 587.228 168.52C586.609 169.181 586.3 170.109 586.3 171.304V181H580.828V163.144H586.3V165.512C586.854 164.723 587.601 164.104 588.54 163.656C589.478 163.187 590.534 162.952 591.708 162.952ZM612.342 176.36V181H609.558C607.574 181 606.028 180.52 604.918 179.56C603.809 178.579 603.254 176.989 603.254 174.792V167.688H601.078V163.144H603.254V158.792H608.726V163.144H612.31V167.688H608.726V174.856C608.726 175.389 608.854 175.773 609.11 176.008C609.366 176.243 609.793 176.36 610.39 176.36H612.342ZM626.366 162.952C628.414 162.952 630.057 163.635 631.294 165C632.532 166.344 633.15 168.2 633.15 170.568V181H627.71V171.304C627.71 170.109 627.401 169.181 626.782 168.52C626.164 167.859 625.332 167.528 624.286 167.528C623.241 167.528 622.409 167.859 621.79 168.52C621.172 169.181 620.862 170.109 620.862 171.304V181H615.39V157.32H620.862V165.544C621.417 164.755 622.174 164.125 623.134 163.656C624.094 163.187 625.172 162.952 626.366 162.952ZM645.081 181.256C643.331 181.256 641.753 180.883 640.345 180.136C638.958 179.389 637.859 178.323 637.049 176.936C636.259 175.549 635.865 173.928 635.865 172.072C635.865 170.237 636.27 168.627 637.081 167.24C637.891 165.832 639.001 164.755 640.409 164.008C641.817 163.261 643.395 162.888 645.145 162.888C646.894 162.888 648.473 163.261 649.881 164.008C651.289 164.755 652.398 165.832 653.209 167.24C654.019 168.627 654.425 170.237 654.425 172.072C654.425 173.907 654.009 175.528 653.177 176.936C652.366 178.323 651.246 179.389 649.817 180.136C648.409 180.883 646.83 181.256 645.081 181.256ZM645.081 176.52C646.126 176.52 647.011 176.136 647.737 175.368C648.483 174.6 648.857 173.501 648.857 172.072C648.857 170.643 648.494 169.544 647.769 168.776C647.065 168.008 646.19 167.624 645.145 167.624C644.078 167.624 643.193 168.008 642.489 168.776C641.785 169.523 641.433 170.621 641.433 172.072C641.433 173.501 641.774 174.6 642.457 175.368C643.161 176.136 644.035 176.52 645.081 176.52ZM680.112 162.952C682.33 162.952 684.09 163.624 685.392 164.968C686.714 166.312 687.376 168.179 687.376 170.568V181H681.936V171.304C681.936 170.152 681.626 169.267 681.008 168.648C680.41 168.008 679.578 167.688 678.512 167.688C677.445 167.688 676.602 168.008 675.984 168.648C675.386 169.267 675.088 170.152 675.088 171.304V181H669.648V171.304C669.648 170.152 669.338 169.267 668.72 168.648C668.122 168.008 667.29 167.688 666.224 167.688C665.157 167.688 664.314 168.008 663.696 168.648C663.098 169.267 662.8 170.152 662.8 171.304V181H657.328V163.144H662.8V165.384C663.354 164.637 664.08 164.051 664.976 163.624C665.872 163.176 666.885 162.952 668.016 162.952C669.36 162.952 670.554 163.24 671.6 163.816C672.666 164.392 673.498 165.213 674.096 166.28C674.714 165.299 675.557 164.499 676.624 163.88C677.69 163.261 678.853 162.952 680.112 162.952ZM708.035 171.784C708.035 172.296 708.003 172.829 707.939 173.384H695.555C695.64 174.493 695.992 175.347 696.611 175.944C697.251 176.52 698.029 176.808 698.947 176.808C700.312 176.808 701.261 176.232 701.795 175.08H707.619C707.32 176.253 706.776 177.309 705.987 178.248C705.219 179.187 704.248 179.923 703.075 180.456C701.901 180.989 700.589 181.256 699.139 181.256C697.389 181.256 695.832 180.883 694.467 180.136C693.101 179.389 692.035 178.323 691.267 176.936C690.499 175.549 690.115 173.928 690.115 172.072C690.115 170.216 690.488 168.595 691.235 167.208C692.003 165.821 693.069 164.755 694.435 164.008C695.8 163.261 697.368 162.888 699.139 162.888C700.867 162.888 702.403 163.251 703.747 163.976C705.091 164.701 706.136 165.736 706.883 167.08C707.651 168.424 708.035 169.992 708.035 171.784ZM702.435 170.344C702.435 169.405 702.115 168.659 701.475 168.104C700.835 167.549 700.035 167.272 699.075 167.272C698.157 167.272 697.379 167.539 696.739 168.072C696.12 168.605 695.736 169.363 695.587 170.344H702.435ZM713.482 181.256C712.522 181.256 711.732 180.979 711.114 180.424C710.516 179.848 710.218 179.144 710.218 178.312C710.218 177.459 710.516 176.744 711.114 176.168C711.732 175.592 712.522 175.304 713.482 175.304C714.42 175.304 715.188 175.592 715.786 176.168C716.404 176.744 716.714 177.459 716.714 178.312C716.714 179.144 716.404 179.848 715.786 180.424C715.188 180.979 714.42 181.256 713.482 181.256ZM737.585 163.144V181H732.113V178.568C731.558 179.357 730.801 179.997 729.841 180.488C728.902 180.957 727.857 181.192 726.705 181.192C725.339 181.192 724.134 180.893 723.089 180.296C722.043 179.677 721.233 178.792 720.657 177.64C720.081 176.488 719.793 175.133 719.793 173.576V163.144H725.233V172.84C725.233 174.035 725.542 174.963 726.161 175.624C726.779 176.285 727.611 176.616 728.657 176.616C729.723 176.616 730.566 176.285 731.185 175.624C731.803 174.963 732.113 174.035 732.113 172.84V163.144H737.585ZM740.427 172.04C740.427 170.205 740.769 168.595 741.451 167.208C742.155 165.821 743.105 164.755 744.299 164.008C745.494 163.261 746.827 162.888 748.299 162.888C749.558 162.888 750.657 163.144 751.595 163.656C752.555 164.168 753.291 164.84 753.803 165.672V163.144H759.275V181H753.803V178.472C753.27 179.304 752.523 179.976 751.563 180.488C750.625 181 749.526 181.256 748.267 181.256C746.817 181.256 745.494 180.883 744.299 180.136C743.105 179.368 742.155 178.291 741.451 176.904C740.769 175.496 740.427 173.875 740.427 172.04ZM753.803 172.072C753.803 170.707 753.419 169.629 752.651 168.84C751.905 168.051 750.987 167.656 749.899 167.656C748.811 167.656 747.883 168.051 747.115 168.84C746.369 169.608 745.995 170.675 745.995 172.04C745.995 173.405 746.369 174.493 747.115 175.304C747.883 176.093 748.811 176.488 749.899 176.488C750.987 176.488 751.905 176.093 752.651 175.304C753.419 174.515 753.803 173.437 753.803 172.072ZM781.026 159.624C783.543 159.624 785.741 160.104 787.618 161.064C789.495 162.003 790.935 163.336 791.938 165.064C792.962 166.771 793.474 168.744 793.474 170.984C793.474 172.797 793.154 174.483 792.514 176.04C791.895 177.597 790.967 178.845 789.73 179.784C788.514 180.701 787.063 181.16 785.378 181.16C784.247 181.16 783.309 180.936 782.562 180.488C781.837 180.04 781.346 179.411 781.09 178.6C780.493 179.432 779.725 180.083 778.786 180.552C777.847 181 776.823 181.224 775.714 181.224C774.135 181.224 772.887 180.755 771.97 179.816C771.074 178.856 770.626 177.555 770.626 175.912C770.626 174.355 770.946 172.893 771.586 171.528C772.226 170.141 773.111 169.032 774.242 168.2C775.373 167.368 776.642 166.952 778.05 166.952C779.842 166.952 781.058 167.592 781.698 168.872L781.986 167.176H786.402L784.994 175.208C784.93 175.592 784.898 175.933 784.898 176.232C784.898 177.171 785.314 177.64 786.146 177.64C787.17 177.64 787.949 176.989 788.482 175.688C789.037 174.365 789.314 172.851 789.314 171.144C789.314 168.691 788.535 166.771 786.978 165.384C785.442 163.997 783.277 163.304 780.482 163.304C778.093 163.304 775.917 163.88 773.954 165.032C772.013 166.184 770.487 167.763 769.378 169.768C768.269 171.752 767.714 173.939 767.714 176.328C767.714 178.909 768.461 180.915 769.954 182.344C771.469 183.773 773.581 184.488 776.29 184.488C778.402 184.488 780.29 184.104 781.954 183.336L782.818 186.824C780.727 187.741 778.381 188.2 775.778 188.2C773.346 188.2 771.202 187.731 769.346 186.792C767.511 185.853 766.093 184.52 765.09 182.792C764.087 181.064 763.586 179.048 763.586 176.744C763.586 173.523 764.343 170.611 765.858 168.008C767.373 165.384 769.453 163.336 772.098 161.864C774.765 160.371 777.741 159.624 781.026 159.624ZM777.506 177.288C778.103 177.288 778.658 177.107 779.17 176.744C779.703 176.381 780.119 175.901 780.418 175.304C780.738 174.685 780.898 174.024 780.898 173.32C780.898 172.595 780.695 172.008 780.29 171.56C779.885 171.091 779.33 170.856 778.626 170.856C777.687 170.856 776.909 171.261 776.29 172.072C775.671 172.883 775.362 173.843 775.362 174.952C775.362 175.656 775.543 176.221 775.906 176.648C776.269 177.075 776.802 177.288 777.506 177.288ZM804.581 162.888C805.839 162.888 806.938 163.144 807.877 163.656C808.837 164.168 809.573 164.84 810.085 165.672V163.144H815.557V180.968C815.557 182.611 815.226 184.093 814.565 185.416C813.925 186.76 812.933 187.827 811.589 188.616C810.266 189.405 808.613 189.8 806.629 189.8C803.983 189.8 801.839 189.171 800.197 187.912C798.554 186.675 797.615 184.989 797.381 182.856H802.789C802.959 183.539 803.365 184.072 804.005 184.456C804.645 184.861 805.434 185.064 806.373 185.064C807.503 185.064 808.399 184.733 809.061 184.072C809.743 183.432 810.085 182.397 810.085 180.968V178.44C809.551 179.272 808.815 179.955 807.877 180.488C806.938 181 805.839 181.256 804.581 181.256C803.109 181.256 801.775 180.883 800.581 180.136C799.386 179.368 798.437 178.291 797.733 176.904C797.05 175.496 796.709 173.875 796.709 172.04C796.709 170.205 797.05 168.595 797.733 167.208C798.437 165.821 799.386 164.755 800.581 164.008C801.775 163.261 803.109 162.888 804.581 162.888ZM810.085 172.072C810.085 170.707 809.701 169.629 808.933 168.84C808.186 168.051 807.269 167.656 806.181 167.656C805.093 167.656 804.165 168.051 803.397 168.84C802.65 169.608 802.277 170.675 802.277 172.04C802.277 173.405 802.65 174.493 803.397 175.304C804.165 176.093 805.093 176.488 806.181 176.488C807.269 176.488 808.186 176.093 808.933 175.304C809.701 174.515 810.085 173.437 810.085 172.072ZM842.299 162.952C844.518 162.952 846.278 163.624 847.579 164.968C848.902 166.312 849.563 168.179 849.563 170.568V181H844.123V171.304C844.123 170.152 843.814 169.267 843.195 168.648C842.598 168.008 841.766 167.688 840.699 167.688C839.633 167.688 838.79 168.008 838.171 168.648C837.574 169.267 837.275 170.152 837.275 171.304V181H831.835V171.304C831.835 170.152 831.526 169.267 830.907 168.648C830.31 168.008 829.478 167.688 828.411 167.688C827.345 167.688 826.502 168.008 825.883 168.648C825.286 169.267 824.987 170.152 824.987 171.304V181H819.515V163.144H824.987V165.384C825.542 164.637 826.267 164.051 827.163 163.624C828.059 163.176 829.073 162.952 830.203 162.952C831.547 162.952 832.742 163.24 833.787 163.816C834.854 164.392 835.686 165.213 836.283 166.28C836.902 165.299 837.745 164.499 838.811 163.88C839.878 163.261 841.041 162.952 842.299 162.952ZM852.302 172.04C852.302 170.205 852.644 168.595 853.326 167.208C854.03 165.821 854.98 164.755 856.174 164.008C857.369 163.261 858.702 162.888 860.174 162.888C861.433 162.888 862.532 163.144 863.47 163.656C864.43 164.168 865.166 164.84 865.678 165.672V163.144H871.15V181H865.678V178.472C865.145 179.304 864.398 179.976 863.438 180.488C862.5 181 861.401 181.256 860.142 181.256C858.692 181.256 857.369 180.883 856.174 180.136C854.98 179.368 854.03 178.291 853.326 176.904C852.644 175.496 852.302 173.875 852.302 172.04ZM865.678 172.072C865.678 170.707 865.294 169.629 864.526 168.84C863.78 168.051 862.862 167.656 861.774 167.656C860.686 167.656 859.758 168.051 858.99 168.84C858.244 169.608 857.87 170.675 857.87 172.04C857.87 173.405 858.244 174.493 858.99 175.304C859.758 176.093 860.686 176.488 861.774 176.488C862.862 176.488 863.78 176.093 864.526 175.304C865.294 174.515 865.678 173.437 865.678 172.072ZM877.861 161.288C876.901 161.288 876.112 161.011 875.493 160.456C874.896 159.88 874.597 159.176 874.597 158.344C874.597 157.491 874.896 156.787 875.493 156.232C876.112 155.656 876.901 155.368 877.861 155.368C878.8 155.368 879.568 155.656 880.165 156.232C880.784 156.787 881.093 157.491 881.093 158.344C881.093 159.176 880.784 159.88 880.165 160.456C879.568 161.011 878.8 161.288 877.861 161.288ZM880.581 163.144V181H875.109V163.144H880.581ZM890.019 157.32V181H884.547V157.32H890.019ZM896.544 181.256C895.584 181.256 894.795 180.979 894.176 180.424C893.579 179.848 893.28 179.144 893.28 178.312C893.28 177.459 893.579 176.744 894.176 176.168C894.795 175.592 895.584 175.304 896.544 175.304C897.483 175.304 898.251 175.592 898.848 176.168C899.467 176.744 899.776 177.459 899.776 178.312C899.776 179.144 899.467 179.848 898.848 180.424C898.251 180.979 897.483 181.256 896.544 181.256ZM901.927 172.072C901.927 170.216 902.301 168.595 903.047 167.208C903.815 165.821 904.871 164.755 906.215 164.008C907.581 163.261 909.138 162.888 910.887 162.888C913.127 162.888 914.994 163.475 916.487 164.648C918.002 165.821 918.994 167.475 919.463 169.608H913.639C913.149 168.243 912.199 167.56 910.791 167.56C909.789 167.56 908.989 167.955 908.391 168.744C907.794 169.512 907.495 170.621 907.495 172.072C907.495 173.523 907.794 174.643 908.391 175.432C908.989 176.2 909.789 176.584 910.791 176.584C912.199 176.584 913.149 175.901 913.639 174.536H919.463C918.994 176.627 918.002 178.269 916.487 179.464C914.973 180.659 913.106 181.256 910.887 181.256C909.138 181.256 907.581 180.883 906.215 180.136C904.871 179.389 903.815 178.323 903.047 176.936C902.301 175.549 901.927 173.928 901.927 172.072ZM930.518 181.256C928.769 181.256 927.19 180.883 925.782 180.136C924.396 179.389 923.297 178.323 922.486 176.936C921.697 175.549 921.302 173.928 921.302 172.072C921.302 170.237 921.708 168.627 922.518 167.24C923.329 165.832 924.438 164.755 925.846 164.008C927.254 163.261 928.833 162.888 930.582 162.888C932.332 162.888 933.91 163.261 935.318 164.008C936.726 164.755 937.836 165.832 938.646 167.24C939.457 168.627 939.862 170.237 939.862 172.072C939.862 173.907 939.446 175.528 938.614 176.936C937.804 178.323 936.684 179.389 935.254 180.136C933.846 180.883 932.268 181.256 930.518 181.256ZM930.518 176.52C931.564 176.52 932.449 176.136 933.174 175.368C933.921 174.6 934.294 173.501 934.294 172.072C934.294 170.643 933.932 169.544 933.206 168.776C932.502 168.008 931.628 167.624 930.582 167.624C929.516 167.624 928.63 168.008 927.926 168.776C927.222 169.523 926.87 170.621 926.87 172.072C926.87 173.501 927.212 174.6 927.894 175.368C928.598 176.136 929.473 176.52 930.518 176.52ZM965.549 162.952C967.768 162.952 969.528 163.624 970.829 164.968C972.152 166.312 972.813 168.179 972.813 170.568V181H967.373V171.304C967.373 170.152 967.064 169.267 966.445 168.648C965.848 168.008 965.016 167.688 963.949 167.688C962.883 167.688 962.04 168.008 961.421 168.648C960.824 169.267 960.525 170.152 960.525 171.304V181H955.085V171.304C955.085 170.152 954.776 169.267 954.157 168.648C953.56 168.008 952.728 167.688 951.661 167.688C950.595 167.688 949.752 168.008 949.133 168.648C948.536 169.267 948.237 170.152 948.237 171.304V181H942.765V163.144H948.237V165.384C948.792 164.637 949.517 164.051 950.413 163.624C951.309 163.176 952.323 162.952 953.453 162.952C954.797 162.952 955.992 163.24 957.037 163.816C958.104 164.392 958.936 165.213 959.533 166.28C960.152 165.299 960.995 164.499 962.061 163.88C963.128 163.261 964.291 162.952 965.549 162.952Z" fill="black"/>
<path d="M998 170L1006.8 142.508L1026.21 163.879L998 170ZM999.493 -0.00529701C1001.58 1.55148 1003.62 3.09345 1005.61 4.62169L1002.56 8.58418C1000.6 7.07317 998.578 5.54724 996.507 4.0053L999.493 -0.00529701ZM1017.57 14.2022C1021.69 17.6514 1025.52 21.0407 1029.05 24.3839L1025.62 28.018C1022.16 24.7525 1018.41 21.4296 1014.36 18.0351L1017.57 14.2022ZM1039.8 35.4183C1043.44 39.541 1046.63 43.6246 1049.33 47.6976L1045.16 50.4626C1042.61 46.6109 1039.57 42.7096 1036.05 38.7312L1039.8 35.4183ZM1056.66 61.5649C1058.66 66.6651 1059.89 71.7951 1060.32 77.0027L1055.34 77.417C1054.95 72.7261 1053.84 68.07 1052.01 63.3888L1056.66 61.5649ZM1059.23 92.8357C1058.17 97.7136 1056.45 102.655 1054.09 107.698L1049.56 105.576C1051.79 100.826 1053.37 96.24 1054.34 91.7744L1059.23 92.8357ZM1046.39 121.216C1043.71 125.263 1040.64 129.398 1037.19 133.64L1033.31 130.486C1036.67 126.35 1039.64 122.345 1042.23 118.451L1046.39 121.216ZM1027.1 145.21C1023.8 148.775 1020.24 152.423 1016.44 156.163L1012.93 152.599C1016.69 148.906 1020.19 145.313 1023.44 141.81L1027.1 145.21ZM998 170L1006.8 142.508L1026.21 163.879L998 170ZM999.493 -0.00529701C1001.58 1.55148 1003.62 3.09345 1005.61 4.62169L1002.56 8.58418C1000.6 7.07317 998.578 5.54724 996.507 4.0053L999.493 -0.00529701ZM1017.57 14.2022C1021.69 17.6514 1025.52 21.0407 1029.05 24.3839L1025.62 28.018C1022.16 24.7525 1018.41 21.4296 1014.36 18.0351L1017.57 14.2022ZM1039.8 35.4183C1043.44 39.541 1046.63 43.6246 1049.33 47.6976L1045.16 50.4626C1042.61 46.6109 1039.57 42.7096 1036.05 38.7312L1039.8 35.4183ZM1056.66 61.5649C1058.66 66.6651 1059.89 71.7951 1060.32 77.0027L1055.34 77.417C1054.95 72.7261 1053.84 68.07 1052.01 63.3888L1056.66 61.5649ZM1059.23 92.8357C1058.17 97.7136 1056.45 102.655 1054.09 107.698L1049.56 105.576C1051.79 100.826 1053.37 96.24 1054.34 91.7744L1059.23 92.8357ZM1046.39 121.216C1043.71 125.263 1040.64 129.398 1037.19 133.64L1033.31 130.486C1036.67 126.35 1039.64 122.345 1042.23 118.451L1046.39 121.216ZM1027.1 145.21C1023.8 148.775 1020.24 152.423 1016.44 156.163L1012.93 152.599C1016.69 148.906 1020.19 145.313 1023.44 141.81L1027.1 145.21Z" fill="#077F00"/>
</svg>
