<svg width="250" height="250" viewBox="0 0 250 250" fill="none" xmlns="http://www.w3.org/2000/svg">
<g opacity="0.25">
<path d="M125 128L201.133 180.345C201.676 180.718 202 181.335 202 181.993V227.5C202 227.776 201.776 228 201.5 228H48.5C48.2239 228 48 227.776 48 227.5V181.993C48 181.335 48.3242 180.718 48.8669 180.345L125 128ZM125 128L201.133 75.6549C201.676 75.2817 202 74.6654 202 74.0068V28.5C202 28.2239 201.776 28 201.5 28H48.5C48.2239 28 48 28.2239 48 28.5V74.0068C48 74.6654 48.3242 75.2817 48.8669 75.6549L125 128Z" stroke="#077F00" stroke-width="10" stroke-linecap="round" stroke-linejoin="round"/>
<path d="M167 200.77V227.85C167 227.933 166.933 228 166.85 228H83.15C83.0672 228 83 227.933 83 227.85V200.77C83 200.602 83.085 200.444 83.2261 200.352L124.562 173.287C124.828 173.113 125.172 173.113 125.438 173.287L166.774 200.352C166.915 200.444 167 200.602 167 200.77Z" fill="#077F00"/>
</g>
</svg>
