<svg width="100" height="100" viewBox="0 0 100 100" fill="none" xmlns="http://www.w3.org/2000/svg">
<path d="M50.0163 0C29.1418 0 23.0368 0.0215403 21.8501 0.12001C17.5663 0.476194 14.9006 1.15087 11.9965 2.59714C9.75851 3.70878 7.99345 4.99735 6.25147 6.80365C3.07899 10.0978 1.15628 14.1504 0.460255 18.9678C0.121857 21.3064 0.0234144 21.7834 0.00341816 33.729C-0.0042727 37.7109 0.00341816 42.9513 0.00341816 49.9804C0.00341816 70.8437 0.0264908 76.9442 0.126472 78.1289C0.472561 82.2985 1.12628 84.9218 2.51064 87.7913C5.1563 93.284 10.2092 97.4075 16.1619 98.9461C18.2231 99.4769 20.4996 99.7692 23.4221 99.9077C24.6603 99.9615 37.281 100 49.9094 100C62.5378 100 75.1662 99.9846 76.3737 99.9231C79.7577 99.7638 81.7227 99.5 83.8953 98.9384C86.8469 98.1812 89.5977 96.7887 91.9556 94.8581C94.3135 92.9274 96.2216 90.5052 97.5466 87.7605C98.9041 84.9603 99.5924 82.237 99.9039 78.2851C99.9715 77.4235 100 63.6862 100 49.9673C100 36.2461 99.9692 22.5342 99.9016 21.6726C99.5862 17.6569 98.8979 14.9566 97.4966 12.1026C96.3468 9.76621 95.0702 8.02145 93.2167 6.23745C89.9096 3.07718 85.8642 1.15394 81.0428 0.4585C78.7071 0.120779 78.2418 0.020771 66.2902 0H50.0163Z" fill="url(#paint0_radial_308_2435)"/>
<path d="M50.0163 0C29.1418 0 23.0368 0.0215403 21.8501 0.12001C17.5663 0.476194 14.9006 1.15087 11.9965 2.59714C9.75851 3.70878 7.99345 4.99735 6.25147 6.80365C3.07899 10.0978 1.15628 14.1504 0.460255 18.9678C0.121857 21.3064 0.0234144 21.7834 0.00341816 33.729C-0.0042727 37.7109 0.00341816 42.9513 0.00341816 49.9804C0.00341816 70.8437 0.0264908 76.9442 0.126472 78.1289C0.472561 82.2985 1.12628 84.9218 2.51064 87.7913C5.1563 93.284 10.2092 97.4075 16.1619 98.9461C18.2231 99.4769 20.4996 99.7692 23.4221 99.9077C24.6603 99.9615 37.281 100 49.9094 100C62.5378 100 75.1662 99.9846 76.3737 99.9231C79.7577 99.7638 81.7227 99.5 83.8953 98.9384C86.8469 98.1812 89.5977 96.7887 91.9556 94.8581C94.3135 92.9274 96.2216 90.5052 97.5466 87.7605C98.9041 84.9603 99.5924 82.237 99.9039 78.2851C99.9715 77.4235 100 63.6862 100 49.9673C100 36.2461 99.9692 22.5342 99.9016 21.6726C99.5862 17.6569 98.8979 14.9566 97.4966 12.1026C96.3468 9.76621 95.0702 8.02145 93.2167 6.23745C89.9096 3.07718 85.8642 1.15394 81.0428 0.4585C78.7071 0.120779 78.2418 0.020771 66.2902 0H50.0163Z" fill="url(#paint1_radial_308_2435)"/>
<path d="M49.9966 13.0781C39.9708 13.0781 38.7125 13.122 34.7748 13.3012C30.8448 13.4812 28.1622 14.1036 25.815 15.0168C23.387 15.9599 21.3273 17.2216 19.2754 19.2748C17.222 21.3273 15.9607 23.3875 15.0147 25.8154C14.0995 28.164 13.4765 30.8481 13.2996 34.7777C13.1243 38.7164 13.0781 39.9758 13.0781 50.0043C13.0781 60.0329 13.1227 61.2876 13.3012 65.2264C13.4819 69.1575 14.1041 71.8408 15.0162 74.1887C15.9599 76.6173 17.2212 78.6775 19.2739 80.73C21.325 82.784 23.3846 84.0488 25.8111 84.9919C28.1599 85.9051 30.8432 86.5274 34.7725 86.7074C38.7102 86.8867 39.9677 86.9305 49.9927 86.9305C60.0193 86.9305 61.2737 86.8867 65.2114 86.7074C69.1414 86.5274 71.8271 85.9051 74.1759 84.9919C76.6031 84.0488 78.6596 82.784 80.7108 80.73C82.7643 78.6775 84.0256 76.6173 84.9715 74.1894C85.8791 71.8408 86.502 69.1567 86.6866 65.2272C86.8635 61.2884 86.9096 60.0329 86.9096 50.0043C86.9096 39.9758 86.8635 38.7172 86.6866 34.7784C86.502 30.8473 85.8791 28.164 84.9715 25.8161C84.0256 23.3875 82.7643 21.3273 80.7108 19.2748C78.6573 17.2208 76.6039 15.9591 74.1736 15.0168C71.8202 14.1036 69.1361 13.4812 65.206 13.3012C61.2683 13.122 60.0147 13.0781 49.9858 13.0781H49.9966ZM46.6849 19.7325C47.6678 19.731 48.7645 19.7325 49.9966 19.7325C59.8532 19.7325 61.0214 19.7679 64.9138 19.9449C68.5131 20.1095 70.4666 20.7111 71.7679 21.2165C73.4906 21.8858 74.7188 22.6859 76.0101 23.9783C77.3022 25.2707 78.1021 26.5016 78.7727 28.2248C79.278 29.5249 79.8802 31.4789 80.044 35.0792C80.2209 38.9719 80.2593 40.1412 80.2593 49.9959C80.2593 59.8505 80.2209 61.0199 80.044 64.9125C79.8794 68.5128 79.278 70.4668 78.7727 71.7669C78.1036 73.4902 77.3022 74.7172 76.0101 76.0088C74.7181 77.3012 73.4914 78.1013 71.7679 78.7706C70.4681 79.2783 68.5131 79.8784 64.9138 80.043C61.0222 80.22 59.8532 80.2584 49.9966 80.2584C40.1392 80.2584 38.9709 80.22 35.0794 80.043C31.48 79.8768 29.5266 79.2753 28.2245 78.7698C26.5018 78.1005 25.2712 77.3005 23.9792 76.0081C22.6871 74.7156 21.8872 73.4879 21.2166 71.7639C20.7113 70.4638 20.1091 68.5097 19.9453 64.9094C19.7684 61.0168 19.733 59.8475 19.733 49.9866C19.733 40.1258 19.7684 38.9626 19.9453 35.07C20.1099 31.4697 20.7113 29.5157 21.2166 28.214C21.8857 26.4908 22.6871 25.2599 23.9792 23.9675C25.2712 22.6751 26.5018 21.875 28.2245 21.2042C29.5258 20.6965 31.48 20.0964 35.0794 19.931C38.4849 19.7772 39.8046 19.731 46.6849 19.7233V19.7325ZM69.7021 25.8638C68.8259 25.8638 67.9693 26.1237 67.2408 26.6107C66.5123 27.0977 65.9445 27.7898 65.6092 28.5996C65.274 29.4094 65.1863 30.3004 65.3574 31.16C65.5284 32.0196 65.9505 32.8092 66.5702 33.4288C67.1899 34.0484 67.9794 34.4704 68.8388 34.6412C69.6982 34.812 70.589 34.724 71.3984 34.3884C72.2079 34.0527 72.8996 33.4846 73.3862 32.7557C73.8728 32.0268 74.1323 31.1699 74.132 30.2934C74.132 27.8471 72.1478 25.8623 69.7021 25.8623V25.8638ZM49.9966 31.0412C39.527 31.0412 31.0386 39.5319 31.0386 50.0043C31.0386 60.4767 39.527 68.9636 49.9966 68.9636C60.4661 68.9636 68.9522 60.4767 68.9522 50.0043C68.9522 39.5319 60.4654 31.0412 49.9958 31.0412H49.9966ZM49.9966 37.6956C56.7922 37.6956 62.3019 43.2061 62.3019 50.0043C62.3019 56.8018 56.7922 62.3131 49.9966 62.3131C43.2002 62.3131 37.6912 56.8018 37.6912 50.0043C37.6912 43.2061 43.2002 37.6956 49.9966 37.6956Z" fill="white"/>
<defs>
<radialGradient id="paint0_radial_308_2435" cx="0" cy="0" r="1" gradientUnits="userSpaceOnUse" gradientTransform="translate(26.5626 107.702) rotate(-90) scale(99.1074 92.1777)">
<stop stop-color="#FFDD55"/>
<stop offset="0.1" stop-color="#FFDD55"/>
<stop offset="0.5" stop-color="#FF543E"/>
<stop offset="1" stop-color="#C837AB"/>
</radialGradient>
<radialGradient id="paint1_radial_308_2435" cx="0" cy="0" r="1" gradientUnits="userSpaceOnUse" gradientTransform="translate(-16.7505 7.20383) rotate(78.6806) scale(44.3014 182.612)">
<stop stop-color="#3771C8"/>
<stop offset="0.128" stop-color="#3771C8"/>
<stop offset="1" stop-color="#6600FF" stop-opacity="0"/>
</radialGradient>
</defs>
</svg>
