<svg width="48" height="49" viewBox="0 0 48 49" fill="none" xmlns="http://www.w3.org/2000/svg">
<path d="M20.6169 14.9397C21.9011 11.7384 22.5432 10.1377 23.5863 9.91582C23.8606 9.85749 24.1441 9.85749 24.4184 9.91582C25.4615 10.1377 26.1036 11.7384 27.3878 14.9397C28.118 16.7603 28.4832 17.6706 29.1664 18.2897C29.358 18.4634 29.5661 18.618 29.7875 18.7515C30.5772 19.2275 31.563 19.3158 33.5346 19.4923C36.8721 19.7912 38.5409 19.9407 39.0505 20.8922C39.156 21.0892 39.2278 21.3026 39.2628 21.5234C39.4317 22.5894 38.2049 23.7056 35.7513 25.9378L35.07 26.5577C33.9229 27.6013 33.3494 28.1231 33.0176 28.7743C32.8186 29.1649 32.6852 29.5856 32.6227 30.0196C32.5184 30.7429 32.6864 31.4999 33.0223 33.0139L33.1423 33.5548C33.7447 36.2699 34.0459 37.6274 33.6699 38.2947C33.3322 38.8941 32.7101 39.2778 32.0229 39.3106C31.2578 39.3471 30.1799 38.4687 28.0239 36.712C26.6035 35.5545 25.8933 34.9758 25.1049 34.7497C24.3844 34.5431 23.6203 34.5431 22.8998 34.7497C22.1114 34.9758 21.4012 35.5545 19.9808 36.712C17.8248 38.4687 16.7469 39.3471 15.9818 39.3106C15.2946 39.2778 14.6725 38.8941 14.3348 38.2947C13.9588 37.6274 14.26 36.2699 14.8624 33.5548L14.9824 33.0139C15.3183 31.4999 15.4863 30.7429 15.382 30.0196C15.3195 29.5856 15.1861 29.1649 14.9871 28.7743C14.6553 28.1231 14.0818 27.6013 12.9347 26.5577L12.2534 25.9378C9.79978 23.7056 8.57299 22.5894 8.74194 21.5234C8.77693 21.3026 8.84869 21.0892 8.95423 20.8922C9.46383 19.9407 11.1326 19.7912 14.4701 19.4923C16.4417 19.3158 17.4275 19.2275 18.2171 18.7515C18.4386 18.618 18.6467 18.4634 18.8383 18.2897C19.5215 17.6706 19.8867 16.7603 20.6169 14.9397Z" fill="#FFC81A" stroke="#FFC81A" stroke-width="2"/>
</svg>
