<svg width="365" height="365" viewBox="0 0 365 365" fill="none" xmlns="http://www.w3.org/2000/svg">
<path d="M244.242 87.1986C244.242 87.1986 206.187 65.9118 162.525 82.0886C118.864 98.2654 91.0365 140.343 67.6254 173.857C44.2143 207.371 47.7767 246.127 75.2393 268.202C102.702 290.277 127.595 268.859 170.38 274.889C213.165 280.919 223.583 288.949 263.01 270.91C302.437 252.872 318.49 197.18 297.802 150.46C277.113 103.74 244.242 87.1986 244.242 87.1986Z" fill="#24A1DE"/>
<path opacity="0.8" d="M244.242 87.1986C244.242 87.1986 206.187 65.9118 162.525 82.0886C118.864 98.2654 91.0365 140.343 67.6254 173.857C44.2143 207.371 47.7767 246.127 75.2393 268.202C102.702 290.277 127.595 268.859 170.38 274.889C213.165 280.919 223.583 288.949 263.01 270.91C302.437 252.872 318.49 197.18 297.802 150.46C277.113 103.74 244.242 87.1986 244.242 87.1986Z" fill="white"/>
<path d="M158.407 213.547C158.407 213.547 158.998 196.654 158.407 194.567C157.816 192.479 141.515 177.974 141.515 177.974C141.515 177.974 137.069 147.744 129.368 140.926L66.5365 148.635C66.5365 148.635 62.0908 152.789 62.3901 166.155C62.6894 179.521 63.2807 185.712 60.0176 191.639C56.7545 197.567 53.4987 215.058 59.7256 223.949C65.9525 232.841 68.0184 234.899 73.654 234.614C79.2896 234.33 158.407 213.547 158.407 213.547Z" fill="#24A1DE"/>
<path opacity="0.7" d="M158.407 213.547C158.407 213.547 158.998 196.654 158.407 194.567C157.816 192.479 141.515 177.974 141.515 177.974C141.515 177.974 137.069 147.744 129.368 140.926L66.5365 148.635C66.5365 148.635 62.0908 152.789 62.3901 166.155C62.6894 179.521 63.2807 185.712 60.0176 191.639C56.7545 197.567 53.4987 215.058 59.7256 223.949C65.9525 232.841 68.0184 234.899 73.654 234.614C79.2896 234.33 158.407 213.547 158.407 213.547Z" fill="white"/>
<path d="M158.408 194.574L55.2812 214.73C55.2812 214.73 57.3544 237.257 71.5821 235.17C85.8098 233.082 159.007 216.503 158.715 215.022C158.423 213.54 158.408 194.574 158.408 194.574Z" fill="#24A1DE"/>
<path opacity="0.5" d="M158.408 194.574L55.2812 214.73C55.2812 214.73 57.3544 237.257 71.5821 235.17C85.8098 233.082 159.007 216.503 158.715 215.022C158.423 213.54 158.408 194.574 158.408 194.574Z" fill="white"/>
<path d="M264.351 151.264C264.351 151.264 262.067 213.839 264.351 214.817C266.636 215.796 289.77 208.977 290.748 207.32C291.726 205.663 295.96 144.752 290.748 144.752C285.536 144.752 264.351 151.264 264.351 151.264Z" fill="#24A1DE"/>
<path d="M262.07 151.592C264.026 152.899 262.398 210.904 258.485 215.467C254.573 220.029 224.263 225.899 223.613 222.636C222.964 219.372 223.942 138.233 223.942 138.233C223.942 138.233 260.113 150.292 262.07 151.592ZM290.751 144.752C290.751 144.752 258.814 130.736 253.594 131.064C248.375 131.393 220.358 135.948 223.942 139.861C227.526 143.774 259.464 150.942 264.355 151.263C269.246 151.585 290.751 144.752 290.751 144.752Z" fill="#24A1DE"/>
<path opacity="0.5" d="M264.351 151.264C264.351 151.264 262.067 213.839 264.351 214.817C266.636 215.796 289.77 208.977 290.748 207.32C291.726 205.663 295.96 144.752 290.748 144.752C285.536 144.752 264.351 151.264 264.351 151.264Z" fill="white"/>
<path opacity="0.7" d="M262.07 151.592C264.026 152.899 262.398 210.904 258.485 215.467C254.573 220.029 224.263 225.899 223.613 222.636C222.964 219.372 223.942 138.233 223.942 138.233C223.942 138.233 260.113 150.292 262.07 151.592ZM290.751 144.752C290.751 144.752 258.814 130.736 253.594 131.064C248.375 131.393 220.358 135.948 223.942 139.861C227.526 143.774 259.464 150.942 264.355 151.263C269.246 151.585 290.751 144.752 290.751 144.752Z" fill="white"/>
<path d="M69.6406 148.19C69.6406 148.19 109.499 141.62 129.939 140.89C137.239 148.19 139.319 167.71 141.144 177.2C141.144 177.2 158.409 193.552 158.409 194.91C158.409 196.268 158.898 216.81 158.898 216.81" stroke="#263238" stroke-linecap="round" stroke-linejoin="round"/>
<path d="M145.758 81.519V181.281" stroke="#263238" stroke-linecap="round" stroke-linejoin="round"/>
<path d="M60.9453 190.91L107.059 183.412L140.333 177.2" stroke="#263238" stroke-linecap="round" stroke-linejoin="round"/>
<path d="M54.9531 214.328L154.16 195.362" stroke="#263238" stroke-linecap="round" stroke-linejoin="round"/>
<path d="M88.3281 186.515C88.3281 186.515 104.388 202.575 104.023 204.765L103.293 227.76" stroke="#263238" stroke-linecap="round" stroke-linejoin="round"/>
<path d="M69.4844 235.579L153.069 217.321" stroke="#263238" stroke-linecap="round" stroke-linejoin="round"/>
<path d="M224.477 181.405V138.7L261.707 151.475V209.875" stroke="#263238" stroke-linecap="round" stroke-linejoin="round"/>
<path d="M224.109 185.179V225.57" stroke="#263238" stroke-linecap="round" stroke-linejoin="round"/>
<path d="M261.703 151.475L291.633 144.175V204.4" stroke="#263238" stroke-linecap="round" stroke-linejoin="round"/>
<path d="M224.477 138.7L256.597 131.765L291.637 144.175L261.707 151.475L224.477 138.7Z" stroke="#263238" stroke-linecap="round" stroke-linejoin="round"/>
<path d="M241.992 144.905V218.759" stroke="#263238" stroke-linecap="round" stroke-linejoin="round"/>
<path d="M246.423 179.156C246.423 180.514 245.824 181.616 245.094 181.616C244.364 181.616 243.766 180.514 243.766 179.156C243.766 177.799 244.357 176.696 245.094 176.696C245.832 176.696 246.423 177.799 246.423 179.156Z" fill="#263238"/>
<path d="M240.166 176.879C240.166 178.244 239.574 179.346 238.837 179.346C238.1 179.346 237.516 178.244 237.516 176.879C237.516 175.514 238.107 174.419 238.837 174.419C239.567 174.419 240.166 175.521 240.166 176.879Z" fill="#263238"/>
<path d="M158.898 200.261L211.94 227.03" stroke="#263238" stroke-linecap="round" stroke-linejoin="round"/>
<path d="M262.869 113.61C261.82 114.828 261.113 116.301 260.817 117.881L256.693 120.195V109.245L256.773 109.354L263.343 104.551C265.705 104.909 268.121 104.535 270.264 103.478C273.636 101.66 276.104 95.4477 276.104 95.4477C276.104 95.4477 268.074 94.5425 265.343 97.9151C263.851 99.664 263.056 101.902 263.11 104.2L256.7 108.894V100.828C257.902 100.272 258.964 99.4543 259.809 98.435C260.654 97.4157 261.26 96.2205 261.584 94.9367C262.752 90.4034 256.525 81.4536 256.525 81.4536C256.525 81.4536 250.043 90.6589 251.342 95.3236C251.644 96.577 252.252 97.7358 253.112 98.6964C253.972 99.657 255.057 100.389 256.269 100.828V118.348L251.641 114.493C251.74 113.273 251.578 112.045 251.168 110.891C250.758 109.738 250.108 108.684 249.261 107.799C246.152 104.295 237.852 104.558 237.852 104.558C237.852 104.558 241.356 111.559 244.334 113.895C246.94 115.932 250.539 115.099 251.408 114.858L256.269 118.91V124.232H249.042L251.962 142.664H260.832L263.752 124.232H256.664V120.713L261.197 118.173C263.549 118.849 266.064 118.665 268.293 117.654C271.943 115.837 274.899 111.946 274.899 111.946C274.899 111.946 266.241 109.719 262.869 113.61Z" fill="#263238"/>
<path d="M200.61 254.04L168.745 263.369C168.593 263.414 168.455 263.5 168.347 263.618C168.24 263.735 168.166 263.88 168.135 264.036C168.103 264.192 168.115 264.354 168.168 264.504C168.222 264.654 168.315 264.787 168.439 264.887L180.309 274.596C181.002 275.166 181.827 275.551 182.709 275.717C183.591 275.883 184.5 275.824 185.353 275.545L214.553 265.997C214.694 265.946 214.819 265.861 214.917 265.748C215.015 265.635 215.083 265.499 215.114 265.353C215.145 265.206 215.137 265.054 215.093 264.912C215.048 264.769 214.968 264.64 214.859 264.537L203.669 254.682C203.254 254.326 202.756 254.081 202.222 253.969C201.687 253.856 201.133 253.881 200.61 254.04Z" fill="#263238"/>
<path d="M185.087 254.565C184.231 254.92 183.466 255.463 182.85 256.155C182.234 256.846 181.781 257.667 181.526 258.558C181.272 259.448 181.221 260.385 181.379 261.298C181.536 262.21 181.898 263.076 182.437 263.829L182.495 263.917C184.641 266.705 195.365 268.202 200.293 266.917C205.22 265.632 205.957 262.092 202.862 259.413C200.971 257.777 194.102 254.054 188.926 253.843C187.608 253.783 186.293 254.03 185.087 254.565Z" fill="white" stroke="#263238" stroke-linecap="round" stroke-linejoin="round"/>
<path d="M233.595 269.735L210.381 249.463C210.12 249.235 209.924 248.94 209.816 248.611C209.707 248.281 209.689 247.928 209.764 247.589C209.839 247.251 210.003 246.938 210.24 246.685C210.477 246.431 210.778 246.246 211.111 246.149L258.181 233.104C259.259 232.805 260.393 232.772 261.486 233.007C262.58 233.243 263.6 233.739 264.459 234.454L287.25 253.31L233.595 269.735Z" fill="#24A1DE" stroke="#263238" stroke-linecap="round" stroke-linejoin="round"/>
<path d="M258.531 251.025L260.371 252.631L264.357 251.587L262.495 249.959L258.531 251.025Z" fill="#263238"/>
<path d="M249.891 243.469L253.899 242.44L252.11 240.87L248.117 241.914L249.891 243.469Z" fill="#263238"/>
<path d="M252.969 240.652L254.765 242.221L258.772 241.199L256.962 239.615L252.969 240.652Z" fill="#263238"/>
<path d="M260.297 241.564L262.217 243.243L265.838 242.316L263.837 240.659L260.297 241.564Z" fill="#263238"/>
<path d="M262.883 243.827L264.803 245.513L268.533 244.557L266.526 242.893L262.883 243.827Z" fill="#263238"/>
<path d="M271.966 247.411L268.148 248.433L270.039 250.09L273.952 249.061L271.966 247.411Z" fill="#263238"/>
<path d="M267.3 248.667L263.336 249.733L265.197 251.361L269.183 250.309L267.3 248.667Z" fill="#263238"/>
<path d="M265.469 246.097L267.491 247.857L271.28 246.842L269.228 245.134L265.469 246.097Z" fill="#263238"/>
<path d="M257.349 244.492L261.357 243.462L259.43 241.783L255.422 242.805L257.349 244.492Z" fill="#263238"/>
<path d="M242.596 254.558L240.289 252.536L236.281 253.558L238.639 255.624L242.596 254.558Z" fill="#263238"/>
<path d="M239.622 251.952L237.695 250.266L233.688 251.295L235.607 252.974L239.622 251.952Z" fill="#263238"/>
<path d="M237.029 249.689L235.101 248.003L231.094 249.025L233.021 250.711L237.029 249.689Z" fill="#263238"/>
<path d="M245.033 244.711L249.04 243.689L247.267 242.134L243.273 243.178L245.033 244.711Z" fill="#263238"/>
<path d="M245.012 256.675L243.253 255.135L239.289 256.201L241.026 257.719L245.012 256.675Z" fill="#263238"/>
<path d="M240.159 245.959L244.167 244.929L242.415 243.396L238.422 244.433L240.159 245.959Z" fill="#263238"/>
<path d="M235.294 247.2L239.309 246.178L237.571 244.659L233.578 245.696L235.294 247.2Z" fill="#263238"/>
<path d="M230.427 248.44L234.435 247.418L232.72 245.922L228.727 246.958L230.427 248.44Z" fill="#263238"/>
<path d="M250.875 249.828L253.058 251.741L257.022 250.675L254.883 248.799L250.875 249.828Z" fill="#263238"/>
<path d="M250.562 244.054L252.482 245.733L256.49 244.711L254.57 243.024L250.562 244.054Z" fill="#263238"/>
<path d="M265.017 252.164L261.031 253.215L263.068 254.996L267.025 253.923L265.017 252.164Z" fill="#263238"/>
<path d="M255.076 248.002L259.083 246.973L257.156 245.294L253.148 246.316L255.076 248.002Z" fill="#263238"/>
<path d="M247.615 246.981L251.63 245.951L249.703 244.272L245.695 245.294L247.615 246.981Z" fill="#263238"/>
<path d="M258.016 245.075L259.936 246.754L263.951 245.732L262.023 244.046L258.016 245.075Z" fill="#263238"/>
<path d="M247.813 259.121L245.681 257.252L241.695 258.303L243.856 260.194L247.813 259.121Z" fill="#263238"/>
<path d="M259.75 247.558L255.742 248.58L257.874 250.448L261.838 249.383L259.75 247.558Z" fill="#263238"/>
<path d="M264.617 246.316L260.609 247.338L262.683 249.156L266.646 248.09L264.617 246.316Z" fill="#263238"/>
<path d="M242.755 248.222L246.763 247.2L244.836 245.514L240.828 246.543L242.755 248.222Z" fill="#263238"/>
<path d="M255.345 254.711L251.359 255.755L253.462 257.594L257.418 256.521L255.345 254.711Z" fill="#263238"/>
<path d="M260.182 253.434L256.203 254.485L258.269 256.295L262.226 255.222L260.182 253.434Z" fill="#263238"/>
<path d="M237.881 249.47L241.889 248.44L239.969 246.754L235.961 247.783L237.881 249.47Z" fill="#263238"/>
<path d="M252.612 257.821L250.509 255.981L246.523 257.033L248.655 258.894L252.612 257.821Z" fill="#263238"/>
<path d="M257.683 251.251L253.719 252.317L255.536 253.901L259.515 252.857L257.683 251.251Z" fill="#263238"/>
<path d="M244.482 250.711L242.562 249.024L238.555 250.046L240.475 251.733L244.482 250.711Z" fill="#263238"/>
<path d="M247.404 253.266L245.148 251.288L241.141 252.317L243.44 254.332L247.404 253.266Z" fill="#263238"/>
<path d="M249.847 255.405L248.065 253.843L244.102 254.909L245.861 256.449L249.847 255.405Z" fill="#263238"/>
<path d="M230.744 254.223L229.883 254.442L230.554 255.026L231.409 254.807L230.744 254.223Z" fill="#263238"/>
<path d="M237.786 255.851L235.414 253.777L231.406 254.807L233.823 256.916L237.786 255.851Z" fill="#263238"/>
<path d="M240.178 257.945L238.448 256.427L234.484 257.493L236.2 258.996L240.178 257.945Z" fill="#263238"/>
<path d="M252.213 251.967L250.016 250.047L246.008 251.069L248.249 253.033L252.213 251.967Z" fill="#263238"/>
<path d="M233.823 256.916L232.977 257.142L233.634 257.719L234.48 257.493L233.823 256.916Z" fill="#263238"/>
<path d="M234.755 253.193L232.828 251.514L228.82 252.536L230.748 254.222L234.755 253.193Z" fill="#263238"/>
<path d="M254.681 254.127L252.871 252.543L248.914 253.616L250.703 255.178L254.681 254.127Z" fill="#263238"/>
<path d="M228.151 251.952L227.297 252.171L227.961 252.755L228.815 252.536L228.151 251.952Z" fill="#263238"/>
<path d="M245.341 250.484L249.349 249.462L247.422 247.783L243.414 248.805L245.341 250.484Z" fill="#263238"/>
<path d="M245.632 262.713L243.675 260.997L239.719 262.07L241.785 263.881L245.632 262.713Z" fill="#263238"/>
<path d="M238.871 262.296L234.805 263.398L237.038 265.318L240.959 264.128L238.871 262.296Z" fill="#263238"/>
<path d="M273.336 252.974L274.489 253.982L278.439 252.785L277.358 251.887L273.336 252.974Z" fill="#263238"/>
<path d="M239.05 261.493L238.203 261.719L238.867 262.296L239.714 262.07L239.05 261.493Z" fill="#263238"/>
<path d="M252.297 246.535L248.289 247.564L250.209 249.243L254.217 248.221L252.297 246.535Z" fill="#263238"/>
<path d="M236.198 258.996L235.344 259.215L236.008 259.799L236.862 259.573L236.198 258.996Z" fill="#263238"/>
<path d="M232.161 250.93L230.242 249.244L226.227 250.273L228.154 251.952L232.161 250.93Z" fill="#263238"/>
<path d="M243.006 260.419L240.838 258.521L236.859 259.573L239.049 261.493L243.006 260.419Z" fill="#263238"/>
<path d="M218.68 249.572L220.359 251.017L224.709 249.908L223.03 248.44L218.68 249.572Z" fill="#263238"/>
<path d="M265.867 251.937L267.875 253.697L271.831 252.624L269.853 250.894L265.867 251.937Z" fill="#263238"/>
<path d="M267.683 254.5L263.727 255.573L265.143 256.807L268.99 255.639L267.683 254.5Z" fill="#263238"/>
<path d="M272.488 253.2L268.531 254.273L269.816 255.39L273.663 254.229L272.488 253.2Z" fill="#263238"/>
<path d="M274.637 249.631L270.695 250.667L272.674 252.398L276.667 251.317L274.637 249.631Z" fill="#263238"/>
<path d="M225.565 249.688L224.711 249.907L225.375 250.491L226.229 250.272L225.565 249.688Z" fill="#263238"/>
<path d="M253.277 258.397L249.32 259.471L251.123 261.055L254.971 259.887L253.277 258.397Z" fill="#263238"/>
<path d="M259.623 240.98L263.141 240.082L261.236 238.498L257.812 239.389L259.623 240.98Z" fill="#263238"/>
<path d="M262.886 255.799L258.922 256.872L260.469 258.222L264.317 257.054L262.886 255.799Z" fill="#263238"/>
<path d="M258.082 257.099L254.125 258.172L255.797 259.639L259.644 258.471L258.082 257.099Z" fill="#263238"/>
<path d="M231.867 260.887L234.13 262.822L238.204 261.72L236.006 259.8L231.867 260.887Z" fill="#263238"/>
<path d="M227.876 247.178L223.883 248.222L225.562 249.689L229.57 248.66L227.876 247.178Z" fill="#263238"/>
<path d="M221.039 251.602L222.995 253.273L227.302 252.171L225.375 250.492L221.039 251.602Z" fill="#263238"/>
<path d="M250.297 261.303L248.472 259.697L244.516 260.77L246.45 262.464L250.297 261.303Z" fill="#263238"/>
<path d="M229.484 258.836L231.2 260.31L235.346 259.215L233.638 257.719L229.484 258.836Z" fill="#263238"/>
<path d="M226.297 256.113L228.808 258.267L232.976 257.142L230.553 255.025L226.297 256.113Z" fill="#263238"/>
<path d="M223.672 253.857L225.621 255.529L229.884 254.441L227.964 252.755L223.672 253.857Z" fill="#263238"/>
<path d="M247.559 230.921L233.602 269.735L287.257 253.31L304.346 215.788C304.481 215.488 304.528 215.156 304.482 214.831C304.435 214.506 304.297 214.201 304.083 213.951C303.87 213.701 303.589 213.518 303.275 213.421C302.961 213.325 302.626 213.321 302.309 213.408L251.428 227.344C250.544 227.586 249.73 228.037 249.057 228.66C248.384 229.282 247.87 230.058 247.559 230.921Z" fill="#24A1DE" stroke="#263238" stroke-linecap="round" stroke-linejoin="round"/>
<path d="M275.598 238.111C276.328 239.783 275.065 241.9 272.832 242.834C270.598 243.769 268.225 243.17 267.524 241.498C266.824 239.827 268.057 237.71 270.291 236.775C272.525 235.841 274.897 236.439 275.598 238.111Z" fill="#263238"/>
<path d="M143.15 267.866L104.219 276.999L127.944 314.163L169.006 305.753L143.15 267.866Z" fill="white" stroke="#263238" stroke-linecap="round" stroke-linejoin="round"/>
<path d="M116.797 269.37L145.267 304.775L183.957 292.365L152.567 259.88L116.797 269.37Z" fill="white" stroke="#263238" stroke-linecap="round" stroke-linejoin="round"/>
<path d="M127.422 274.604L152.052 267.318" stroke="#263238" stroke-linecap="round" stroke-linejoin="round"/>
<path d="M131.211 278.013L155.841 270.728" stroke="#263238" stroke-linecap="round" stroke-linejoin="round"/>
<path d="M135 281.422L159.63 274.137" stroke="#263238" stroke-linecap="round" stroke-linejoin="round"/>
<path d="M138.789 284.831L163.427 277.553" stroke="#263238" stroke-linecap="round" stroke-linejoin="round"/>
<path d="M142.578 288.247L167.216 280.962" stroke="#263238" stroke-linecap="round" stroke-linejoin="round"/>
<path d="M146.367 291.657L171.005 284.371" stroke="#263238" stroke-linecap="round" stroke-linejoin="round"/>
<path d="M150.164 295.066L174.794 287.78" stroke="#263238" stroke-linecap="round" stroke-linejoin="round"/>
<path d="M162.424 164.615L110.594 175.93C110.594 175.93 113.149 216.81 117.529 233.6C117.529 233.6 122.091 249.762 124.69 254.77L173.564 241.951C173.564 241.951 166.439 223.015 162.424 164.615Z" fill="#263238" stroke="#263238" stroke-linecap="round" stroke-linejoin="round"/>
<path d="M198.858 170.484C194.829 166.885 189.96 167.732 185.091 165.826C181.632 164.551 178.1 163.485 174.513 162.636L173.659 162.439C173.659 162.439 171.542 157.993 167.731 158.629C163.921 159.264 148.043 170.09 146.773 173.01C145.503 175.93 145.503 204.137 145.714 213.889C145.853 220.518 147.174 225.767 149.613 229.387L145.758 249.419L199.705 235.06C199.705 235.06 196.019 233.162 195.887 222.358C195.887 220.27 196.734 214.736 197.8 208.385C198.441 204.181 198.654 199.923 198.435 195.676C200.318 196.335 202.157 197.116 203.939 198.012C206.903 199.472 224.474 206.692 224.474 206.692L229.584 197.377C229.584 197.377 202.881 174.083 198.858 170.484Z" fill="#24A1DE" stroke="#263238" stroke-linecap="round" stroke-linejoin="round"/>
<path d="M65.4609 270.341L311.347 206.225" stroke="#263238" stroke-linecap="round" stroke-linejoin="round"/>
<path d="M150.531 211.868C150.531 211.868 155.43 200.349 157.729 190.56" stroke="#263238" stroke-linecap="round" stroke-linejoin="round"/>
<path d="M148.812 215.35C148.812 215.35 157.733 206.422 160.325 197.494" stroke="#263238" stroke-linecap="round" stroke-linejoin="round"/>
<path d="M174.422 223.687C174.422 223.687 183.138 219.139 186.927 214.971" stroke="#263238" stroke-linecap="round" stroke-linejoin="round"/>
<path d="M158.992 171.922C158.992 171.922 159.474 171.966 161.182 175.353C162.89 178.74 164.978 184.244 164.978 184.244L168.789 180.434L172.388 185.303" stroke="#263238" stroke-linecap="round" stroke-linejoin="round"/>
<path d="M181.613 167.396C181.613 167.396 183.19 169.214 184.46 173.236C185.73 177.259 185.73 178.106 185.73 178.106L180.62 177.047L179.773 184.245" stroke="#263238" stroke-linecap="round" stroke-linejoin="round"/>
<path d="M197.594 183.398L198.433 195.684L200.346 180.011" stroke="#263238" stroke-linecap="round" stroke-linejoin="round"/>
<path d="M176.743 158.476L175.203 164.14C176.706 167.22 177.786 170.488 178.415 173.857C179.707 180.967 178.349 195.027 178.349 195.027C178.349 195.027 172.363 181.799 168.903 175.499C165.443 169.199 164.172 166.046 163.859 162.899C163.545 159.753 165.749 151.562 166.377 150.613C167.005 149.664 176.743 158.476 176.743 158.476Z" fill="white" stroke="#263238" stroke-linecap="round" stroke-linejoin="round"/>
<path d="M188.712 108.711C185.195 105.734 180.942 103.756 176.398 102.985C171.854 102.215 167.187 102.68 162.885 104.331C147.766 109.967 147.46 127.604 147.46 137.685C147.46 147.766 143.262 164.264 135.393 171.82C127.524 179.375 124.443 187.449 126.356 195.954C128.268 204.458 136.116 209.495 141.788 208.867C147.46 208.24 143.978 183.04 149.664 178.003C155.351 172.966 162.578 168.513 167.301 154.38C170.006 150.979 171.843 146.97 172.652 142.7C173.915 135.773 178.638 124.75 183.675 123.808C188.712 122.866 190.296 137.977 188.406 143.649C186.515 149.321 177.061 155.935 176.726 158.454C176.402 160.392 175.876 162.29 175.156 164.119C175.156 164.119 180.631 167.498 190.274 168.499C191.632 168.67 193.005 168.67 194.362 168.499C194.362 168.499 196.625 166.622 202.94 156.22C209.145 146 203.298 120.596 196.37 114.61C189.442 108.624 188.712 108.711 188.712 108.711Z" fill="#263238" stroke="#263238" stroke-linecap="round" stroke-linejoin="round"/>
<path d="M137.317 174.944C136.296 175.524 135.24 176.04 134.156 176.492" stroke="white" stroke-linecap="round" stroke-linejoin="round"/>
<path d="M134.628 172.762C134.628 172.762 125.868 177.638 126.131 190.742C126.357 196.099 128.484 201.2 132.131 205.13" stroke="white" stroke-linecap="round" stroke-linejoin="round"/>
<path d="M158.471 125.947C155.135 138.919 153.748 155.453 149.171 163.688C147.15 167.148 144.412 170.135 141.141 172.448" stroke="white" stroke-linecap="round" stroke-linejoin="round"/>
<path d="M190.036 118.888C190.036 118.888 190.766 114.953 186.094 111.011C181.648 107.266 164.96 109.551 159.945 121.187" stroke="white" stroke-linecap="round" stroke-linejoin="round"/>
<path d="M177.134 104.39C173.493 103.071 169.493 103.149 165.906 104.609C161.547 106.255 157.736 109.091 154.908 112.794C152.079 116.498 150.346 120.92 149.905 125.56C148.919 134.422 150.153 148.19 146.211 156.818" stroke="white" stroke-linecap="round" stroke-linejoin="round"/>
<path d="M183.386 108.04C182.609 107.334 181.766 106.705 180.867 106.164" stroke="white" stroke-linecap="round" stroke-linejoin="round"/>
<path d="M202.836 153.848C203.084 152.62 203.262 151.38 203.369 150.132" stroke="white" stroke-linecap="round" stroke-linejoin="round"/>
<path d="M203.473 146.73C203.1 131.451 191.508 122.1 191.508 122.1" stroke="white" stroke-linecap="round" stroke-linejoin="round"/>
<path d="M189.655 120.99C189.655 120.99 195.013 132.67 192.495 141.781C189.976 150.891 184.618 158.476 180.815 160.367C177.012 162.257 167.273 154.381 167.273 154.381C167.273 154.381 170.42 147.453 170.42 140.204C170.42 132.955 172.946 124.144 178.61 121.312C180.325 120.483 182.195 120.026 184.098 119.971C186.002 119.916 187.895 120.263 189.655 120.99Z" fill="white" stroke="#263238" stroke-linecap="round" stroke-linejoin="round"/>
<path d="M183.23 139.43C183.058 140.774 183.157 142.139 183.522 143.445C184.128 145.116 185.646 146.175 184.434 146.481C183.278 146.664 182.105 146.716 180.938 146.635" stroke="#263238" stroke-linecap="round" stroke-linejoin="round"/>
<path d="M179.055 151.438C180.138 152.05 181.401 152.262 182.624 152.037" stroke="#263238" stroke-linecap="round" stroke-linejoin="round"/>
<path d="M178.047 139.481C178.047 140.32 177.674 140.999 177.214 140.999C176.755 140.999 176.375 140.32 176.375 139.481C176.375 138.641 176.747 137.962 177.214 137.962C177.682 137.962 178.047 138.641 178.047 139.481Z" fill="#263238"/>
<path d="M188.476 139.007C188.476 139.839 188.104 140.525 187.644 140.525C187.184 140.525 186.805 139.839 186.805 139.007C186.805 138.174 187.184 137.488 187.644 137.488C188.104 137.488 188.476 138.167 188.476 139.007Z" fill="#263238"/>
<path d="M190.81 134.546C190.679 134.579 190.541 134.576 190.413 134.536C190.284 134.496 190.168 134.421 190.08 134.32C189.885 134.037 189.628 133.802 189.328 133.635C189.027 133.468 188.693 133.372 188.349 133.356C187.578 133.514 186.898 133.964 186.451 134.612C186.341 134.771 186.172 134.881 185.981 134.916C185.79 134.951 185.593 134.908 185.433 134.798C185.273 134.688 185.164 134.518 185.129 134.327C185.094 134.136 185.137 133.939 185.247 133.78C185.298 133.707 186.495 131.998 188.269 131.896C188.837 131.891 189.397 132.021 189.905 132.274C190.413 132.528 190.853 132.899 191.189 133.356C191.316 133.502 191.379 133.693 191.366 133.886C191.352 134.079 191.262 134.259 191.116 134.385C191.027 134.461 190.923 134.516 190.81 134.546Z" fill="#263238"/>
<path d="M179.463 135.05C179.266 135.053 179.074 134.986 178.922 134.86C176.338 132.816 174.287 134.59 174.199 134.663C174.031 134.811 173.813 134.889 173.59 134.882C173.366 134.875 173.154 134.784 172.995 134.627C172.919 134.551 172.859 134.459 172.82 134.359C172.78 134.259 172.762 134.152 172.766 134.044C172.77 133.936 172.797 133.831 172.844 133.734C172.89 133.637 172.957 133.551 173.039 133.481C174.025 132.667 175.271 132.233 176.55 132.258C177.829 132.284 179.057 132.767 180.01 133.619C180.095 133.684 180.166 133.767 180.218 133.86C180.271 133.954 180.303 134.058 180.313 134.165C180.323 134.272 180.311 134.379 180.278 134.482C180.245 134.584 180.191 134.678 180.12 134.758C180.037 134.85 179.936 134.924 179.823 134.975C179.709 135.025 179.587 135.051 179.463 135.05Z" fill="#263238"/>
<path d="M181.202 139.868C181.203 140.784 180.933 141.679 180.425 142.441C179.918 143.203 179.195 143.798 178.35 144.149C177.504 144.5 176.573 144.593 175.675 144.415C174.777 144.238 173.951 143.797 173.303 143.15C172.655 142.504 172.214 141.679 172.035 140.781C171.856 139.883 171.947 138.952 172.297 138.106C172.647 137.26 173.24 136.536 174.001 136.028C174.763 135.519 175.658 135.247 176.574 135.247C177.8 135.247 178.976 135.734 179.844 136.6C180.711 137.466 181.2 138.642 181.202 139.868Z" stroke="#263238" stroke-linecap="round" stroke-linejoin="round"/>
<path d="M172.032 140.372L170.602 139.773" stroke="#263238" stroke-linecap="round" stroke-linejoin="round"/>
<path d="M193.022 139.05C193.022 139.966 192.75 140.861 192.242 141.622C191.733 142.383 191.009 142.977 190.163 143.327C189.317 143.677 188.386 143.768 187.488 143.589C186.59 143.41 185.766 142.968 185.119 142.32C184.472 141.672 184.031 140.847 183.854 139.949C183.676 139.05 183.769 138.119 184.12 137.274C184.471 136.428 185.066 135.706 185.828 135.198C186.59 134.691 187.485 134.42 188.401 134.422C189.627 134.424 190.803 134.912 191.669 135.78C192.535 136.648 193.022 137.824 193.022 139.05Z" stroke="#263238" stroke-linecap="round" stroke-linejoin="round"/>
<path d="M181.203 139.868C181.347 139.635 181.553 139.446 181.799 139.325C182.045 139.204 182.319 139.154 182.592 139.181C182.865 139.209 183.124 139.312 183.341 139.48C183.557 139.648 183.722 139.873 183.817 140.131" stroke="#263238" stroke-linecap="round" stroke-linejoin="round"/>
<path d="M149.36 228.417C149.36 228.417 151.105 214.547 151.842 205.86C152.58 197.173 153.361 177.733 148.192 175.565C143.024 173.397 137.301 174.988 134.6 188.464C131.899 201.94 131.68 232.505 131.68 232.505L149.36 228.417Z" fill="#24A1DE" stroke="#263238" stroke-linecap="round" stroke-linejoin="round"/>
<path d="M152.215 235.87C152.215 235.87 176.436 253.31 178.765 253.31C181.094 253.31 188.926 250.558 192.102 251.405C195.277 252.251 198.672 258.814 199.307 259.237C199.942 259.661 201.001 260.931 199.942 261.566C198.884 262.201 192.525 259.449 191.467 259.449C190.874 259.465 190.289 259.318 189.773 259.026L187.021 258.391C187.021 258.391 194.642 262.201 195.277 262.413C195.913 262.625 195.496 263.471 193.372 263.471C191.248 263.471 188.715 262.201 187.233 261.778C185.688 261.153 184.029 260.864 182.364 260.931C179.4 260.931 173.896 257.967 173.896 257.967C173.896 257.967 149.806 250.302 144.28 248.609C138.754 246.915 133.972 242.52 133.76 241.885C133.549 241.25 146.499 236.082 152.215 235.87Z" fill="white" stroke="#263238" stroke-linecap="round" stroke-linejoin="round"/>
<path d="M188.781 255.011C188.781 255.011 196.892 257.646 199.308 259.259" stroke="#263238" stroke-linecap="round" stroke-linejoin="round"/>
<path d="M189.805 252.77C189.805 252.77 194.462 253.288 196.535 255.186" stroke="#263238" stroke-linecap="round" stroke-linejoin="round"/>
<path d="M148.374 223.694C148.374 223.694 133.671 226.533 131.584 228.015C129.496 229.497 129.926 232.059 130.562 233.541C131.197 235.023 131.197 242.433 133.525 244.126C134.255 244.681 148.768 239.681 151.52 239.016C154.272 238.352 154.754 234.461 153.71 230.651C152.666 226.84 152.608 221.365 148.374 223.694Z" fill="#24A1DE" stroke="#263238" stroke-linecap="round" stroke-linejoin="round"/>
<path d="M216.853 190.384C216.853 190.384 212.619 197.158 212.407 200.764C212.195 204.371 213.042 204.575 214.524 205.633C216.006 206.692 222.78 209.656 227.226 210.079C231.672 210.503 235.906 201.188 236.118 198.224C236.329 195.26 229.767 190.595 225.109 188.69C220.452 186.785 217.065 188.69 216.853 190.384Z" fill="#24A1DE" stroke="#263238" stroke-linecap="round" stroke-linejoin="round"/>
<path d="M208.778 171.966C208.778 171.966 235.876 194.829 238.84 199.706C241.804 204.582 236.723 208.809 232.912 209.021C229.102 209.232 226.138 205.21 222.327 200.991C218.517 196.771 204.398 174.506 204.398 174.506L208.778 171.966Z" fill="white" stroke="#263238" stroke-linecap="round" stroke-linejoin="round"/>
<path d="M204.575 162.016C204.575 162.016 200.977 172.601 200.977 174.295C200.977 175.988 203.305 177.047 205.422 177.047C207.539 177.047 209.445 174.083 210.715 170.477C211.985 166.87 213.467 162.447 211.985 161.374C210.503 160.3 204.999 161.169 204.575 162.016Z" fill="white" stroke="#263238" stroke-linecap="round" stroke-linejoin="round"/>
<path d="M203.727 165.191L211.983 166.038" stroke="#263238" stroke-linecap="round" stroke-linejoin="round"/>
<path d="M202.883 169.214L210.716 170.484" stroke="#263238" stroke-linecap="round" stroke-linejoin="round"/>
<path d="M201.609 172.178L208.807 173.871" stroke="#263238" stroke-linecap="round" stroke-linejoin="round"/>
<path d="M208.561 158.695C208.085 158.68 207.612 158.629 207.144 158.542C205.487 158.22 201.757 157.68 201.604 159.191C201.407 161.14 201.604 162.6 202.991 162.6H209.115C210.897 162.6 211.488 161.381 211.094 159.921C210.824 158.907 209.4 158.717 208.561 158.695Z" fill="white" stroke="#263238" stroke-linecap="round" stroke-linejoin="round"/>
<path d="M175.204 164.141C175.078 165.959 175.078 167.783 175.204 169.601" stroke="#263238" stroke-miterlimit="10"/>
<path d="M198.401 174.134H191.875C190.918 174.134 189.993 173.789 189.27 173.163C188.546 172.537 188.071 171.672 187.933 170.725L186.422 156.03H203.854L202.35 170.725C202.21 171.673 201.735 172.538 201.01 173.164C200.285 173.79 199.359 174.134 198.401 174.134Z" fill="white" stroke="#263238" stroke-linecap="round" stroke-linejoin="round"/>
<path opacity="0.37" d="M195.522 155.702C195.34 154.811 194.391 153.804 193.442 152.534C191.712 150.227 219.933 151.665 223.372 150.519C226.81 149.373 222.51 149.365 221.912 146.774C221.313 144.182 228.825 147.059 236.307 146.482C243.79 145.905 241.206 143.89 231.701 141.876C222.196 139.861 212.407 142.737 215.867 145.905C219.328 149.073 214.137 147.927 202.618 147.927C191.098 147.927 190.522 149.942 189.376 153.972C189.188 154.62 188.847 155.213 188.383 155.702H195.522Z" fill="white"/>
</svg>
