<svg width="599" height="599" viewBox="0 0 599 599" fill="none" xmlns="http://www.w3.org/2000/svg">
<path d="M222.422 128.641C204.494 134.412 187.333 142.337 171.315 152.242C157.008 161.27 143.974 172.173 132.56 184.66C75.2236 247.495 62.2971 346.701 109.87 418.785C136.106 458.546 187.871 499.29 238.152 494.918C273.708 491.827 306.665 473.725 342.953 476.948C380.33 480.302 414.234 485.334 449.012 466.345C486.257 446.039 509.678 405.786 517.777 364.144C527.816 312.462 520.736 252.526 497.614 205.193C452.174 112.24 318.969 96.7862 222.422 128.641Z" fill="#C6FF00"/>
<path opacity="0.8" d="M222.422 128.641C204.494 134.412 187.333 142.337 171.315 152.242C157.008 161.27 143.974 172.173 132.56 184.66C75.2236 247.495 62.2971 346.701 109.87 418.785C136.106 458.546 187.871 499.29 238.152 494.918C273.708 491.827 306.665 473.725 342.953 476.948C380.33 480.302 414.234 485.334 449.012 466.345C486.257 446.039 509.678 405.786 517.777 364.144C527.816 312.462 520.736 252.526 497.614 205.193C452.174 112.24 318.969 96.7862 222.422 128.641Z" fill="white"/>
<path d="M83.1328 405.188H516.042" stroke="#263238" stroke-linecap="round" stroke-linejoin="round"/>
<path opacity="0.28" d="M278.75 473.941L320.728 497.302L322.321 511.678L374.243 476.528L376.531 456.079L278.75 473.941Z" fill="black"/>
<path d="M326.526 490.018L278.75 473.941L330.096 446.71L376.531 456.079L326.526 490.018Z" fill="white"/>
<mask id="mask0_274_2075" style="mask-type:luminance" maskUnits="userSpaceOnUse" x="278" y="446" width="99" height="45">
<path d="M326.526 490.018L278.75 473.941L330.096 446.71L376.531 456.079L326.526 490.018Z" fill="white"/>
</mask>
<g mask="url(#mask0_274_2075)">
<path opacity="0.15" d="M326.526 490.018L278.75 473.941L330.096 446.71L376.531 456.079L326.526 490.018Z" fill="black"/>
</g>
<path d="M326.526 490.018L278.75 473.941L330.096 446.71L376.531 456.079L326.526 490.018Z" stroke="#263238" stroke-linecap="round" stroke-linejoin="round"/>
<path d="M335.905 459.205L321.733 455.767L305.5 464.369L319.828 468.142L335.905 459.205Z" stroke="#263238" stroke-linecap="round" stroke-linejoin="round"/>
<path d="M344.835 454.749L303.312 477.068L326.781 485.106L365.453 458.87L344.835 454.749Z" fill="#263238"/>
<path d="M348.85 426.62L326.531 490.018L376.536 456.079L396.183 402.947L348.85 426.62Z" fill="white"/>
<mask id="mask1_274_2075" style="mask-type:luminance" maskUnits="userSpaceOnUse" x="326" y="402" width="71" height="89">
<path d="M348.85 426.62L326.531 490.018L376.536 456.079L396.183 402.947L348.85 426.62Z" fill="white"/>
</mask>
<g mask="url(#mask1_274_2075)">
<path opacity="0.15" d="M348.85 426.62L326.531 490.018L376.536 456.079L396.183 402.947L348.85 426.62Z" fill="black"/>
</g>
<path d="M348.85 426.62L326.531 490.018L376.536 456.079L396.183 402.947L348.85 426.62Z" stroke="#263238" stroke-linecap="round" stroke-linejoin="round"/>
<path d="M187.883 491.288L217.977 534.212L266.22 516.518L233.023 479.344L187.883 491.288Z" fill="white" stroke="#263238" stroke-linecap="round" stroke-linejoin="round"/>
<path d="M255.596 479.787L298.52 515.631L239.219 539.088L203.375 493.504L255.596 479.787Z" fill="white" stroke="#263238" stroke-linecap="round" stroke-linejoin="round"/>
<path d="M413.781 79.2837H319.414V201.036H413.781V79.2837Z" fill="#C6FF00"/>
<path opacity="0.7" d="M413.781 79.2837H319.414V201.036H413.781V79.2837Z" fill="white"/>
<path d="M332.492 184.304V96.0166H400.689V184.304H332.492Z" fill="white" stroke="#263238"/>
<path d="M504.851 160.256H442.734V240.415H504.851V160.256Z" fill="#C6FF00"/>
<path opacity="0.7" d="M504.851 160.256H442.734V240.415H504.851V160.256Z" fill="white"/>
<path d="M451.508 229.229V171.443H496.068V229.229H451.508Z" fill="white" stroke="#263238"/>
<path d="M287.999 160.256H225.883V240.415H287.999V160.256Z" fill="#C6FF00"/>
<path opacity="0.7" d="M287.999 160.256H225.883V240.415H287.999V160.256Z" fill="white"/>
<path d="M234.672 229.229V171.443H279.232V229.229H234.672Z" fill="white" stroke="#263238"/>
<path opacity="0.28" d="M505.29 407.38H338.133V411.657H505.29V407.38Z" fill="black"/>
<path d="M454.555 287.963H472.525L486.649 321.052H468.679L454.555 287.963Z" fill="#263238" stroke="#263238" stroke-linecap="round" stroke-linejoin="round"/>
<path d="M478.446 279.17H450.808L434.875 321.052H462.513L478.446 279.17Z" fill="white" stroke="#263238" stroke-linecap="round" stroke-linejoin="round"/>
<path d="M473.21 284.202H452.209L440.109 316.021H461.11L473.21 284.202Z" fill="white" stroke="#263238" stroke-linecap="round" stroke-linejoin="round"/>
<path d="M407.817 254.779C407.817 254.779 416.694 251.053 407.517 250.813C398.34 250.574 386.564 263.668 387.403 262.41C388.241 261.152 391.284 252.167 385.618 258.169C379.951 264.171 376.034 283.051 376.034 283.051C376.737 279.17 377.065 275.231 377.016 271.287C376.836 265.465 372.943 250.741 367.013 249.603C363.131 248.849 364.772 253.353 366.366 256.576C364.281 253.317 360.172 248.429 353.679 246.992C343.688 244.811 336.452 254.659 330.318 259.499C324.184 264.339 333.049 260.625 339.902 258.648C346.755 256.672 347.09 260.625 347.09 260.625C347.09 260.625 338.141 259.834 338.045 263.955C337.949 268.076 357.213 258.672 362.185 270.652C367.156 282.632 367.779 296.948 367.779 296.948L374.117 294.744C374.939 293.167 375.616 291.519 376.141 289.82C376.657 287.784 383.545 285.807 388.792 283.159C394.04 280.512 385.845 279.398 387.007 278.906C388.169 278.415 399.598 278.631 404.977 277.301C410.356 275.971 395.07 271 395.07 271C395.07 271 422.624 276.235 422.624 269.466C422.624 262.697 407.817 254.779 407.817 254.779Z" fill="#C6FF00"/>
<path d="M361.793 269.071C355.935 264.47 356.774 270.748 356.774 270.748C352.392 268.583 347.485 267.71 342.625 268.232C334.239 269.071 336.767 270.748 336.767 270.748C336.767 270.748 333.413 269.49 327.554 277.025C321.696 284.561 322.535 290.012 324.619 288.335C326.704 286.657 339.702 279.541 339.702 279.541C339.702 279.541 329.651 286.657 335.09 288.754C339.175 290.323 347.729 286.717 351.754 284.812C349.358 286.118 346.495 288.191 351.011 288.754C357.708 289.592 365.243 298.338 365.243 298.338L367.34 294.564C367.34 294.564 367.699 273.683 361.793 269.071Z" fill="#C6FF00"/>
<path d="M379.299 321.423H358.19L355.555 293.366H381.935L379.299 321.423Z" fill="#263238" stroke="#263238" stroke-linecap="round" stroke-linejoin="round"/>
<path d="M346.098 410.243H342.755L341.078 338.639H347.775L346.098 410.243Z" fill="#263238" stroke="#263238" stroke-linecap="round" stroke-linejoin="round"/>
<path d="M499.789 410.243H496.435L494.758 338.639H501.467L499.789 410.243Z" fill="#263238" stroke="#263238" stroke-linecap="round" stroke-linejoin="round"/>
<path d="M503.97 323.556H338.562V344.077H369.818L371.855 344.497C381.906 346.593 389.022 352.883 404.944 352.032C413.653 351.577 418.577 348.869 421.272 346.497C423.968 348.893 428.892 351.577 437.601 352.032C453.511 352.871 460.639 346.593 470.69 344.497L472.727 344.077H503.97V323.556Z" fill="white" stroke="#263238" stroke-linecap="round" stroke-linejoin="round"/>
<path d="M503.97 323.556H338.562V328.396H503.97V323.556Z" fill="#263238" stroke="#263238" stroke-linecap="round" stroke-linejoin="round"/>
<path d="M509.132 320.537H333.109V325.03H509.132V320.537Z" fill="white" stroke="#263238" stroke-linecap="round" stroke-linejoin="round"/>
<path opacity="0.28" d="M213.086 465.615C267.585 465.615 311.765 452.876 311.765 437.162C311.765 421.449 267.585 408.71 213.086 408.71C158.586 408.71 114.406 421.449 114.406 437.162C114.406 452.876 158.586 465.615 213.086 465.615Z" fill="black"/>
<path d="M334.564 392.237C334.564 392.237 328.754 383.3 310.449 385.541C292.143 387.781 252.849 395.34 237.203 398.036C221.557 400.731 197.477 418.102 192.122 429.291C186.767 440.481 190.781 447.154 224.72 448.939C258.659 450.724 305.489 423.038 320.272 414.508C335.056 405.978 333.666 396.694 334.564 392.237Z" fill="#263238" stroke="#263238" stroke-linecap="round" stroke-linejoin="round"/>
<path d="M242.94 266.591C242.94 266.591 233.452 284.86 229.942 288.383C228.073 290.43 225.789 292.054 223.241 293.145C220.693 294.236 217.941 294.769 215.17 294.708C208.15 294.708 183.148 291.378 174.714 307.551C166.28 323.724 164.207 371.68 164.567 374.495C164.926 377.31 143.123 395.939 143.829 418.821C144.536 441.703 168.784 454.665 202.879 449.753C236.974 444.841 245.755 419.516 245.755 404.756C245.755 389.997 253.135 381.91 261.221 366.42C269.308 350.93 281.252 334.793 277.382 321.076C273.513 307.359 258.765 301.033 253.842 299.272C248.918 297.511 262.982 281.302 259.46 273.264C255.938 265.225 248.918 262.015 242.94 266.591Z" fill="#C6FF00"/>
<mask id="mask2_274_2075" style="mask-type:luminance" maskUnits="userSpaceOnUse" x="143" y="264" width="136" height="187">
<path d="M242.94 266.591C242.94 266.591 233.452 284.86 229.942 288.383C228.073 290.43 225.789 292.054 223.241 293.145C220.693 294.236 217.941 294.769 215.17 294.708C208.15 294.708 183.148 291.378 174.714 307.551C166.28 323.724 164.207 371.68 164.567 374.495C164.926 377.31 143.123 395.939 143.829 418.821C144.536 441.703 168.784 454.665 202.879 449.753C236.974 444.841 245.755 419.516 245.755 404.756C245.755 389.997 253.135 381.91 261.221 366.42C269.308 350.93 281.252 334.793 277.382 321.076C273.513 307.359 258.765 301.033 253.842 299.272C248.918 297.511 262.982 281.302 259.46 273.264C255.938 265.225 248.918 262.015 242.94 266.591Z" fill="white"/>
</mask>
<g mask="url(#mask2_274_2075)">
<path opacity="0.13" d="M241.801 368.145C226.838 373.692 214.475 368.517 198.026 363.713C181.578 358.909 188.598 347.084 188.598 334.901C188.598 322.717 174.222 339.333 174.222 339.333L166.183 347.791C165.185 356.658 164.654 365.572 164.59 374.495C164.901 377.011 147.518 392.165 144.344 411.633C152.42 412.573 160.545 413.025 168.675 412.986C202.483 412.986 242.867 395.627 246.809 387.493C250.511 379.838 256.56 361.137 257.267 358.897C256.884 359.831 254.692 363.365 241.801 368.145Z" fill="black"/>
</g>
<path d="M242.94 266.591C242.94 266.591 233.452 284.86 229.942 288.383C228.073 290.43 225.789 292.054 223.241 293.145C220.693 294.236 217.941 294.769 215.17 294.708C208.15 294.708 183.148 291.378 174.714 307.551C166.28 323.724 164.207 371.68 164.567 374.495C164.926 377.31 143.123 395.939 143.829 418.821C144.536 441.703 168.784 454.665 202.879 449.753C236.974 444.841 245.755 419.516 245.755 404.756C245.755 389.997 253.135 381.91 261.221 366.42C269.308 350.93 281.252 334.793 277.382 321.076C273.513 307.359 258.765 301.033 253.842 299.272C248.918 297.511 262.982 281.302 259.46 273.264C255.938 265.225 248.918 262.015 242.94 266.591Z" stroke="#263238" stroke-linecap="round" stroke-linejoin="round"/>
<path d="M266.493 337.944C266.493 337.944 258.406 343.215 257.7 348.127C256.993 353.039 258.754 363.593 252.081 369.224C245.408 374.854 240.484 374.842 240.484 374.842" stroke="#263238" stroke-linecap="round" stroke-linejoin="round"/>
<path d="M180.562 355.351C180.562 355.351 180.562 368.026 195.681 368.996" stroke="#263238" stroke-linecap="round" stroke-linejoin="round"/>
<path d="M226.898 337.297C229.109 342.517 230.9 347.905 232.253 353.41" stroke="#263238" stroke-linecap="round" stroke-linejoin="round"/>
<path d="M246.27 398.359C248.055 387.313 254.38 379.502 261.221 366.408C262.299 364.336 263.461 362.251 264.635 360.155C258.238 362.659 257.184 361.029 257.184 361.029C254.153 368.098 250.103 370.793 250.103 370.793L239.094 401.09L246.27 398.359Z" fill="white" stroke="#263238" stroke-linecap="round" stroke-linejoin="round"/>
<path d="M147.989 399.857C145.172 405.765 143.75 412.241 143.831 418.785C144.526 441.631 168.786 454.629 202.881 449.718C236.976 444.806 245.757 419.48 245.757 404.721C245.735 400.186 246.518 395.684 248.069 391.423C183.929 405.763 158.136 403.379 147.989 399.857Z" fill="#263238" stroke="#263238" stroke-linecap="round" stroke-linejoin="round"/>
<path d="M221.541 373.369L212.76 354.201C212.694 354.058 212.6 353.929 212.484 353.822C212.368 353.715 212.232 353.632 212.085 353.577C211.786 353.467 211.455 353.48 211.166 353.614C210.877 353.747 210.653 353.99 210.543 354.289C210.433 354.588 210.446 354.918 210.579 355.207L219.373 374.303L221.541 373.369Z" fill="white" stroke="#263238" stroke-linecap="round" stroke-linejoin="round"/>
<path d="M219.375 374.363L221.495 376.112L221.543 373.369L219.375 374.363Z" stroke="#263238" stroke-linecap="round" stroke-linejoin="round"/>
<path d="M211.167 353.674C211.024 353.74 210.895 353.833 210.788 353.949C210.68 354.065 210.597 354.201 210.543 354.349C210.488 354.497 210.463 354.654 210.47 354.812C210.476 354.969 210.514 355.124 210.58 355.267L211.467 357.196L213.647 356.202L212.761 354.261C212.695 354.118 212.601 353.989 212.485 353.881C212.37 353.774 212.234 353.691 212.086 353.636C211.938 353.582 211.78 353.557 211.623 353.563C211.465 353.57 211.31 353.607 211.167 353.674Z" fill="white" stroke="#263238" stroke-linecap="round" stroke-linejoin="round"/>
<path d="M208.844 296.817C204.272 295.241 199.406 294.707 194.601 295.254C189.796 295.802 185.175 297.416 181.074 299.979C167.022 308.761 154.527 334.865 149.255 344.006C143.984 353.147 126.493 392.237 130.507 393.124C132.591 393.591 198.302 381.144 203.932 380.821C209.563 380.497 217.278 376.951 217.278 376.951C217.278 376.951 220.8 380.82 222.561 379.059C224.322 377.298 219.386 368.17 216.93 365.354C214.475 362.539 211.312 361.485 209.551 362.898C207.79 364.312 196.9 374.495 196.9 374.495L154.611 373.034L189.52 327.39" fill="#C6FF00"/>
<mask id="mask3_274_2075" style="mask-type:luminance" maskUnits="userSpaceOnUse" x="129" y="295" width="94" height="99">
<path d="M208.844 296.817C204.272 295.241 199.406 294.707 194.601 295.254C189.796 295.802 185.175 297.416 181.074 299.979C167.022 308.761 154.527 334.865 149.255 344.006C143.984 353.147 126.493 392.237 130.507 393.124C132.591 393.591 198.302 381.144 203.932 380.821C209.563 380.497 217.278 376.951 217.278 376.951C217.278 376.951 220.8 380.82 222.561 379.059C224.322 377.298 219.386 368.17 216.93 365.354C214.475 362.539 211.312 361.485 209.551 362.898C207.79 364.312 196.9 374.495 196.9 374.495L154.611 373.034L189.52 327.39" fill="white"/>
</mask>
<g mask="url(#mask3_274_2075)">
<path opacity="0.13" d="M214.436 368.517C209.068 364.025 205.235 371.045 200.898 374.591C196.561 378.137 189.086 377.742 166.252 377.742C143.418 377.742 142.615 378.532 140.651 379.706C138.686 380.88 144.592 363.174 159.16 346.63C173.727 330.085 182.784 316.32 182.784 305.682C182.784 302.256 181.586 300.89 179.993 300.674C166.36 310.067 154.356 335.105 149.216 344.006C143.945 353.147 126.454 392.237 130.468 393.124C132.552 393.591 198.263 381.144 203.893 380.821C209.524 380.497 217.239 376.951 217.239 376.951C217.742 377.481 218.287 377.97 218.868 378.413C219.431 374.974 217.874 371.38 214.436 368.517Z" fill="black"/>
</g>
<path d="M208.844 296.817C204.272 295.241 199.406 294.707 194.601 295.254C189.796 295.802 185.175 297.416 181.074 299.979C167.022 308.761 154.527 334.865 149.255 344.006C143.984 353.147 126.493 392.237 130.507 393.124C132.591 393.591 198.302 381.144 203.932 380.82C209.563 380.497 217.278 376.951 217.278 376.951C217.278 376.951 220.8 380.82 222.561 379.059C224.322 377.298 219.386 368.17 216.93 365.354C214.475 362.539 211.312 361.485 209.551 362.898C207.79 364.312 196.9 374.495 196.9 374.495L154.611 373.034L189.52 327.39" stroke="#263238" stroke-linecap="round" stroke-linejoin="round"/>
<path d="M217.28 376.951C217.28 376.951 220.802 380.82 222.563 379.059C224.324 377.298 219.388 368.17 216.932 365.354C214.477 362.539 211.314 361.485 209.553 362.898C207.792 364.312 196.902 374.495 196.902 374.495L154.612 373.033L165.191 359.197C158.228 357.599 151.718 354.441 146.155 349.96C139.194 364.072 127.094 392.369 130.509 393.088C132.593 393.555 198.304 381.108 203.934 380.785C209.565 380.461 217.28 376.951 217.28 376.951Z" fill="white"/>
<mask id="mask4_274_2075" style="mask-type:luminance" maskUnits="userSpaceOnUse" x="129" y="349" width="94" height="45">
<path d="M217.28 376.951C217.28 376.951 220.802 380.82 222.563 379.059C224.324 377.298 219.388 368.17 216.932 365.354C214.477 362.539 211.314 361.485 209.553 362.898C207.792 364.312 196.902 374.495 196.902 374.495L154.612 373.033L165.191 359.197C158.228 357.599 151.718 354.441 146.155 349.96C139.194 364.072 127.094 392.369 130.509 393.088C132.593 393.555 198.304 381.108 203.934 380.785C209.565 380.461 217.28 376.951 217.28 376.951Z" fill="white"/>
</mask>
<g mask="url(#mask4_274_2075)">
<path d="M214.437 368.517C209.07 364.024 205.237 371.045 200.9 374.591C196.563 378.137 189.088 377.742 166.254 377.742C143.42 377.742 142.617 378.532 140.653 379.706C138.999 380.701 142.917 368.313 152.896 354.548C150.5 353.248 148.23 351.728 146.116 350.008C139.155 364.12 127.055 392.417 130.47 393.136C132.554 393.603 198.264 381.156 203.895 380.832C209.526 380.509 217.241 376.963 217.241 376.963C217.744 377.493 218.289 377.981 218.87 378.424C219.433 374.974 217.876 371.38 214.437 368.517Z" fill="#C6FF00"/>
<path opacity="0.7" d="M214.437 368.517C209.07 364.024 205.237 371.045 200.9 374.591C196.563 378.137 189.088 377.742 166.254 377.742C143.42 377.742 142.617 378.532 140.653 379.706C138.999 380.701 142.917 368.313 152.896 354.548C150.5 353.248 148.23 351.728 146.116 350.008C139.155 364.12 127.055 392.417 130.47 393.136C132.554 393.603 198.264 381.156 203.895 380.832C209.526 380.509 217.241 376.963 217.241 376.963C217.744 377.493 218.289 377.981 218.87 378.424C219.433 374.974 217.876 371.38 214.437 368.517Z" fill="white"/>
</g>
<path d="M217.28 376.951C217.28 376.951 220.802 380.82 222.563 379.059C224.324 377.298 219.388 368.17 216.932 365.354C214.477 362.539 211.314 361.485 209.553 362.898C207.792 364.312 196.902 374.495 196.902 374.495L154.612 373.033L165.191 359.197C158.228 357.599 151.718 354.441 146.155 349.96C139.194 364.072 127.094 392.369 130.509 393.088C132.593 393.555 198.304 381.108 203.934 380.785C209.565 380.461 217.28 376.951 217.28 376.951Z" stroke="#263238" stroke-linecap="round" stroke-linejoin="round"/>
<path d="M215.168 374.495L186.703 402.96L231.688 408.59L256.642 387.146L215.168 374.495Z" fill="white"/>
<mask id="mask5_274_2075" style="mask-type:luminance" maskUnits="userSpaceOnUse" x="186" y="374" width="71" height="35">
<path d="M215.168 374.495L186.703 402.96L231.688 408.59L256.642 387.146L215.168 374.495Z" fill="white"/>
</mask>
<g mask="url(#mask5_274_2075)">
<path opacity="0.36" d="M215.168 374.495L186.703 402.96L231.688 408.59L256.642 387.146L215.168 374.495Z" fill="black"/>
</g>
<path d="M215.168 374.495L186.703 402.96L231.688 408.59L256.642 387.146L215.168 374.495Z" stroke="#263238" stroke-linecap="round" stroke-linejoin="round"/>
<path d="M214.476 368.517L215.171 374.495L186.706 402.96L185.305 399.797L214.476 368.517Z" fill="white" stroke="#263238" stroke-linecap="round" stroke-linejoin="round"/>
<path d="M215.171 374.495L256.646 387.146L258.767 382.929L214.477 368.517L215.171 374.495Z" fill="white" stroke="#263238" stroke-linecap="round" stroke-linejoin="round"/>
<path d="M245.998 399.174C245.998 399.174 238.906 400.024 239.098 401.091C239.289 402.157 245.088 401.941 246.369 401.941C247.651 401.941 249.724 398.934 245.998 399.174Z" fill="white" stroke="#263238" stroke-linecap="round" stroke-linejoin="round"/>
<path d="M248.495 396.383C248.495 396.383 239.558 397.329 239.786 398.503C240.013 399.677 247.321 399.438 248.962 399.438C250.603 399.438 253.191 396.143 248.495 396.383Z" fill="white" stroke="#263238" stroke-linecap="round" stroke-linejoin="round"/>
<path d="M251.581 393.555C251.581 393.555 242.644 394.502 242.871 395.676C243.099 396.85 250.407 396.622 252.048 396.622C253.689 396.622 256.265 393.328 251.581 393.555Z" fill="white" stroke="#263238" stroke-linecap="round" stroke-linejoin="round"/>
<path d="M252.023 390.74C252.023 390.74 243.085 391.675 243.325 392.861C243.565 394.047 250.848 393.795 252.49 393.795C254.131 393.795 256.731 390.548 252.023 390.74Z" fill="white" stroke="#263238" stroke-linecap="round" stroke-linejoin="round"/>
<path d="M145.746 423.493C145.746 423.493 141.733 413.67 154.24 405.188C166.747 396.706 213.553 391.339 224.718 395.808C235.884 400.276 278.305 435.102 278.305 435.102L272.938 440.457C272.938 440.457 240.34 441.344 226.503 437.774C212.666 434.204 207.251 432.478 207.251 432.478C207.251 432.478 195.643 448.999 179.566 449.442" fill="#263238"/>
<path d="M145.746 423.493C145.746 423.493 141.733 413.67 154.24 405.188C166.747 396.706 213.553 391.339 224.718 395.808C235.884 400.276 278.305 435.102 278.305 435.102L272.938 440.457C272.938 440.457 240.34 441.344 226.503 437.774C212.666 434.204 207.251 432.478 207.251 432.478C207.251 432.478 195.643 448.999 179.566 449.442" stroke="#263238" stroke-linecap="round" stroke-linejoin="round"/>
<path d="M273.39 443.584C282.81 447.393 292.733 449.815 302.849 450.772C318.926 452.114 323.838 439.163 323.838 435.198C323.838 431.232 317.141 432.071 310.444 432.958C303.747 433.844 287.227 434.743 283.202 434.299C279.176 433.856 268.478 435.545 273.39 443.584Z" fill="white" stroke="#263238" stroke-linecap="round" stroke-linejoin="round"/>
<path d="M312.231 390.896C312.231 390.896 293.063 390.44 282.76 400.719C272.457 410.998 249.719 439.558 244.364 444.925C239.009 450.292 217.577 448.939 213.108 448.519C208.64 448.1 204.171 444.925 197.93 447.621C191.688 450.316 183.637 454.809 182.296 460.571C180.954 466.334 180.067 468.61 182.739 469.053C185.41 469.496 199.715 467.22 207.25 467.22C214.785 467.22 233.151 465.878 243.873 462.764C254.595 459.649 285.396 441.319 297.447 434.179C309.499 427.039 330.991 414.089 334.514 402.037C338.036 389.985 328.703 387.302 323.348 388.188" fill="#263238"/>
<path d="M312.231 390.896C312.231 390.896 293.063 390.44 282.76 400.719C272.457 410.998 249.719 439.558 244.364 444.925C239.009 450.292 217.577 448.939 213.108 448.519C208.64 448.1 204.171 444.925 197.93 447.621C191.688 450.316 183.637 454.809 182.296 460.571C180.954 466.334 180.067 468.61 182.739 469.053C185.41 469.496 199.715 467.22 207.25 467.22C214.785 467.22 233.151 465.878 243.873 462.764C254.595 459.649 285.396 441.319 297.447 434.179C309.499 427.039 330.991 414.089 334.514 402.037C338.036 389.985 328.703 387.302 323.348 388.188" stroke="#263238" stroke-linecap="round" stroke-linejoin="round"/>
<path d="M250.078 442.134C250.078 442.134 275.835 403.798 289.013 396.61C302.191 389.422 316.567 390.62 316.567 390.62" stroke="white" stroke-linecap="round" stroke-linejoin="round"/>
<path d="M240.159 447.178C231.917 449.825 216.774 448.855 213.108 448.495C208.64 448.052 204.171 444.901 197.93 447.597C191.688 450.292 183.637 454.785 182.296 460.547C180.954 466.31 180.067 468.586 182.739 469.029C185.41 469.472 199.715 467.22 207.25 467.22C214.785 467.22 233.151 465.878 243.873 462.764C246.903 461.781 249.858 460.579 252.714 459.17C249.647 453.575 244.053 449.502 240.159 447.178Z" fill="white" stroke="#263238" stroke-linecap="round" stroke-linejoin="round"/>
<path d="M226.499 448.496C226.499 448.496 234.538 452.09 236.323 456.079C238.108 460.068 239.45 463.674 239.45 465.016C239.45 466.358 254.185 462.788 258.618 458.319C263.05 453.851 251.43 441.799 247.452 441.799C243.475 441.799 242.541 443.141 237.629 444.47C232.717 445.8 225.601 444.926 226.499 448.496Z" fill="white" stroke="#263238" stroke-linecap="round" stroke-linejoin="round"/>
<path d="M207.251 432.478C207.251 432.478 197.428 427.567 196.984 421.313" stroke="white" stroke-linecap="round" stroke-linejoin="round"/>
<path d="M188.984 446.926C196.776 443.607 204.04 439.167 210.548 433.748C210.548 433.748 229.716 439.738 242.295 439.738" stroke="white" stroke-linecap="round" stroke-linejoin="round"/>
<path d="M260.383 302.184C258.273 301.063 256.087 300.09 253.842 299.272C248.918 297.523 262.983 281.302 259.46 273.264C255.938 265.225 248.918 262.015 242.94 266.591C242.94 266.591 233.452 284.86 229.942 288.383C228.074 290.43 225.789 292.054 223.241 293.145C220.693 294.236 217.941 294.769 215.17 294.708C213.84 294.724 212.511 294.824 211.193 295.008C210.522 302.795 211.061 321.447 230.637 326.695C249.074 331.63 256.957 316.416 260.383 302.184Z" fill="white"/>
<mask id="mask6_274_2075" style="mask-type:luminance" maskUnits="userSpaceOnUse" x="211" y="264" width="50" height="64">
<path d="M260.383 302.184C258.273 301.063 256.087 300.09 253.842 299.272C248.918 297.523 262.983 281.302 259.46 273.264C255.938 265.225 248.918 262.015 242.94 266.591C242.94 266.591 233.452 284.86 229.942 288.383C228.074 290.43 225.789 292.054 223.241 293.145C220.693 294.236 217.941 294.769 215.17 294.708C213.84 294.724 212.511 294.824 211.193 295.008C210.522 302.795 211.061 321.447 230.637 326.695C249.074 331.63 256.957 316.416 260.383 302.184Z" fill="white"/>
</mask>
<g mask="url(#mask6_274_2075)">
<path d="M242.942 266.591C242.942 266.591 233.454 284.86 229.944 288.382C228.075 290.43 225.791 292.053 223.243 293.145C220.695 294.236 217.943 294.769 215.172 294.708C213.841 294.724 212.513 294.824 211.195 295.007C211.111 295.99 211.051 297.152 211.039 298.446C213.004 303.537 216.789 310.174 223.39 311.624C234.412 314.02 242.283 306.113 243.864 303.357C245.278 300.865 251.531 275.552 249.854 264.59C248.627 264.445 247.383 264.547 246.195 264.89C245.008 265.234 243.902 265.812 242.942 266.591Z" fill="#C6FF00"/>
<path opacity="0.7" d="M242.942 266.591C242.942 266.591 233.454 284.86 229.944 288.382C228.075 290.43 225.791 292.053 223.243 293.145C220.695 294.236 217.943 294.769 215.172 294.708C213.841 294.724 212.513 294.824 211.195 295.007C211.111 295.99 211.051 297.152 211.039 298.446C213.004 303.537 216.789 310.174 223.39 311.624C234.412 314.02 242.283 306.113 243.864 303.357C245.278 300.865 251.531 275.552 249.854 264.59C248.627 264.445 247.383 264.547 246.195 264.89C245.008 265.234 243.902 265.812 242.942 266.591Z" fill="white"/>
</g>
<path d="M260.383 302.184C258.273 301.063 256.087 300.09 253.842 299.272C248.918 297.523 262.983 281.302 259.46 273.264C255.938 265.225 248.918 262.015 242.94 266.591C242.94 266.591 233.452 284.86 229.942 288.383C228.074 290.43 225.789 292.054 223.241 293.145C220.693 294.236 217.941 294.769 215.17 294.708C213.84 294.724 212.511 294.824 211.193 295.008C210.522 302.795 211.061 321.447 230.637 326.695C249.074 331.63 256.957 316.416 260.383 302.184Z" stroke="#263238" stroke-linecap="round" stroke-linejoin="round"/>
<path d="M242.711 306.029C242.711 306.029 238.375 308.066 236.961 314.415" stroke="#263238" stroke-linecap="round" stroke-linejoin="round"/>
<path d="M253.482 244.799C253.482 244.799 255.59 237.767 250.678 235.311C245.766 232.855 226.778 240.223 222.561 252.527C218.344 264.83 236.266 269.754 246.102 262.722C255.937 255.689 254.188 246.201 254.188 246.201L253.482 244.799Z" fill="#263238" stroke="#263238" stroke-linecap="round" stroke-linejoin="round"/>
<path d="M222.565 252.526C222.565 252.526 218.599 263.165 225.919 268.532C233.239 273.899 243.961 263.656 243.961 263.656" stroke="#263238" stroke-linecap="round" stroke-linejoin="round"/>
<path d="M243.297 278.535C243.297 278.535 235.21 269.754 240.793 253.976C246.376 238.199 261.159 233.958 278.794 234.916C300.957 236.114 303.005 259.247 302.31 264.866C301.872 268.314 301.167 271.722 300.202 275.061C300.202 275.061 308.983 285.951 304.06 292.636C299.136 299.32 281.921 296.146 275.236 287.005C268.551 277.864 248.532 280.68 247.478 281.386C246.424 282.093 243.297 278.535 243.297 278.535Z" fill="#263238" stroke="#263238" stroke-linecap="round" stroke-linejoin="round"/>
<path d="M289.014 293.342C288.008 292.922 287.111 292.279 286.391 291.461" stroke="white" stroke-linecap="round" stroke-linejoin="round"/>
<path d="M283.922 273.899C283.922 273.899 300.981 287.556 295.626 291.941C295.114 292.363 294.56 292.732 293.973 293.043" stroke="white" stroke-linecap="round" stroke-linejoin="round"/>
<path d="M281.523 269.993C287.239 269.844 292.912 271.012 298.104 273.408" stroke="white" stroke-linecap="round" stroke-linejoin="round"/>
<path d="M281.515 263.656L277.609 245.123" stroke="white" stroke-linecap="round" stroke-linejoin="round"/>
<path d="M248.102 263.464C247.443 263.237 246.784 262.985 246.102 262.722" stroke="white" stroke-linecap="round" stroke-linejoin="round"/>
<path d="M280.054 261.224C280.054 261.224 270.47 268.556 254.297 265.189" stroke="white" stroke-linecap="round" stroke-linejoin="round"/>
<path d="M278.097 253.904C278.097 253.904 272.251 256.827 262.523 256.827" stroke="white" stroke-linecap="round" stroke-linejoin="round"/>
<path d="M239.774 279.242C239.774 279.242 238.72 289.078 240.481 295.762C242.242 302.447 242.589 312.99 248.867 314.044C255.144 315.098 275.93 303.49 279.799 299.273C282.522 296.44 284.035 292.659 284.016 288.73C284.016 286.622 280.506 271.862 280.506 271.862C274.586 273.204 268.582 274.145 262.536 274.678C255.991 275.309 249.388 274.466 243.212 272.21C243.212 272.21 238.396 275.372 239.774 279.242Z" fill="white"/>
<mask id="mask7_274_2075" style="mask-type:luminance" maskUnits="userSpaceOnUse" x="239" y="271" width="46" height="44">
<path d="M239.774 279.242C239.774 279.242 238.72 289.078 240.481 295.762C242.242 302.447 242.589 312.99 248.867 314.044C255.144 315.098 275.93 303.49 279.799 299.273C282.522 296.44 284.035 292.659 284.016 288.73C284.016 286.622 280.506 271.862 280.506 271.862C274.586 273.204 268.582 274.145 262.536 274.678C255.991 275.309 249.388 274.466 243.212 272.21C243.212 272.21 238.396 275.372 239.774 279.242Z" fill="white"/>
</mask>
<g mask="url(#mask7_274_2075)">
<path d="M243.296 272.21C243.296 272.21 238.372 275.373 239.774 279.242C239.774 279.242 238.72 289.078 240.481 295.763C241.918 301.214 242.41 309.24 245.992 312.535C243.033 306.053 241.511 290.336 248.975 283.579C257.241 276.103 277.727 272.557 277.727 272.557V272.438C274.696 273.049 269.424 273.971 262.656 274.63C256.103 275.283 249.487 274.456 243.296 272.21Z" fill="#C6FF00"/>
<path opacity="0.7" d="M243.296 272.21C243.296 272.21 238.372 275.373 239.774 279.242C239.774 279.242 238.72 289.078 240.481 295.763C241.918 301.214 242.41 309.24 245.992 312.535C243.033 306.053 241.511 290.336 248.975 283.579C257.241 276.103 277.727 272.557 277.727 272.557V272.438C274.696 273.049 269.424 273.971 262.656 274.63C256.103 275.283 249.487 274.456 243.296 272.21Z" fill="white"/>
</g>
<path d="M239.774 279.242C239.774 279.242 238.72 289.078 240.481 295.762C242.242 302.447 242.589 312.99 248.867 314.044C255.144 315.098 275.93 303.49 279.799 299.273C282.522 296.44 284.035 292.659 284.016 288.73C284.016 286.622 280.506 271.862 280.506 271.862C274.586 273.204 268.582 274.145 262.536 274.678C255.991 275.309 249.388 274.466 243.212 272.21C243.212 272.21 238.396 275.372 239.774 279.242Z" stroke="#263238" stroke-linecap="round" stroke-linejoin="round"/>
<path d="M243.993 275.732C243.993 275.732 244.352 266.938 240.123 266.938C235.894 266.938 233.103 281.314 241.189 283.111" fill="white"/>
<mask id="mask8_274_2075" style="mask-type:luminance" maskUnits="userSpaceOnUse" x="236" y="266" width="8" height="18">
<path d="M243.993 275.732C243.993 275.732 244.352 266.938 240.123 266.938C235.894 266.938 233.103 281.314 241.189 283.111" fill="white"/>
</mask>
<g mask="url(#mask8_274_2075)">
<path d="M243.993 275.732C243.993 275.732 244.352 266.938 240.123 266.938C235.894 266.938 233.103 281.314 241.189 283.111" fill="#C6FF00"/>
<path opacity="0.7" d="M243.993 275.732C243.993 275.732 244.352 266.938 240.123 266.938C235.894 266.938 233.103 281.314 241.189 283.111" fill="white"/>
</g>
<path d="M243.993 275.732C243.993 275.732 244.352 266.938 240.123 266.938C235.894 266.938 233.103 281.314 241.189 283.111" stroke="#263238" stroke-linecap="round" stroke-linejoin="round"/>
<path d="M270.745 291.198C270.745 291.198 262.359 304.544 260.55 304.544C258.741 304.544 257.734 301.741 257.734 301.741" stroke="#263238" stroke-linecap="round" stroke-linejoin="round"/>
<path d="M254.898 285.915C255.057 287.475 255.795 288.918 256.966 289.961C258.137 291.003 259.656 291.569 261.224 291.546" stroke="#263238" stroke-linecap="round" stroke-linejoin="round"/>
<path d="M270 296.816C270 296.816 270.359 301.381 276.325 299.979" stroke="#263238" stroke-linecap="round" stroke-linejoin="round"/>
<path d="M267.547 286.622C267.547 286.622 265.092 280.296 259.461 279.949" stroke="#263238" stroke-width="1.5" stroke-linecap="round" stroke-linejoin="round"/>
<path d="M279.848 294.002C277.381 289.785 272.469 290.839 272.469 290.839" stroke="#263238" stroke-width="1.5" stroke-linecap="round" stroke-linejoin="round"/>
<path d="M250.703 303.25C250.79 304.177 251.176 305.051 251.803 305.74C252.429 306.43 253.263 306.897 254.177 307.072" stroke="#263238" stroke-linecap="round" stroke-linejoin="round"/>
<path d="M275.672 308.042C275.672 308.042 276.642 313.397 282.488 302.675C288.335 291.953 280.56 271.862 280.56 271.862" stroke="#263238" stroke-linecap="round" stroke-linejoin="round"/>
<path opacity="0.13" d="M257.242 358.945C257.273 358.876 257.297 358.803 257.314 358.729L257.242 358.945Z" fill="black"/>
</svg>
