<svg width="100" height="100" viewBox="0 0 100 100" fill="none" xmlns="http://www.w3.org/2000/svg">
<g clip-path="url(#clip0_308_2652)">
<path d="M50 100C77.6142 100 100 77.6142 100 50C100 22.3858 77.6142 0 50 0C22.3858 0 0 22.3858 0 50C0 77.6142 22.3858 100 50 100Z" fill="url(#paint0_linear_308_2652)"/>
<path fill-rule="evenodd" clip-rule="evenodd" d="M22.6313 49.4723C37.2073 43.1217 46.9269 38.9351 51.7902 36.9123C65.6757 31.1368 68.561 30.1336 70.4416 30.1005C70.8552 30.0932 71.78 30.1957 72.3791 30.6818C72.8849 31.0922 73.0241 31.6467 73.0907 32.0358C73.1573 32.425 73.2402 33.3115 73.1743 34.0042C72.4218 41.9103 69.166 61.0965 67.5095 69.9516C66.8086 73.6985 65.4286 74.9548 64.0925 75.0777C61.1889 75.3449 58.9841 73.1588 56.1718 71.3154C51.7711 68.4307 49.285 66.635 45.0134 63.8201C40.0769 60.5669 43.2771 58.779 46.0904 55.8569C46.8266 55.0922 59.6199 43.4557 59.8676 42.4001C59.8985 42.2681 59.9273 41.776 59.6349 41.5161C59.3426 41.2563 58.9111 41.3451 58.5997 41.4158C58.1583 41.516 51.1282 46.1626 37.5094 55.3557C35.5139 56.7259 33.7065 57.3936 32.0871 57.3586C30.3018 57.32 26.8677 56.3492 24.3148 55.5193C21.1835 54.5015 18.6949 53.9633 18.9116 52.2347C19.0245 51.3343 20.2644 50.4135 22.6313 49.4723Z" fill="white"/>
</g>
<defs>
<linearGradient id="paint0_linear_308_2652" x1="50" y1="0" x2="50" y2="99.2583" gradientUnits="userSpaceOnUse">
<stop stop-color="#2AABEE"/>
<stop offset="1" stop-color="#229ED9"/>
</linearGradient>
<clipPath id="clip0_308_2652">
<rect width="100" height="100" fill="white"/>
</clipPath>
</defs>
</svg>
