<svg width="250" height="250" viewBox="0 0 250 250" fill="none" xmlns="http://www.w3.org/2000/svg">
<g opacity="0.25">
<path d="M74.85 226H18C17.4477 226 17 225.552 17 225V111C17 110.448 17.4477 110 18 110H74.85C74.9328 110 75 110.067 75 110.15V225.85C75 225.933 74.9328 226 74.85 226Z" stroke="#077F00" stroke-width="10" stroke-linecap="round"/>
<path d="M75 110L99.4466 73.4519C102.198 69.3386 103.667 64.5012 103.667 59.5525V35C103.667 21.1929 114.86 10 128.667 10H136C149.807 10 161 21.1929 161 35V110" stroke="#077F00" stroke-width="10" stroke-linecap="round"/>
<path d="M132.455 110H205.086C219.98 110 231.57 122.941 229.934 137.746L221.095 217.746C219.696 230.413 208.991 240 196.246 240H142.64C136.12 240 129.87 237.401 125.273 232.778V232.778C120.676 228.155 114.425 225.556 107.906 225.556H75" stroke="#077F00" stroke-width="10" stroke-linecap="round"/>
</g>
</svg>
