<svg width="250" height="250" viewBox="0 0 250 250" fill="none" xmlns="http://www.w3.org/2000/svg">
<g opacity="0.25">
<path d="M104.723 49.3356C118.005 45.7768 131.99 45.7768 145.272 49.3356C158.553 52.8945 170.664 59.8868 180.387 69.6098C190.11 79.3328 197.103 91.4438 200.662 104.726C204.22 118.008 204.22 131.992 200.662 145.274" stroke="#077F00" stroke-width="10" stroke-linecap="round" stroke-linejoin="round"/>
<path d="M180.387 180.39C165.697 195.08 145.773 203.333 124.997 203.333C104.222 203.333 84.2977 195.08 69.6074 180.39C54.917 165.7 46.6641 145.775 46.6641 125C46.6641 104.225 54.917 84.3002 69.6074 69.6098" stroke="#077F00" stroke-width="10"/>
<path d="M197.919 197.917L52.0859 52.0835" stroke="#077F00" stroke-width="10" stroke-linecap="round" stroke-linejoin="round"/>
<path d="M186.468 37.9017C192.615 39.5486 198.219 42.7844 202.719 47.2839C207.218 51.7833 210.454 57.3879 212.101 63.5343" stroke="#077F00" stroke-width="10" stroke-linecap="round"/>
</g>
</svg>
