<svg width="48" height="49" viewBox="0 0 48 49" fill="none" xmlns="http://www.w3.org/2000/svg">
<path fill-rule="evenodd" clip-rule="evenodd" d="M42 28.5C42 38.4411 33.9411 46.5 24 46.5C14.0589 46.5 6 38.4411 6 28.5C6 18.5589 14.0589 10.5 24 10.5C33.9411 10.5 42 18.5589 42 28.5ZM24 40.5C30.6274 40.5 36 35.1274 36 28.5C36 21.8726 30.6274 16.5 24 16.5C17.3726 16.5 12 21.8726 12 28.5C12 35.1274 17.3726 40.5 24 40.5ZM24 42.5C31.732 42.5 38 36.232 38 28.5C38 20.768 31.732 14.5 24 14.5C16.268 14.5 10 20.768 10 28.5C10 36.232 16.268 42.5 24 42.5ZM25.5 22.5C25.5 21.6716 24.8284 21 24 21C23.1716 21 22.5 21.6716 22.5 22.5V28.5C22.5 29.3284 23.1716 30 24 30C24.8284 30 25.5 29.3284 25.5 28.5V22.5Z" fill="#FFC81A"/>
<path d="M35 15.5L38 12.5" stroke="#FFC81A" stroke-width="3" stroke-linecap="round"/>
<path d="M20.1363 5.24118C20.3642 5.02855 20.8664 4.84066 21.565 4.70665C22.2635 4.57264 23.1195 4.5 24 4.5C24.8805 4.5 25.7365 4.57264 26.435 4.70665C27.1336 4.84066 27.6358 5.02855 27.8637 5.24118" stroke="#FFC81A" stroke-width="3" stroke-linecap="round"/>
</svg>
