<svg width="48" height="49" viewBox="0 0 48 49" fill="none" xmlns="http://www.w3.org/2000/svg">
<path fill-rule="evenodd" clip-rule="evenodd" d="M4.87868 7.37868C4 8.25736 4 9.67157 4 12.5V36.5C4 39.3284 4 40.7426 4.87868 41.6213C5.75736 42.5 7.17157 42.5 10 42.5H38C40.8284 42.5 42.2426 42.5 43.1213 41.6213C44 40.7426 44 39.3284 44 36.5V34.5H32C30.1362 34.5 29.2044 34.5 28.4693 34.1955C27.4892 33.7895 26.7105 33.0108 26.3045 32.0307C26 31.2956 26 30.3638 26 28.5C26 26.6362 26 25.7044 26.3045 24.9693C26.7105 23.9892 27.4892 23.2105 28.4693 22.8045C29.2044 22.5 30.1362 22.5 32 22.5H44V12.5C44 9.67157 44 8.25736 43.1213 7.37868C42.2426 6.5 40.8284 6.5 38 6.5H10C7.17157 6.5 5.75736 6.5 4.87868 7.37868ZM14 15C13.1716 15 12.5 15.6716 12.5 16.5C12.5 17.3284 13.1716 18 14 18H20C20.8284 18 21.5 17.3284 21.5 16.5C21.5 15.6716 20.8284 15 20 15H14Z" fill="#FFC81A"/>
<path d="M34 28.5H32" stroke="#FFC81A" stroke-width="3" stroke-linecap="round"/>
</svg>
